<svg width="664" height="118" viewBox="0 0 664 118" fill="none" xmlns="http://www.w3.org/2000/svg">
<path d="M62 0L76.5934 44.9139H123.819L85.6126 72.6722L100.206 117.586L62 89.8278L23.794 117.586L38.3874 72.6722L0.181328 44.9139H47.4066L62 0Z" fill="#00ADB5"/>
<path d="M192 0L206.593 44.9139H253.819L215.613 72.6722L230.206 117.586L192 89.8278L153.794 117.586L168.387 72.6722L130.181 44.9139H177.407L192 0Z" fill="#00ADB5"/>
<path d="M322 0L336.593 44.9139H383.819L345.613 72.6722L360.206 117.586L322 89.8278L283.794 117.586L298.387 72.6722L260.181 44.9139H307.407L322 0Z" fill="#00ADB5"/>
<path d="M452 0L466.593 44.9139H513.819L475.613 72.6722L490.206 117.586L452 89.8278L413.794 117.586L428.387 72.6722L390.181 44.9139H437.407L452 0Z" fill="#00ADB5"/>
<path d="M582 0L596.593 44.9139H643.819L605.613 72.6722L620.206 117.586L582 89.8278L543.794 117.586L558.387 72.6722L520.181 44.9139H567.407L582 0Z" fill="#00ADB5"/>
</svg>
