<svg xmlns="http://www.w3.org/2000/svg" xmlns:xlink="http://www.w3.org/1999/xlink" viewBox="0 0 1327.65 993.39"><defs><style>.cls-1{fill:none;}.cls-1,.cls-4{opacity:0.25;}.cls-2{isolation:isolate;}.cls-3{clip-path:url(#clip-path);}.cls-10,.cls-11,.cls-12,.cls-13,.cls-14,.cls-15,.cls-16,.cls-17,.cls-18,.cls-19,.cls-20,.cls-21,.cls-22,.cls-23,.cls-24,.cls-25,.cls-26,.cls-27,.cls-5,.cls-7,.cls-8,.cls-9{mix-blend-mode:multiply;}.cls-5{opacity:0;}.cls-6{fill:#00adb5;}.cls-7{opacity:0.05;}.cls-8{opacity:0.1;}.cls-9{opacity:0.14;}.cls-10{opacity:0.19;}.cls-11{opacity:0.24;}.cls-12{opacity:0.29;}.cls-13{opacity:0.33;}.cls-14{opacity:0.38;}.cls-15{opacity:0.43;}.cls-16{opacity:0.48;}.cls-17{opacity:0.52;}.cls-18{opacity:0.57;}.cls-19{opacity:0.62;}.cls-20{opacity:0.67;}.cls-21{opacity:0.71;}.cls-22{opacity:0.76;}.cls-23{opacity:0.81;}.cls-24{opacity:0.86;}.cls-25{opacity:0.9;}.cls-26{opacity:0.95;}</style><clipPath id="clip-path" transform="translate(225.72 225.45)"><rect class="cls-1" x="-33" y="-32" width="978" height="516"/></clipPath></defs><g class="cls-2"><g id="Layer_1" data-name="Layer 1"><g class="cls-3"><g class="cls-4"><g class="cls-5"><path class="cls-6" d="M224.22,767.93l-1.88-.44c23.68-86.15,2-183.49-56.56-254S11,398.3-85.22,397c-7.24-.09-14.64,0-21.79.16-16.33.29-33.22.59-49.64-1.78-27.31-4-49.34-15.82-60.44-32.56-21.64-32.63.23-76.8,34.24-97.57,30.5-18.63,67.84-23.81,103.94-28.82l12.23-1.72c38.65-5.56,81.83-15,109.06-42.48,22.95-23.19,31.33-55.63,39.43-87C90.93,69.94,100.36,33.4,130.9,11c29-21.29,72-25.75,131.54-13.65,6.07,1.24,12.17,2.55,18.29,3.87C319,9.44,358.55,18,396.08,8.39,443.85-3.77,481.37-46.46,487.31-95.4c5.47-45.06-14.29-93.07-52.86-128.45l1.37-1.27c39,35.76,59,84.32,53.42,129.92-6,49.65-44.13,93-92.65,105.32-38,9.68-77.81,1.12-116.3-7.17C274.18,1.64,268.08.33,262-.91c-58.9-12-101.39-7.63-129.92,13.31-30,22-39,56.63-48.42,93.28-8.15,31.59-16.59,64.25-39.88,87.79-27.63,27.93-71.21,37.43-110.19,43-4.07.59-8.15,1.15-12.24,1.72-35.9,5-73,10.13-103.16,28.55-33.25,20.31-54.71,63.38-33.66,95.14,10.8,16.28,32.34,27.84,59.09,31.72,16.26,2.35,33.06,2.05,49.3,1.76,7.17-.12,14.58-.25,21.86-.16A347.69,347.69,0,0,1,55.38,427.5c44.13,20.47,82.84,49.82,111.94,84.86A290.41,290.41,0,0,1,227,634.22C237,678.9,236,725.13,224.22,767.93Z" transform="translate(225.72 225.45)"/></g><g class="cls-7"><path class="cls-6" d="M207.14,767.67l-1.87-.47c22-75.51,10.26-157.63-32.34-225.31a278.48,278.48,0,0,0-16.55-23.49C113.7,464.08,48,423.71-23.93,407.63a327.23,327.23,0,0,0-60.68-7.73c-7.18-.23-14.52-.23-21.62-.24-15.84,0-32.22,0-48.18-2.53-15.65-2.47-44.18-9.92-59.42-32.15-22.22-32.42-1.88-74.94,29.71-95.75C-155,250.08-118.56,243.94-83.28,238l9.72-1.64C-34,229.68,6.3,219.81,33.23,193.15c22.59-22.43,31.63-53.44,40.38-83.44C83.61,75.43,94,40,124.81,18.63,145.75,4.16,174-2.09,211.32-.44a413.94,413.94,0,0,1,46.06,4.91c4.74.74,9.48,1.51,14.21,2.28,8.71,1.41,17.72,2.87,26.38,4.08,27.27,3.87,56.34,6.89,85.61-2.23,1.78-.55,3.57-1.16,5.32-1.81,24.87-9.11,47.69-26.31,64.28-48.43,12.3-16.4,20.48-34.83,23.63-53.31a120.39,120.39,0,0,0,1.72-18.83c.61-39.42-18.77-80.57-51.83-110.07l1.35-1.29c33.44,29.84,53,71.48,52.42,111.39a122.49,122.49,0,0,1-1.74,19.08c-3.2,18.74-11.49,37.43-24,54.05C438-18.21,414.83-.78,389.62,8.46c-1.78.65-3.6,1.27-5.42,1.84-29.68,9.25-59,6.21-86.52,2.3C289,11.39,280,9.93,271.25,8.51c-4.72-.76-9.45-1.53-14.2-2.27a412,412,0,0,0-45.83-4.89C174.43-.26,146.54,5.85,126,20.07c-30.33,21-40.13,54.55-50.5,90.1-8.81,30.21-17.92,61.45-40.83,84.2-27.32,27-68,37-107.85,43.76-3.24.56-6.48,1.1-9.73,1.65-35.08,5.89-71.35,12-100.06,30.91-31,20.42-50.13,62.79-29.2,93.33,14.84,21.64,42.78,28.93,58.11,31.34,15.79,2.49,32.09,2.5,47.85,2.51,7.12,0,14.47,0,21.69.24a328.89,328.89,0,0,1,61.07,7.78C48.88,422.07,115,462.69,158,517.35A278.18,278.18,0,0,1,174.61,541C217.47,609.08,229.32,691.7,207.14,767.67Z" transform="translate(225.72 225.45)"/></g><g class="cls-8"><path class="cls-6" d="M190.06,767.4l-1.87-.49a274.51,274.51,0,0,0-25.84-220.37A265.5,265.5,0,0,0,147,523.34C107,469.37,44.34,428.61-25,411.52a315.92,315.92,0,0,0-59-8.74c-7.13-.38-14.43-.52-21.48-.66-15.35-.31-31.21-.63-46.69-3.28-15.25-2.6-43.12-10.18-58.39-31.73-22.08-31.15-4.13-73,25.16-93.94,28-20,64.17-27.12,99.17-34l5.8-1.15c38.63-7.67,78-18.31,104.51-44,22.2-21.65,31.9-51.24,41.28-79.86,10.9-33.25,22.17-67.63,53.37-87.9,27.42-17.83,63-18.9,87.45-18.16,13.55.41,28.64,1.55,46.13,3.49l5.35.58c12,1.3,23.27,2.52,34.2,3.38,28.65,2.27,52.68,3.2,79.22-6.75,1.67-.63,3.36-1.32,5-2,24-10.31,47.4-28.27,64.27-49.3,13.19-16.43,21.91-33.91,25.93-52a120.71,120.71,0,0,0,2.61-18.57c2.45-39.42-16.7-81.88-50-110.79l1.33-1.31C454-195.89,473.35-152.89,470.86-113a121.77,121.77,0,0,1-2.64,18.84c-4.08,18.31-12.91,36-26.27,52.67C424.9-20.19,401.2-2,376.94,8.4c-1.7.74-3.43,1.43-5.13,2.07-26.94,10.11-51.2,9.17-80.12,6.89-11-.87-22.27-2.09-34.25-3.39l-5.36-.58c-17.43-1.93-32.47-3.07-46-3.48-24.14-.73-59.33.31-86.28,17.83-30.65,19.92-41.32,52.48-52.62,87C57.78,143.52,48,173.32,25.49,195.27-1.35,221.28-41.08,232-80,239.75l-5.81,1.15c-34.78,6.86-70.75,14-98.38,33.69-28.61,20.44-46.2,61.24-24.73,91.54,14.88,21,42.18,28.4,57.13,30.95,15.32,2.62,31.1,2.94,46.37,3.24,7.07.15,14.38.29,21.55.67a318.31,318.31,0,0,1,59.39,8.8C45.28,427,108.36,468,148.58,522.33a273.63,273.63,0,0,1,15.48,23.35A276.23,276.23,0,0,1,190.06,767.4Z" transform="translate(225.72 225.45)"/></g><g class="cls-9"><path class="cls-6" d="M173,767.13l-1.85-.52c23.57-71.65,16.52-150.17-19.35-215.42a258.65,258.65,0,0,0-14.2-22.91C99.8,473.86,41.69,433.77-26.07,415.42a304.63,304.63,0,0,0-57.32-9.77c-7.1-.52-14.36-.81-21.39-1.1-14.83-.6-30.17-1.22-45.15-4S-192,390.11-207.3,369.24c-22.22-30.31-7-70.63,20.63-92.12,26.84-20.9,61.19-28.75,97.56-37.07l1.8-.42c35.23-8.06,75.08-18.83,102.24-44.7,21.88-20.84,32.22-49,42.21-76.32,12.34-33.68,24-65.49,55.5-84.69C139,17.84,172.13,16.18,201.05,16.68c15.89.26,31.53,1.16,46.19,2.06,15.8,1,28,1.47,38.49,1.58,28.12.27,48.38-.35,72.85-11.29Q361,8,363.34,6.76a213.43,213.43,0,0,0,64.27-50.15C441.54-59.64,451-76.68,455.82-94a115.12,115.12,0,0,0,3.5-18.31c4.43-39.91-14-82.64-48.11-111.52l1.31-1.32c34.55,29.26,53.22,72.56,48.74,113a118.29,118.29,0,0,1-3.56,18.56c-4.86,17.6-14.47,34.86-28.57,51.31A215.54,215.54,0,0,1,364.27,8.34q-2.43,1.21-4.85,2.3c-24.84,11.11-45.32,11.75-73.71,11.47-10.5-.1-22.77-.61-38.6-1.58-14.64-.9-30.25-1.8-46.1-2.06-28.63-.49-61.38,1.14-87.3,16.94C82.76,54.28,71.21,85.81,59,119.18c-10.06,27.47-20.47,55.87-42.66,77-27.52,26.21-67.68,37.07-103.16,45.19l-1.81.41c-36.14,8.27-70.27,16.08-96.77,36.71-26.93,21-41.88,60.28-20.27,89.74,14.91,20.34,41.58,27.89,56.14,30.58,14.84,2.74,30.1,3.35,44.86,3.95,7,.29,14.32.58,21.46,1.1a308,308,0,0,1,57.71,9.84c68.2,18.48,126.7,58.83,164.72,113.62a259.2,259.2,0,0,1,14.3,23.06C189.59,616,196.69,695.05,173,767.13Z" transform="translate(225.72 225.45)"/></g><g class="cls-10"><path class="cls-6" d="M155.89,766.87l-1.85-.55c24.35-69.77,19.66-146.48-12.85-210.48a251.42,251.42,0,0,0-13-22.61C93.18,479.12,38,438.66-27.14,419.31a294.22,294.22,0,0,0-55.64-10.79c-7.07-.67-14.32-1.12-21.33-1.55-14.31-.89-29.1-1.8-43.58-4.69-25-5-45-15.95-56.34-30.91-22.89-30.16-8.79-69,16.08-90.29,25.78-22,61.9-31.48,93.77-39.82,36-9.42,73.43-20.68,100-45.43,21.48-20,32.42-46.81,43-72.7,13.34-32.61,25.93-63.42,57.77-81.57,26.8-15.28,60.17-16.45,89.36-16.32,10.28,0,20.54.21,30.47.39,5.4.09,10.69.19,15.78.25,14.17.19,26.77-.09,37.44-.81,26.06-1.75,43.54-3.7,66.47-15.81,1.48-.79,3-1.63,4.49-2.5,23.69-13.68,47.11-32.28,64.26-51,14.73-16.1,25-32.69,30.51-49.3a113.45,113.45,0,0,0,4.4-18c6.36-39.74-11.8-83.8-46.27-112.25l1.3-1.33c34.94,28.84,53.34,73.52,46.89,113.84A116.46,116.46,0,0,1,447.19-93c-5.6,16.85-16,33.65-30.89,49.93C399-24.23,375.44-5.5,351.59,8.27Q349.3,9.61,347,10.81c-23.29,12.31-41,14.27-67.3,16-10.73.72-23.37,1-37.6.81-5.1-.06-10.39-.16-15.8-.25-9.91-.18-20.17-.36-30.43-.39-28.92-.11-62,1-88.34,16-31.27,17.84-43.76,48.37-57,80.69-10.66,26.06-21.67,53-43.44,73.32-26.87,25-64.54,36.41-100.82,45.9-31.65,8.28-67.53,17.66-93,39.4-24.27,20.75-38.07,58.63-15.81,87.95,11.07,14.59,30.66,25.32,55.16,30.19,14.34,2.86,29.06,3.77,43.3,4.65,7,.43,14.29.88,21.4,1.56a295.93,295.93,0,0,1,56,10.87c65.6,19.48,121.14,60.21,156.37,114.7A252.64,252.64,0,0,1,143,555.08C175.67,619.48,180.38,696.68,155.89,766.87Z" transform="translate(225.72 225.45)"/></g><g class="cls-11"><path class="cls-6" d="M138.8,766.6,137,766c25.12-67.92,22.81-142.83-6.36-205.54a243.72,243.72,0,0,0-11.85-22.32c-32.19-53.81-84.39-94.64-147-115a283.66,283.66,0,0,0-54-11.81c-7.06-.84-14.31-1.45-21.31-2-13.78-1.16-28-2.35-42-5.35-24.3-5.21-44-16-55.32-30.51-22.95-29.19-11.56-66.6,11.55-88.46,22.75-21.52,53.39-31.81,88.16-42.13,31.08-9.22,69.77-20.7,97.69-46.18,21-19.21,32.56-44.53,43.7-69C54.7,96.14,68.27,66.32,100.47,49.2c25.77-13.7,57.43-15.11,90.31-15.41l5.79,0c13.73-.13,27.92-.26,40.52-.72a318.89,318.89,0,0,0,36.36-3.19c22.71-3.51,37.76-6.38,60.11-20.34,1.39-.87,2.79-1.79,4.21-2.74,14.49-9.63,42.1-29.17,64.27-51.9,15.8-16.19,26.53-31.89,32.8-48a110.91,110.91,0,0,0,5.29-17.77c8.3-39.51-9.55-84.9-44.41-113l1.27-1.35c35.92,28.92,53.6,73.92,45,114.66a112.63,112.63,0,0,1-5.36,18c-6.36,16.3-17.22,32.18-33.19,48.55-22.29,22.86-50,42.49-64.57,52.15q-2.16,1.46-4.26,2.77C312,25.15,296.74,28,273.78,31.6a323.54,323.54,0,0,1-36.61,3.21c-12.63.46-26.84.59-40.58.72l-5.79.06c-32.62.29-64,1.68-89.36,15.17C69.8,67.57,56.36,97.12,42.12,128.4,30.9,153.05,19.31,178.53-2,198c-28.24,25.79-68.83,37.83-98.46,46.62-34.52,10.24-64.92,20.44-87.37,41.68s-33.68,57.76-11.36,86.15c11.1,14.12,30.34,24.71,54.19,29.82,13.82,3,28,4.16,41.7,5.31,7,.59,14.29,1.2,21.39,2a286.49,286.49,0,0,1,54.36,11.9c63,20.48,115.59,61.6,148,115.79a246,246,0,0,1,11.94,22.48C161.75,622.89,164.08,698.28,138.8,766.6Z" transform="translate(225.72 225.45)"/></g><g class="cls-12"><path class="cls-6" d="M121.72,766.34l-1.83-.61c26.31-67.07,26.36-138.31.14-200.6a234.18,234.18,0,0,0-10.67-22C80,489.59,30.74,448.39-29.28,427.1a272.66,272.66,0,0,0-52.29-12.84c-7.06-1-14.33-1.79-21.35-2.55-13.22-1.42-26.88-2.9-40.29-6-23.64-5.44-42.92-16.13-54.29-30.1-23.82-29.25-13.07-65.41,7-86.62,21.49-22.72,52.57-34.42,82.56-44.46l1-.32c31.7-10.61,67.62-22.63,94.47-46.61C8,179.24,20.09,155.4,31.75,132.35c15.45-30.55,30-59.41,62.63-75.5,26.46-13.07,58.82-13.78,90.11-14.47l1.16,0c19.4-.44,34.14-1.14,46.37-2.19A225.23,225.23,0,0,0,267.3,34.6c22.43-5.7,33.92-10.32,53.76-24.88q1.92-1.43,3.93-3l2.87-2.18C346.81-9.88,370.39-27.86,389.25-46,406-62.13,417.47-77.38,424.36-92.66a108.81,108.81,0,0,0,6.17-17.51C440.92-150,423.81-195.7,388-223.86l1.26-1.37c36.38,28.59,53.74,75,43.19,115.48A111.67,111.67,0,0,1,426.15-92c-7,15.48-18.6,30.91-35.5,47.18C371.72-26.55,348.08-8.53,329.09,6l-2.86,2.18q-2,1.56-4,3c-20.1,14.76-31.74,19.44-54.44,25.21A228.35,228.35,0,0,1,232.2,42c-12.28,1-27,1.75-46.51,2.19l-1.15,0c-31.07.68-63.19,1.39-89.24,14.26-32,15.81-46.48,44.4-61.79,74.68-11.73,23.2-23.87,47.19-44.68,65.78-27.15,24.25-63.28,36.34-95.16,47l-1,.32c-29.76,10-60.58,21.56-81.76,44-19.57,20.69-30.08,55.91-6.91,84.36,11.1,13.65,30,24.1,53.21,29.44,13.29,3.07,26.89,4.53,40,5.95,7,.76,14.33,1.54,21.43,2.56a274.41,274.41,0,0,1,52.69,12.94c60.46,21.45,110.06,62.95,139.67,116.86a237.61,237.61,0,0,1,10.75,22.19C148.23,627.17,148.18,698.86,121.72,766.34Z" transform="translate(225.72 225.45)"/></g><g class="cls-13"><path class="cls-6" d="M104.63,766.08l-1.81-.64c27.14-65.28,29.49-134.77,6.63-195.66A227.49,227.49,0,0,0,100,548C73.4,494.8,27.12,453.23-30.35,431A262.55,262.55,0,0,0-81,417.13C-88,415.93-95.35,415-102.42,414c-12.64-1.67-25.71-3.4-38.55-6.58-16.26-4-38.69-12.42-53.27-29.69-23.75-28.14-15.88-62.86,2.46-84.78,18.07-21.62,43.83-34.34,77-46.79l5.08-1.91c29.27-11,62.44-23.38,88.08-45.77C-1.64,181,10.89,158.67,23,137.06,39.61,107.5,55.27,79.58,88.3,64.49c25-11.43,55.06-12.39,84.11-13.31l8.1-.27c18-.64,33.59-1.86,46.44-3.6,13.16-1.79,25-4.53,34.2-7.93C281.29,32,289.79,26.13,308.55,10l2.65-2.31,1-.9c8-7,17.45-14.68,27.43-22.76C352.13-26.11,365-36.55,376.47-46.9c18-16.26,29.87-30.66,37.4-45.3a105.93,105.93,0,0,0,7.07-17.25C433.27-149,416.53-196,380.22-223.87l1.24-1.37c36.88,28.28,53.88,76.1,41.34,116.29a107.46,107.46,0,0,1-7.18,17.52C408-76.59,396-62,377.82-45.62c-11.47,10.38-24.39,20.84-36.89,31C331-6.6,321.55,1,313.55,8.05l-1,.89c-.91.8-1.79,1.58-2.66,2.33-19,16.35-27.57,22.24-48,29.78-9.35,3.44-21.33,6.22-34.64,8-12.92,1.76-28.61,3-46.64,3.62l-8.11.27c-28.85.92-58.68,1.87-83.32,13.13-32.46,14.83-48,42.49-64.42,71.79C12.54,159.62-.07,182.1-20.34,199.8c-25.9,22.62-59.26,35.11-88.68,46.13l-5.07,1.9c-32.84,12.35-58.35,24.94-76.16,46.23s-25.57,55.21-2.46,82.59c14.25,16.87,36.27,25.11,52.24,29.06,12.74,3.15,25.75,4.87,38.33,6.54,7.08.94,14.4,1.91,21.53,3.12a264.34,264.34,0,0,1,51,14C28.32,451.75,75,493.64,101.72,547.28a232.22,232.22,0,0,1,9.57,21.91C134.29,630.49,131.93,700.41,104.63,766.08Z" transform="translate(225.72 225.45)"/></g><g class="cls-14"><path class="cls-6" d="M87.55,765.81l-1.8-.67c28-63.53,32.65-131.26,13.13-190.72A224,224,0,0,0,90.55,553c-23.71-53-67-94.92-122-118.09A251.81,251.81,0,0,0-80.36,420c-7.13-1.41-14.5-2.58-21.62-3.71-12-1.91-24.5-3.88-36.76-7.14-15.79-4.17-37.67-12.64-52.23-29.27-25.19-28.76-16.87-62.65-2.09-82.94,17.61-24.19,44.7-37.9,71.35-49.12,3-1.28,6.11-2.56,9.24-3.86,26.87-11.16,57.32-23.82,81.65-44.57C-11.38,182.81,1.56,162,14.09,141.87c17.79-28.61,34.6-55.63,68.13-69.73,23.76-10,51.8-11.06,78.91-12.09,4.76-.18,9.51-.36,14.25-.58a355.24,355.24,0,0,0,46.49-5C235,52,246.47,48.45,255,44.18c15.77-7.91,21.85-14.18,34-26.69,2.15-2.23,4.49-4.64,7.1-7.29l3.39-3.44C310.59-4.48,326-17,341-29.08c7.62-6.18,15.5-12.56,22.71-18.69,13-11.08,29.32-26.08,39.71-44a105.11,105.11,0,0,0,8-17c14.48-39.8-1.5-87.15-38.88-115.14l1.23-1.39c38,28.45,54.22,76.6,39.49,117.1a107.32,107.32,0,0,1-8.09,17.27c-10.53,18.12-27,33.27-40.1,44.43-7.23,6.15-15.12,12.54-22.75,18.72C327.35-15.67,312-3.2,300.87,8l-3.38,3.44c-2.61,2.64-4.94,5.05-7.09,7.27C278.53,31,272,37.7,255.92,45.75c-8.7,4.36-20.34,8-33.66,10.46a356.13,356.13,0,0,1-46.78,5c-4.75.22-9.51.4-14.27.58-26.92,1-54.77,2.07-78.19,11.93-33,13.86-49.61,40.64-67.25,69C3.17,163-9.85,183.94-29.5,200.7c-24.57,21-55.17,33.67-82.18,44.9q-4.68,1.93-9.22,3.85c-26.4,11.11-53.21,24.67-70.55,48.49-14.41,19.78-22.53,52.82,2,80.81,14.24,16.27,35.74,24.58,51.26,28.68,12.16,3.23,24.56,5.19,36.55,7.1,7.14,1.13,14.53,2.3,21.7,3.72a253.85,253.85,0,0,1,49.33,15c55.4,23.36,99.07,65.63,123,119a224.78,224.78,0,0,1,8.38,21.62C120.39,633.75,115.7,701.91,87.55,765.81Z" transform="translate(225.72 225.45)"/></g><g class="cls-15"><path class="cls-6" d="M70.46,765.55l-1.78-.71C97.55,703,104.52,637,88.3,579.06a215.54,215.54,0,0,0-7.15-21.16C60.32,505.17,20,462.86-32.5,438.76a242.43,242.43,0,0,0-47.25-15.89c-7.22-1.64-14.69-3-21.91-4.38-11.41-2.12-23.21-4.32-34.84-7.62-15.34-4.34-36.67-12.87-51.2-28.86-25-27.48-19.81-59.91-6.64-81.09,12.65-20.35,32.31-35.74,65.75-51.46,4.38-2.06,8.9-4.13,13.53-6.25C-90.59,232-62.85,219.34-40,200.28c18.77-15.63,32-34.88,44.87-53.49C24,119.09,42,92.92,76.13,79.78,98.79,71.05,125.07,70,150.48,69c6.49-.27,13.2-.54,19.77-.93a279.59,279.59,0,0,0,46.55-6.42C230,58.47,241,54.11,248.84,49c11.56-7.6,16.33-14.16,22.93-23.23,3.18-4.37,6.79-9.32,11.78-15.31l.24-.29c.92-1.09,1.87-2.23,2.87-3.39,12.85-14.88,32.83-30.62,52.15-45.84,4.11-3.24,8.17-6.44,12.09-9.58,15.46-12.35,31.24-26.07,42-42.63A102.93,102.93,0,0,0,401.75-108c16.43-39.42.86-88.15-37-115.87l1.2-1.41c38.53,28.2,54.36,77.79,37.64,117.92a104.92,104.92,0,0,1-9,17c-10.9,16.77-26.82,30.6-42.4,43.06-3.92,3.14-8,6.34-12.1,9.58C320.82-22.54,300.91-6.86,288.18,7.88q-1.49,1.74-2.85,3.38l-.24.29c-4.95,5.93-8.54,10.86-11.71,15.21C266.67,36,261.82,42.66,250,50.45c-8,5.24-19.29,9.7-32.67,12.89a280.75,280.75,0,0,1-46.92,6.47c-6.59.4-13.3.67-19.8.94-25.24,1-51.35,2.08-73.69,10.69C43.34,94.36,25.46,120.29,6.54,147.75c-12.91,18.72-26.25,38.07-45.21,53.86-23.08,19.22-50.95,32-75.53,43.21-4.62,2.11-9.14,4.18-13.51,6.23-33.08,15.56-52.5,30.74-64.95,50.76-12.84,20.66-17.9,52.27,6.44,79.05,14.23,15.65,35.2,24,50.29,28.3,11.54,3.28,23.29,5.46,34.65,7.58,7.25,1.35,14.73,2.74,22,4.39a244.08,244.08,0,0,1,47.65,16C21.27,461.46,62,504.12,83,557.28a216.38,216.38,0,0,1,7.21,21.33C106.51,637,99.51,703.35,70.46,765.55Z" transform="translate(225.72 225.45)"/></g><g class="cls-16"><path class="cls-6" d="M53.37,765.29l-1.76-.74c29.8-60.22,39.08-124.45,26.11-180.86a209.56,209.56,0,0,0-6-20.87A209.41,209.41,0,0,0-33.58,442.65a232.41,232.41,0,0,0-45.57-16.92c-7.32-1.89-14.92-3.52-22.26-5.11-10.76-2.31-21.87-4.7-32.85-8-14.89-4.51-35.68-13.1-50.18-28.45-24.84-26.3-22.06-58.18-11.18-79.23s29.46-37.73,60.14-53.81c5.75-3,11.71-6,18-9.14,22.06-11,47.07-23.5,68.35-40.79,18-14.62,31.47-32.26,44.49-49.32C15.89,125,35.26,99.62,70.05,87.43c21.65-7.59,46.35-8.6,70.23-9.57,8.16-.33,16.59-.68,24.84-1.27,17.2-1.27,33.32-4,46.61-7.83s23.88-9,31-15c9.24-7.78,12.55-14.46,16.73-22.93a140.79,140.79,0,0,1,11.64-20.16c.89-1.27,1.83-2.59,2.84-3.93,13.74-18.34,38.93-37.28,61.15-54l3.07-2.31c16-12.06,32.66-25.18,44.31-41.29a101.61,101.61,0,0,0,9.74-16.47c18.33-39,3.21-89.13-35.19-116.59l1.19-1.42c39.07,27.95,54.45,79,35.77,118.73A102.35,102.35,0,0,1,384-89.82c-11.8,16.32-28.55,29.54-44.7,41.69l-3.06,2.3c-22.12,16.64-47.2,35.5-60.79,53.63-1,1.33-1.92,2.63-2.8,3.88a138.56,138.56,0,0,0-11.5,19.94c-4.28,8.65-7.66,15.48-17.19,23.51-7.29,6.13-18.24,11.44-31.69,15.34s-29.7,6.63-47,7.9c-8.28.6-16.73.95-24.9,1.28-24.83,1-48.27,2-69.63,9.45C36.5,101.1,17.29,126.26-3,152.89-16.13,170-29.67,187.76-47.83,202.51c-21.45,17.43-46.56,30-68.71,41-6.3,3.15-12.25,6.12-18,9.12-30.31,15.89-48.61,32.24-59.35,53C-204.48,326.22-207.2,357.31-183,383c14.2,15,34.66,23.49,49.31,27.93,10.9,3.3,22,5.69,32.69,8,7.36,1.58,15,3.22,22.34,5.13a234.1,234.1,0,0,1,46,17.07C17.79,466.3,55.53,509.34,73.6,562.28a212.21,212.21,0,0,1,6,21C92.67,640.1,83.35,704.73,53.37,765.29Z" transform="translate(225.72 225.45)"/></g><g class="cls-17"><path class="cls-6" d="M36.28,765l-1.74-.78C65.77,704.73,77.05,643.9,67.15,588.33a204.4,204.4,0,0,0-4.8-20.58,199.47,199.47,0,0,0-97-121.21A222.34,222.34,0,0,0-78.55,428.6c-7.46-2.18-15.23-4.09-22.74-5.94-10.06-2.47-20.45-5-30.74-8.36-20.71-6.69-37.71-16.39-49.14-28-31.14-31.72-19.91-67.24-15.72-77.37,9.15-22.16,26-39.47,54.52-56.15,7.13-4.16,14.71-8.26,22.74-12.6,19.63-10.62,41.87-22.66,61.37-38.09,17.09-13.54,30.6-29.51,43.67-45C7.48,131,28.33,106.34,64,95.08c20.72-6.55,43-7.42,66.49-8.34,9.69-.38,19.72-.77,29.52-1.6,17-1.45,33.57-4.73,46.68-9.23s23.54-10.5,29.9-17.28c7.73-8.25,9.86-15.51,12.32-23.92,2-6.72,4.2-14.34,9.7-23.75.79-1.35,1.63-2.74,2.55-4.17,12.92-19.95,39.92-40,64.21-57.18,18.49-13.09,34.76-25.14,46.61-40a100.25,100.25,0,0,0,10.63-16.2c20.55-39.22,6.22-89.66-33.35-117.33l1.17-1.43c40.29,28.18,54.88,79.57,33.92,119.54a102,102,0,0,1-10.81,16.49c-12,15-28.38,27.13-47,40.31-24.15,17.11-51,37-63.72,56.68-.91,1.4-1.74,2.78-2.52,4.1-5.39,9.22-7.59,16.74-9.53,23.37-2.52,8.62-4.7,16.06-12.72,24.62-6.57,7-17.18,13.16-30.69,17.79s-29.78,7.85-47.18,9.34c-9.85.83-19.9,1.22-29.62,1.6-23.4.91-45.49,1.77-65.94,8.24C29.51,107.86,8.83,132.31-13.06,158.2c-13.12,15.52-26.7,31.57-43.94,45.22C-76.63,219-98.95,231-118.65,241.69c-8,4.34-15.58,8.43-22.68,12.57-28.18,16.46-44.76,33.51-53.75,55.28-4.08,9.89-15,44.56,15.35,75.53,11.21,11.42,27.93,20.94,48.34,27.54,10.22,3.31,20.58,5.86,30.6,8.32,7.53,1.85,15.32,3.77,22.82,6A224.76,224.76,0,0,1-33.67,445a201.27,201.27,0,0,1,97.89,122.3A204.86,204.86,0,0,1,69.06,588C79,644,67.69,705.18,36.28,765Z" transform="translate(225.72 225.45)"/></g><g class="cls-18"><path class="cls-6" d="M19.19,764.77,17.47,764c32.3-58,45.82-117.15,39.11-171A204,204,0,0,0,53,572.67c-12-52-43.5-95.46-88.69-122.25a213.72,213.72,0,0,0-42.21-19c-7.65-2.51-15.65-4.73-23.38-6.88-9.31-2.59-18.93-5.26-28.46-8.56-20.39-7-36.57-16.33-48.11-27.62-30.25-29.61-24.25-62.67-20.26-75.5,7.09-22.83,22.63-41.42,48.91-58.5,8.54-5.55,17.94-11,27.89-16.79,17.94-10.43,36.5-21.21,54-34.66,16-12.36,29.37-26.6,42.26-40.37,23.84-25.45,46.35-49.49,83-59.86,19.83-5.6,40.79-6.34,63-7.12,11.16-.4,22.7-.81,34-1.9,17-1.66,33.64-5.44,46.75-10.63s23.19-12,28.84-19.61c6.61-8.9,7.56-16.61,8.65-25.55.93-7.61,2-16.23,7-26.69.78-1.62,1.52-3.07,2.27-4.42,12-21.51,40.59-42.33,64.18-58.06l1.24-.83C331.72-64,348.66-75.32,361.47-89.88A99.06,99.06,0,0,0,373-105.82c22.45-38.76,8.61-90.62-31.51-118.06l1.16-1.44c40.87,28,54.95,80.82,32.06,120.34A101.1,101.1,0,0,1,363-88.75C350-74,333-62.65,314.92-50.63l-1.23.82C290.27-34.19,261.88-13.55,250.1,7.62c-.74,1.32-1.46,2.74-2.23,4.33C243,22.15,242,30.27,241,38.11c-1.08,8.8-2.09,17.1-9,26.36-5.86,7.88-16.12,14.87-29.68,20.25C189.08,90,172.28,93.8,155.05,95.48c-11.33,1.1-22.9,1.51-34.09,1.91-22.07.78-42.92,1.51-62.5,7C22.3,114.65,0,138.5-23.68,163.75c-13,13.83-26.34,28.12-42.49,40.58-17.55,13.53-36.16,24.34-54.16,34.79-9.93,5.77-19.3,11.22-27.81,16.75-26.25,17.06-41.1,34.8-48.16,57.52-3.89,12.54-9.76,44.84,19.81,73.78,11.33,11.09,27.27,20.23,47.38,27.17,9.47,3.28,19.06,5.94,28.33,8.52C-93,425-85,427.25-77.3,429.77a216.08,216.08,0,0,1,42.61,19.14c45.63,27,77.43,70.87,89.54,123.38a204.48,204.48,0,0,1,3.65,20.46C65.26,647,51.67,706.43,19.19,764.77Z" transform="translate(225.72 225.45)"/></g><g class="cls-19"><path class="cls-6" d="M2.1,764.51l-1.7-.86C33.85,707,49.62,649.6,46,597.59a195.36,195.36,0,0,0-2.45-20C34.57,525.77,6,482-36.81,454.3a205.53,205.53,0,0,0-40.55-20c-7.88-2.89-15.8-5.36-24.18-8s-17.3-5.4-26-8.62c-19.77-7.28-35.61-16.43-47.07-27.2-29.23-27.47-28.08-57.92-24.79-73.63,5-23.73,18.72-43.07,43.28-60.85,10-7.25,21.52-14.35,33.68-21.86,15.15-9.36,30.83-19,45.9-30.35,14.73-11.05,27.6-23.46,40-35.47,25.87-25,50.29-48.51,88.33-58,19-4.73,38.76-5.33,59.7-6,12.56-.38,25.55-.77,38.21-2.15,17.11-1.88,33.74-6.15,46.81-12,13.24-6,22.86-13.55,27.8-21.94,5.69-9.65,5.5-18.35,5.3-27.55-.19-8.82-.39-17.94,4-29.27.65-1.67,1.3-3.19,2-4.65,11.31-23.84,42-45.06,64.16-58.95l4.84-3c17.27-10.78,33.59-21,46.39-34.25a97.3,97.3,0,0,0,12.4-15.68c24.3-38.29,11-91.58-29.66-118.8l1.14-1.45c41.44,27.75,55,82.1,30.2,121.15a98.43,98.43,0,0,1-12.64,16c-12.95,13.44-29.37,23.69-46.75,34.55l-4.83,3c-21.93,13.77-52.37,34.77-63.47,58.18-.67,1.43-1.31,2.91-1.94,4.55-4.26,11-4.07,20-3.88,28.62.21,9.45.4,18.38-5.53,28.44-5.14,8.73-15,16.57-28.66,22.7-13.26,6-30.11,10.3-47.43,12.2-12.75,1.39-25.77,1.78-38.37,2.16-20.84.63-40.52,1.23-59.26,5.9-37.52,9.35-61.76,32.75-87.44,57.51-12.48,12-25.39,24.5-40.21,35.62-15.15,11.36-30.86,21.07-46,30.45-12.13,7.49-23.59,14.57-33.56,21.79C-179.12,275-192.65,294-197.52,317.24c-3.21,15.36-4.33,45.15,24.27,72,11.28,10.59,26.89,19.61,46.41,26.8,8.67,3.2,17.44,5.94,25.92,8.58,8,2.5,16.34,5.1,24.28,8A207.27,207.27,0,0,1-35.7,452.83C7.58,480.8,36.41,525,45.47,577.3a198.69,198.69,0,0,1,2.47,20.17C51.58,649.83,35.73,707.58,2.1,764.51Z" transform="translate(225.72 225.45)"/></g><g class="cls-20"><path class="cls-6" d="M-15,764.25l-1.68-.9C18.54,707.23,36.07,653,35.44,602.22c-.1-6.61-.53-13.24-1.28-19.71-5.92-51.6-31.51-95.75-72-124.33a196.79,196.79,0,0,0-38.87-21C-85,433.83-93.23,431-102,427.92c-7.62-2.65-15.51-5.39-23.34-8.47-19.18-7.54-34.67-16.55-46-26.79-29.42-26.51-31-56.34-29.32-71.75C-198,296.36-186,276.27-163,257.71c11.62-9.37,25.62-18.45,40.44-28.06,12.1-7.86,24.62-16,36.88-24.92,13.1-9.55,25.08-20,36.66-30.11,28.27-24.67,55-48,94.78-56.6,18.12-3.93,37.65-4.39,56.54-4.84,13.91-.33,28.3-.67,42.32-2.36,17.2-2.09,33.85-6.86,46.88-13.43C204.73,90.7,214,82.3,218.24,73.11c4.86-10.49,3.51-19.86,2.08-29.79-1.39-9.59-2.81-19.51.84-31.59.5-1.68,1.08-3.33,1.7-4.9C230.53-12.26,252.1-32.39,287-53c2.68-1.59,5.36-3.15,8-4.71,16.79-9.79,32.66-19,45.49-31.24a96.51,96.51,0,0,0,13.3-15.41c26.57-38.44,14.09-92.07-27.83-119.53l1.12-1.46c42.75,28,55.46,82.72,28.34,122a98.17,98.17,0,0,1-13.54,15.71c-13,12.34-29,21.65-45.85,31.5q-4,2.32-8,4.7C253.51-31.1,232.2-11.27,224.68,7.45c-.61,1.55-1.15,3.1-1.65,4.76-3.55,11.73-2.15,21.46-.79,30.87,1.47,10.18,2.85,19.8-2.22,30.74C215.59,83.38,206,92.07,192.4,99c-13.23,6.68-30.12,11.52-47.56,13.64-14.12,1.7-28.56,2-42.52,2.38-19.66.46-38.23.9-56.15,4.78-39.29,8.52-65.81,31.66-93.89,56.16-11.61,10.14-23.62,20.62-36.78,30.22-12.31,9-24.85,17.1-37,25-14.77,9.59-28.73,18.64-40.27,27.95-22.62,18.24-34.38,37.95-37,62-1.64,15.1-.09,44.31,28.74,70.3,11.19,10.08,26.48,19,45.44,26.42,7.79,3.07,15.66,5.8,23.27,8.44,8.78,3.05,17.08,5.93,25.33,9.31a198.5,198.5,0,0,1,39.25,21.2c41,28.88,66.83,73.48,72.81,125.57a198.06,198.06,0,0,1,1.29,19.87C38,653.32,20.39,707.85-15,764.25Z" transform="translate(225.72 225.45)"/></g><g class="cls-21"><path class="cls-6" d="M-32.08,764l-1.66-.94C2.88,708.12,22.59,655.56,24.87,606.84a190.48,190.48,0,0,0-.1-19.42C22,536.06-.68,491.54-39,462.05a189.64,189.64,0,0,0-37.19-22c-8.59-3.89-17.32-7.25-26.55-10.8-6.66-2.56-13.55-5.21-20.38-8.08-18.63-7.8-33.77-16.68-45-26.37-28.27-24.41-34-51.47-33.84-69.87.23-25.27,10.41-46.1,32-65.55,13.39-12.05,30.56-23.57,48.75-35.77,8.6-5.77,17.5-11.74,26.31-18,11-7.77,21.43-16.05,31.55-24.06,31.24-24.74,60.75-48.1,103-55.89,17.26-3.18,35.66-3.48,53.45-3.76,15.25-.25,31-.5,46.36-2.53,17.31-2.3,34-7.57,46.95-14.84,13.27-7.42,22.17-16.62,25.75-26.61,4.08-11.38,1.56-21.5-1.11-32.22-2.57-10.31-5.23-21-2.35-33.73a53.23,53.23,0,0,1,1.42-5.14c8.47-25.44,39.52-47.06,64.09-60.71,3.62-2,7.26-4,10.88-6,16.48-8.94,32-17.38,45-28.65a96.41,96.41,0,0,0,14.18-15.16c28.39-37.93,16.49-93-26-120.27l1.11-1.47c43.34,27.81,55.47,84,26.48,122.76a98.68,98.68,0,0,1-14.45,15.44c-13.08,11.41-28.73,19.9-45.3,28.89-3.62,2-7.25,3.93-10.87,6C250.93-38.84,220.26-17.53,212,7.36c-.53,1.61-1,3.29-1.37,5-2.8,12.36-.18,22.83,2.34,33,2.73,11,5.31,21.32,1.06,33.19-3.73,10.39-12.92,19.93-26.58,27.58-13.19,7.38-30.12,12.74-47.69,15.07-15.46,2-31.29,2.3-46.6,2.55-18.52.3-36,.58-53.1,3.73C-1.67,135.12-31,158.34-62,182.92c-10.13,8-20.61,16.32-31.63,24.12-8.83,6.25-17.74,12.23-26.35,18-18.13,12.16-35.25,23.65-48.54,35.6-21.21,19.1-31.2,39.52-31.43,64.28-.16,18.05,5.47,44.59,33.23,68.55,11.07,9.56,26,18.32,44.47,26,6.81,2.86,13.68,5.5,20.32,8.06,9.27,3.56,18,6.92,26.67,10.84a191.19,191.19,0,0,1,37.57,22.25C1,490.48,23.87,535.47,26.7,587.33a190.92,190.92,0,0,1,.11,19.59C24.52,656,4.7,708.8-32.08,764Z" transform="translate(225.72 225.45)"/></g><g class="cls-22"><path class="cls-6" d="M-49.18,763.73l-1.62-1c38.72-54.63,60-104.11,65.11-151.28a189.32,189.32,0,0,0,1.07-19.13C15.72,541.22-4,496.33-40,465.93a178.83,178.83,0,0,0-35.51-23c-9.11-4.57-18.43-8.51-28.3-12.69-5.56-2.35-11.3-4.78-17-7.34-18.38-8.21-32.75-16.7-44-25.95-28.78-23.78-36.74-50.1-38.35-68-2.32-25.87,6.06-47.44,26.37-67.89,15.49-15.58,37-30.18,59.78-45.64q6.47-4.39,13-8.88c8.07-5.54,16-11.3,23.73-16.87C-45.19,164.26-12,140.29,33.57,133.32c16.38-2.5,33.66-2.62,50.37-2.74s33.74-.24,50.38-2.64c17.43-2.52,34.13-8.29,47-16.24,13.26-8.17,21.81-18.18,24.72-28.95,3.33-12.33-.38-23.22-4.31-34.74-3.76-11-7.64-22.41-5.53-35.78a53.62,53.62,0,0,1,1.13-5.38c7.31-27,38.86-48.41,64.05-61.59,4.49-2.34,9-4.61,13.5-6.87C291.18-69.8,306.54-77.53,319.57-88a96.27,96.27,0,0,0,15.08-14.89A78.17,78.17,0,0,0,350.42-166c-4.28-23.52-18.84-44.6-39.93-57.86l1.1-1.48c21.52,13.53,36.37,35,40.74,59a79.84,79.84,0,0,1-16.13,64.52,98.48,98.48,0,0,1-15.35,15.17C307.65-76,292.2-68.27,275.85-60c-4.49,2.26-9,4.52-13.47,6.86-24.86,13-56,34-63.12,60.46a50.13,50.13,0,0,0-1.1,5.2c-2,13,1.77,24.16,5.46,35,4,11.77,7.81,22.9,4.35,35.71-3,11.21-11.86,21.59-25.54,30-13.13,8.08-30.11,14-47.81,16.51-16.79,2.42-34,2.54-50.66,2.66s-33.84.24-50.07,2.72c-45.14,6.89-78.08,30.73-113,56-7.71,5.58-15.68,11.35-23.77,16.9q-6.55,4.5-13,8.88c-22.7,15.41-44.14,30-59.49,45.41-19.93,20.06-28.15,41.2-25.87,66.53,1.58,17.58,9.4,43.43,37.71,66.81,11.06,9.14,25.29,17.54,43.5,25.68,5.69,2.55,11.42,5,17,7.32,9.9,4.19,19.25,8.15,28.41,12.74a183.38,183.38,0,0,1,35.9,23.29c36.49,30.74,56.4,76.11,56.06,127.73a192.54,192.54,0,0,1-1.08,19.3C11.11,659.11-10.28,708.85-49.18,763.73Z" transform="translate(225.72 225.45)"/></g><g class="cls-23"><path class="cls-6" d="M-66.27,763.47l-1.59-1C-26.79,708-4,661.5,3.75,616.09A188.22,188.22,0,0,0,6,597.25c3.48-50.12-13.7-96.57-47.12-127.45A172.65,172.65,0,0,0-75,445.75c-9.75-5.4-19.83-10.07-30.51-15-4.35-2-8.75-4.05-13.15-6.15-18.19-8.68-31.83-16.79-42.92-25.54-29.51-23.29-39.59-48.82-42.85-66.12-4.89-26,1.88-49,20.72-70.24,16.71-18.85,41.83-36.19,70.54-55.29q5.65-3.77,11.26-7.54C-61.5,172.75-23.37,147.14,27.49,141c15.47-1.88,31.63-1.84,47.27-1.79,17.93.05,36.47.1,54.43-2.69,17.55-2.74,34.28-9,47.11-17.64,13.27-8.92,21.47-19.75,23.72-31.3,2.58-13.32-2.34-25-7.55-37.4-4.91-11.67-10-23.74-8.68-37.69a49.17,49.17,0,0,1,.84-5.62c6.4-30.1,42.85-52,64-62.45,5.26-2.59,10.65-5.1,15.86-7.53,16.15-7.51,31.41-14.61,44.6-24.39a97.53,97.53,0,0,0,16-14.64,77.23,77.23,0,0,0,17.68-63.62c-4-23.75-18.57-44.93-40-58.13l1.08-1.49c21.87,13.47,36.76,35.1,40.84,59.34a79,79,0,0,1-18.08,65,98.69,98.69,0,0,1-16.27,14.91c-13.35,9.9-29.4,17.38-44.93,24.6-5.21,2.43-10.59,4.93-15.83,7.51-20.85,10.25-56.77,31.84-63,61.22a47.43,47.43,0,0,0-.82,5.43c-1.27,13.52,3.73,25.4,8.56,36.88,5.31,12.63,10.33,24.55,7.65,38.36-2.34,12-10.81,23.24-24.48,32.44-13.08,8.8-30.1,15.17-47.93,18C111.39,141.08,92.77,141,74.76,141c-15.57,0-31.67-.09-47,1.77-50.37,6.11-88.32,31.59-128.49,58.56q-5.61,3.78-11.27,7.54c-28.59,19-53.61,36.29-70.17,55-18.45,20.84-25.1,43.34-20.31,68.79,3.21,17,13.13,42.12,42.2,65.07,11,8.65,24.5,16.7,42.55,25.3,4.4,2.1,8.78,4.13,13.13,6.15,10.71,4.95,20.82,9.64,30.64,15.08a174.25,174.25,0,0,1,34.21,24.31c33.82,31.25,51.2,78.21,47.69,128.83-.43,6.31-1.19,12.71-2.26,19C-2.17,662.06-25,708.8-66.27,763.47Z" transform="translate(225.72 225.45)"/></g><g class="cls-24"><path class="cls-6" d="M-83.37,763.21l-1.56-1.06C-55.49,725.53-20,676.37-6.81,620.71c1.45-6.13,2.6-12.37,3.42-18.55,6.66-49.83-7.49-96.66-38.82-128.49A166,166,0,0,0-74.37,448.6c-10.61-6.48-21.71-12.06-33.46-18l-8.57-4.33c-12.21-6.21-28-14.68-41.87-25.11-24.5-18.45-40.43-40.06-47.35-64.25-7.54-26.36-2.62-50.09,15.06-72.57,17.14-21.78,45.49-41.41,68.27-56.07,44.48-28.62,88.94-54.72,143.7-59.66,14.51-1.31,29.55-1.1,44.1-.9,19.31.27,39.27.54,58.55-2.67,17.61-2.95,34.37-9.71,47.19-19,13.27-9.73,21.12-21.37,22.7-33.67,1.85-14.34-4.3-26.87-10.82-40.13-6-12.31-12.3-25-11.79-39.51a48,48,0,0,1,.55-5.86c5.05-31.72,42.25-53.29,64-63.33,6-2.76,12.11-5.4,18-8C269.32-71,285.24-77.88,298.62-87a97.36,97.36,0,0,0,16.86-14.37,76.6,76.6,0,0,0,19.59-64.12c-3.72-24-18.33-45.24-40.07-58.37l1.06-1.5C318.27-212,333.19-190.27,337-165.8a78.31,78.31,0,0,1-20,65.55,99.84,99.84,0,0,1-17.17,14.64c-13.54,9.28-29.56,16.16-45,22.82-5.93,2.54-12.06,5.18-18,7.92-17.22,8-57.81,29.92-62.92,62a46.73,46.73,0,0,0-.53,5.65c-.5,14.07,5.66,26.6,11.62,38.72,6.34,12.91,12.89,26.25,11,41.08-1.65,12.78-9.75,24.84-23.42,34.86-13.08,9.51-30.14,16.4-48.05,19.39-19.47,3.25-39.53,3-58.93,2.7-14.49-.2-29.48-.41-43.88.89-54.29,4.9-98.52,30.87-142.78,59.35C-143.84,224.34-172,243.85-189,265.41c-17.31,22-22.14,45.26-14.76,71.06,6.82,23.81,22.53,45.12,46.7,63.32,13.75,10.35,29.44,18.76,41.59,24.94l8.56,4.32C-95.11,435-84,440.58-73.3,447.11a168.08,168.08,0,0,1,32.53,25.36C-9.06,504.68,5.27,552-1.46,602.38c-.83,6.23-2,12.53-3.45,18.71C-18.2,677.09-53.82,726.46-83.37,763.21Z" transform="translate(225.72 225.45)"/></g><g class="cls-25"><path class="cls-6" d="M-100.47,763l-1.52-1.12c33-38.43,68.8-84.7,84.63-136.5,1.83-6,3.38-12.16,4.59-18.27,9.88-49.52-1.24-96.73-30.52-129.53a160.09,160.09,0,0,0-30.49-26.08c-11.73-7.91-24.2-14.67-37.4-21.84l-3-1.62c-13.65-7.4-28-15.52-40.83-24.69C-180.56,385-198,364-206.84,340.92c-10.06-26.24-6.9-51.44,9.4-74.89,13-18.74,34.62-37.33,66-56.85,33.72-21,85.63-49.26,146.77-52.89,13.48-.81,27.37-.45,40.79-.1,20.73.54,42.16,1.1,62.8-2.57,17.5-3.12,34.73-10.57,47.27-20.43,13.28-10.5,20.79-23,21.7-36,1.13-15.4-6.29-28.78-14.15-42.95C166.58,41.29,159.18,27.94,158.89,13a47.73,47.73,0,0,1,.27-6.1c3.8-34.56,46-56.41,63.91-64.19,6.62-2.88,13.48-5.59,20.11-8.21,15.42-6.1,31.38-12.4,45-21a97.51,97.51,0,0,0,17.74-14.11,76,76,0,0,0,21.55-64.54c-3.44-24.22-18.09-45.62-40.19-58.7l1.05-1.5c22.58,13.36,37.55,35.22,41.06,60a77.68,77.68,0,0,1-22,66,100.13,100.13,0,0,1-18.08,14.38c-13.75,8.72-29.8,15.07-45.31,21.2-6.61,2.62-13.45,5.32-20,8.18C206.25-48,164.79-26.61,161.09,7a46.12,46.12,0,0,0-.26,5.88c.28,14.58,7.58,27.74,14.64,40.47,7.64,13.76,15.53,28,14.36,43.89-.94,13.56-8.68,26.45-22.37,37.27-12.79,10.06-30.34,17.65-48.16,20.83-20.85,3.71-42.39,3.15-63.22,2.61-13.39-.35-27.23-.71-40.62.08-60.66,3.61-112.27,31.75-145.81,52.6C-161.52,230-182.93,248.47-195.8,267c-16,23-19.06,47.63-9.21,73.33,8.71,22.74,25.94,43.45,51.2,61.56,12.71,9.11,27,17.19,40.62,24.57l3,1.62c13.24,7.18,25.75,14,37.57,21.93A161.79,161.79,0,0,1-41.79,476.4c29.64,33.21,40.91,81,30.93,131-1.23,6.17-2.78,12.37-4.63,18.43C-31.42,677.93-67.38,724.39-100.47,763Z" transform="translate(225.72 225.45)"/></g><g class="cls-26"><path class="cls-6" d="M-117.57,762.7l-1.48-1.16C-84.89,724.27-46.86,680.29-27.91,630c2.22-5.88,4.15-11.93,5.77-18,13.12-49.18,5-96.77-22.22-130.58a155.63,155.63,0,0,0-28.82-27.1c-12.08-9-25.23-16.74-38.76-24.59l-1.85-1.07c-12.71-7.36-25.85-15-37.94-23.2-26.91-18.35-45.86-38.71-56.33-60.53-12.67-26.4-11.41-52.37,3.75-77.21,12.44-20.4,33.89-39.79,63.74-57.63,33.29-20,86.32-44.29,149.83-46.13,12.38-.36,25.06.14,37.32.62,22.22.88,45.18,1.79,67.22-2.38,17.65-3.35,34.91-11.3,47.35-21.83,13.26-11.24,20.41-24.52,20.69-38.4.36-16.47-8.74-31.37-17.54-45.78-8.25-13.51-16.78-27.49-17.85-43a46.12,46.12,0,0,1,0-6.33c2.32-36.2,45.43-57.56,63.86-65.06,7.22-2.94,14.74-5.67,22-8.3,15.51-5.63,31.54-11.45,45.37-19.59a99,99,0,0,0,18.64-13.85c18.06-17.22,26.61-40.95,23.45-65.13-3.19-24.41-17.87-45.86-40.26-58.85l1-1.52c22.89,13.28,37.89,35.21,41.15,60.16,3.23,24.71-5.51,49-24,66.59a101.48,101.48,0,0,1-19,14.12c-14,8.22-30.11,14.07-45.7,19.73-7.25,2.63-14.75,5.36-21.94,8.28C193-49.19,150.63-28.25,148.36,7a46,46,0,0,0,0,6.1C149.43,28.16,157.85,42,166,55.29,174.92,69.91,184.15,85,183.78,102c-.29,14.38-7.66,28.11-21.31,39.69-12.7,10.74-30.3,18.86-48.28,22.26-22.27,4.22-45.36,3.31-67.69,2.42-12.23-.48-24.87-1-37.18-.62-63.06,1.83-115.75,25.94-148.84,45.84-29.58,17.69-50.81,36.87-63.1,57-14.84,24.32-16.07,49.75-3.66,75.61,10.33,21.53,29.07,41.65,55.71,59.81,12,8.19,25.14,15.78,37.82,23.12l1.84,1.07c13.58,7.88,26.78,15.69,38.94,24.72a156.72,156.72,0,0,1,29.16,27.42C-15.21,514.57-7,562.71-20.26,612.41c-1.63,6.1-3.58,12.2-5.82,18.14C-45.14,681.17-83.3,725.31-117.57,762.7Z" transform="translate(225.72 225.45)"/></g><g class="cls-27"><path class="cls-6" d="M-134.67,762.44l-1.44-1.2C-95,719.35-59.31,680.9-38.45,634.58c23.92-53.13,21.25-110.35-7-149.31-19.35-26.71-49.41-44.91-78.48-62.52-8.12-4.92-16.51-10-24.53-15.19-75.29-48.68-78.77-94.91-68.43-125.12C-195.95,221.28-97.42,171.6,2.86,171.6h.32c11.19,0,22.6.63,33.64,1.22,23.77,1.29,48.36,2.62,71.85-2.08,33.11-6.63,67.89-31.32,67.12-64-.42-17.54-10.87-33.36-21-48.65-10.58-16-21.52-32.55-21.12-51.22.85-38.9,49.06-60.29,63.82-65.92,7.78-3,15.92-5.68,23.79-8.29,23.42-7.78,47.64-15.82,65.42-31.85,19.07-17.18,28.31-41.14,25.36-65.73s-17.65-46.09-40.33-59l1-1.52C296-212.25,311-190.27,314-165.13s-6.44,49.65-25.93,67.22C270-81.62,245.57-73.51,222-65.66c-7.85,2.6-16,5.3-23.71,8.25-14.48,5.53-61.79,26.49-62.62,64.3C135.24,25,146,41.37,156.46,57.15c10.25,15.5,20.84,31.52,21.27,49.55.8,33.64-34.78,59-68.65,65.79-23.75,4.75-48.47,3.41-72.38,2.12-11-.59-22.39-1.21-33.52-1.22H2.86c-99.5,0-197.2,49.12-217.89,109.59-10.15,29.63-6.63,75,67.69,123.12,8,5.17,16.38,10.24,24.48,15.15,29.24,17.71,59.47,36,79,63,28.6,39.46,31.34,97.32,7.17,151C-57.64,681.86-93.46,720.43-134.67,762.44Z" transform="translate(225.72 225.45)"/></g></g><g class="cls-4"><g class="cls-5"><path class="cls-6" d="M59.66,571c-13.32-49.22-3.18-100.33,27.11-136.69,33-39.61,89.87-58.46,138.32-45.85,37.94,9.88,67.2,36.23,95.5,61.72,4.49,4,9,8.07,13.46,12,43.67,38.4,82.47,55,118.62,50.7,38-4.5,65.07-29.85,93.71-56.68,24.69-23.13,50.22-47.05,83.34-56.06,39.3-10.69,81.91,2,118.41,15.83,3.81,1.44,7.63,2.91,11.45,4.38,33.5,12.89,68.13,26.24,104.26,24.87,39.83-1.49,82.34-28.1,82.12-65.33-.11-19.09-12.05-39.28-32.78-55.37C900.6,314.74,886.05,307,872,299.44c-6.2-3.31-12.62-6.74-18.79-10.3A314.25,314.25,0,0,1,751,194.37c-26.29-38.61-43-82.22-48.22-126.11S703.5-21.55,720-64.53a298.61,298.61,0,0,1,77.33-113.08l1.36,1.27c-68.55,62.41-104.57,156.05-94,244.4s67.86,172.48,149.51,219.56c6.14,3.55,12.54,7,18.73,10.27,14.14,7.56,28.76,15.37,41.47,25.25,21.16,16.44,33.36,37.12,33.47,56.74.23,38.27-43.24,65.6-84,67.13-36.54,1.38-71.39-12-105.08-25-3.83-1.47-7.64-2.94-11.44-4.38-36.19-13.71-78.41-26.3-117.14-15.77-32.63,8.88-58,32.63-82.49,55.6-27.61,25.87-56.17,52.62-94.86,57.2-36.77,4.36-76.08-12.39-120.2-51.18-4.5-4-9-8-13.48-12-28.12-25.33-57.2-51.52-94.67-61.28-47.69-12.42-103.73,6.18-136.25,45.22-29.93,35.94-39.94,86.47-26.77,135.17Z" transform="translate(225.72 225.45)"/></g><g class="cls-7"><path class="cls-6" d="M66.3,574.71C54.41,533.2,61,488.2,83.88,454.35a134.27,134.27,0,0,1,12.19-15.5c13.24-14.5,30.81-26.53,50.79-34.8,26.94-11.14,56.51-15,83.26-10.86,1.89.29,3.79.64,5.67,1,30.58,6.27,54,22.89,75.32,39.37,6.75,5.19,13.63,10.74,20.3,16.11q5.41,4.38,10.9,8.75a377.83,377.83,0,0,0,36.47,26.08c30.59,19,57.86,27.07,83.43,24.73,37.71-3.45,64.91-27.51,93.72-53,24.47-21.64,49.77-44,82.13-52.53,38.54-10.09,78.92.81,116.82,14.09l9.25,3.24c33.32,11.72,67.76,23.85,102.94,21.37,38-2.66,78.09-29.78,77.29-65.91C943.8,350.93,924,331.35,912.21,322c-12.12-9.68-26.06-17.48-39.54-25-6.08-3.4-12.37-6.92-18.41-10.57a301.79,301.79,0,0,1-47.9-35.83c-52.84-48.42-86.65-114.78-92.76-182.07a259,259,0,0,1-1-28.19c1.5-78.74,37.66-155.1,99.23-209.5l1.34,1.29C752-113.85,716-37.95,714.54,40.31a255.73,255.73,0,0,0,1,28c6.07,66.87,39.67,132.82,92.18,181a300.72,300.72,0,0,0,47.6,35.6c6,3.63,12.29,7.14,18.35,10.54,13.55,7.58,27.57,15.42,39.81,25.19,12,9.59,32.25,29.6,32.82,55.9.85,38.36-40.39,65-79.08,67.74-35.62,2.48-70.27-9.69-103.78-21.48l-9.25-3.24c-37.59-13.17-77.6-24-115.6-14-31.89,8.4-57,30.61-81.32,52.1-27.77,24.56-56.49,49.95-94.86,53.46-26,2.38-53.74-5.8-84.71-25A380.41,380.41,0,0,1,341,459.8q-5.48-4.37-10.91-8.76c-6.65-5.36-13.53-10.91-20.26-16.08-21.16-16.34-44.34-32.82-74.5-39-1.84-.38-3.72-.71-5.57-1-26.38-4.08-55.55-.27-82.14,10.73-19.73,8.15-37,20-50.11,34.32a130.62,130.62,0,0,0-12,15.29c-22.62,33.44-29.11,77.91-17.36,119Z" transform="translate(225.72 225.45)"/></g><g class="cls-8"><path class="cls-6" d="M72.93,578.43C60.52,537.29,68,491.24,92.55,458.26a132.1,132.1,0,0,1,12.82-14.85c13.75-13.72,31.24-24.66,52-32.52,26.51-10,57-14.26,83.57-11.59,1.86.19,3.73.41,5.55.68,28.72,4.23,48.95,16.63,72.41,32.39,8.88,6,17.86,12.42,27.37,19.25l4.3,3.08c13.81,10,26,18.13,37.38,24.94,20.23,12.16,50.91,28.09,83.81,26,37.4-2.4,64.78-25.16,93.77-49.26,24.24-20.14,49.3-41,80.88-49,37.54-9.43,77.56.37,115.21,12.36l5.63,1.8c33.6,10.75,68.35,21.86,103,18.18,35.93-3.81,73.86-30.32,72.47-66.5-1-25.07-20.17-44.46-31.53-53.79-11.64-9.56-25-17.38-37.87-24.94-6-3.5-12.14-7.12-18.06-10.86a290.73,290.73,0,0,1-45.89-35.92c-50.06-48.06-81-113.3-85-179a252.25,252.25,0,0,1-.16-27.37c3.72-76.1,40.91-149.77,102-202.14l1.32,1.31C766.86-107.47,729.9-34.24,726.2,41.39a248.94,248.94,0,0,0,.16,27.19c3.93,65.28,34.72,130.11,84.46,177.86a288.9,288.9,0,0,0,45.58,35.68c5.9,3.73,12.06,7.34,18,10.83,13,7.6,26.36,15.45,38.12,25.11,11.59,9.52,31.19,29.33,32.18,55.06,1.43,37.21-37.4,64.45-74.19,68.35-35.14,3.72-70.1-7.45-103.91-18.27L761,421.41c-37.36-11.9-77-21.63-114.07-12.33-31.13,7.91-56,28.6-80.09,48.61C538.87,480.93,510,505,471.9,507.4c-33.46,2.16-64.54-14-85-26.26-11.39-6.84-23.66-15-37.51-25l-4.3-3.08c-9.5-6.82-18.47-13.25-27.32-19.21-23.25-15.62-43.29-27.91-71.57-32.07-1.79-.26-3.63-.48-5.46-.67-26.29-2.64-56.4,1.54-82.62,11.47-20.5,7.76-37.76,18.55-51.32,32.08a130.29,130.29,0,0,0-12.64,14.64C70,491.83,62.54,537.31,74.8,578Z" transform="translate(225.72 225.45)"/></g><g class="cls-9"><path class="cls-6" d="M79.56,582.16c-13.16-41.54-4.86-87.52,21.66-120A131.46,131.46,0,0,1,114.67,448c14-12.73,31.92-22.91,53.2-30.24,26.21-9,56.79-13.53,83.88-12.32,1.84.08,3.65.19,5.43.34,27.49,2.38,45.36,11.61,69.5,25.42,8.91,5.09,19.13,11.39,32.15,19.8,12,7.76,24.89,16,38.29,23.79,24.21,14.09,53.17,28.35,84.19,27.22,37.06-1.35,64.61-22.81,93.79-45.53,24-18.69,48.83-38,79.66-45.49,38.23-9.28,78.69.62,113.6,10.63l1.77.5c35.56,10.2,69.15,19.84,103.39,14.84,34.8-5.07,69.62-31.56,67.65-67.1-1.36-24.53-19.95-43.73-30.91-53-11.15-9.43-23.87-17.26-36.16-24.82-5.87-3.61-11.93-7.34-17.74-11.19a279.2,279.2,0,0,1-43.87-36c-48-48.4-75.44-110.88-77.26-175.93a246.15,246.15,0,0,1,.69-26.57c5.93-73.43,44.14-144.42,104.85-194.77l1.29,1.34c-60.33,50-98.31,120.59-104.2,193.57a242.59,242.59,0,0,0-.69,26.38c1.81,64.62,29.07,126.69,76.75,174.77a277.3,277.3,0,0,0,43.57,35.75c5.78,3.84,11.83,7.56,17.68,11.16,12.36,7.6,25.14,15.46,36.41,25s30.13,29.05,31.53,54.22c2,36.55-33.64,63.76-69.29,69-34.68,5.05-68.48-4.64-104.26-14.89l-1.77-.51c-34.66-9.94-74.79-19.77-112.54-10.61-30.41,7.38-55.06,26.57-78.9,45.13-29.44,22.92-57.24,44.57-95,45.95-31.54,1.13-60.84-13.25-85.31-27.5-13.43-7.81-26.32-16.06-38.36-23.84-13-8.39-23.18-14.66-32.06-19.74-23.9-13.68-41.6-22.82-68.65-25.15-1.76-.15-3.54-.26-5.35-.34a233.43,233.43,0,0,0-83.11,12.21c-21,7.25-38.7,17.28-52.52,29.84a127.78,127.78,0,0,0-13.26,14c-26.16,32-34.34,77.41-21.34,118.42Z" transform="translate(225.72 225.45)"/></g><g class="cls-10"><path class="cls-6" d="M86.2,585.89c-13.73-41.38-4.43-88.41,23.69-119.82A127.94,127.94,0,0,1,124,452.54c14.23-11.75,32.54-21.16,54.41-28,25.37-7.9,56.06-12.66,84.18-13,1.8,0,3.58,0,5.32,0,26.82.6,43,7.36,66.57,18.43,9.59,4.51,20.57,10.32,32.64,17.27,4.31,2.49,8.77,5.09,13.33,7.74,8.4,4.9,17.09,10,25.86,14.91,24.68,13.91,53.59,28.74,84.58,28.47,36.76-.32,64.56-20.47,94-41.81,23.73-17.21,48.26-35,78.27-42,37-8.6,75.63-.32,112,8.9,31.73,8,67.68,17.17,101.64,10.71,32.4-6.15,65.43-32,62.83-67.69-1.3-17.78-12.05-36.32-30.28-52.2-10.66-9.29-22.75-17.1-34.43-24.66-5.78-3.73-11.74-7.59-17.45-11.56A269.51,269.51,0,0,1,815.55,242c-45.21-48-69.9-109.42-69.5-172.87a237.65,237.65,0,0,1,1.54-25.76c8.11-70.74,47.34-139,107.64-187.4l1.28,1.36c-59.94,48.06-98.94,115.94-107,186.23A236.87,236.87,0,0,0,748,69.12c-.39,63,24.12,124,69,171.68a267.17,267.17,0,0,0,41.56,35.83c5.68,3.95,11.63,7.8,17.39,11.52,11.74,7.6,23.89,15.45,34.65,24.83,18.59,16.19,29.55,35.15,30.89,53.38,2.68,36.74-31.17,63.26-64.38,69.57-34.41,6.53-70.61-2.65-102.54-10.74-36.11-9.16-74.43-17.39-111-8.89C634,423.18,609.6,440.85,586,458c-29.69,21.53-57.74,41.87-95.16,42.19h-.83c-31.18,0-60.09-14.81-84.78-28.74-8.79-4.94-17.48-10-25.89-14.91-4.55-2.66-9-5.25-13.32-7.74-12-6.92-22.95-12.71-32.49-17.2-23.28-10.95-39.33-17.64-65.74-18.23-1.71,0-3.46,0-5.24,0-27.93.38-58.4,5.1-83.59,12.95-21.62,6.73-39.71,16-53.74,27.6a126.06,126.06,0,0,0-13.87,13.34c-27.72,31-36.88,77.34-23.34,118.15Z" transform="translate(225.72 225.45)"/></g><g class="cls-11"><path class="cls-6" d="M92.83,589.61C78.31,547.7,88.41,500.75,118.56,470a125.61,125.61,0,0,1,14.71-12.88c14.58-10.9,32.77-19.31,55.62-25.68,31.86-8.91,66.6-12.45,84.48-13.77q2.65-.21,5.19-.33c27.36-1.29,42,3.5,63.65,11.43a309.54,309.54,0,0,1,33.13,14.75c11,5.61,23.16,12.25,34.93,18.67l5.18,2.82c28.08,15.33,55.7,29.14,85,29.73,36.52.72,64.57-18.13,94.28-38.1,23.41-15.72,47.62-32,76.77-38.45,38.62-8.57,80.09.52,110.38,7.16,35.27,7.74,67,13.53,98.11,6.09s61.2-33.33,58-68.29c-1.58-17.38-12.11-35.64-29.65-51.41-10.17-9.14-21.62-16.93-32.7-24.47-5.68-3.86-11.56-7.86-17.16-12a258.3,258.3,0,0,1-39.84-36.16c-42.45-47.64-64.39-107.94-61.76-169.8a234.22,234.22,0,0,1,2.39-24.94c10.26-68,50.52-133.65,110.45-180l1.25,1.38C811.38-88.18,771.37-23,761.18,44.62a231.05,231.05,0,0,0-2.38,24.77C756.19,130.81,778,190.68,820.12,238a255.54,255.54,0,0,0,39.55,35.9c5.57,4.09,11.43,8.08,17.1,11.93,11.13,7.57,22.64,15.4,32.9,24.63,17.88,16.07,28.62,34.73,30.23,52.54,3.27,35.95-27.44,62.51-59.46,70.17-31.54,7.54-63.52,1.72-99.05-6.08-31.77-7-71.31-15.63-109.48-7.16-28.77,6.38-52.82,22.54-76.07,38.16-30,20.15-58.27,39.16-95.47,38.44-29.73-.6-57.6-14.52-85.91-30l-5.18-2.83c-11.75-6.41-23.91-13-34.88-18.64a308.17,308.17,0,0,0-32.9-14.65c-21.4-7.84-35.88-12.57-62.84-11.32-1.67.08-3.38.2-5.13.33-17.8,1.32-52.39,4.85-84.08,13.7-22.6,6.31-40.58,14.61-55,25.37A125.29,125.29,0,0,0,120,471.18C90.76,501,80.58,548.39,94.68,589.07Z" transform="translate(225.72 225.45)"/></g><g class="cls-12"><path class="cls-6" d="M99.47,593.34c-15.11-41.85-4-89.85,27.77-119.45a123.77,123.77,0,0,1,15.34-12.22c14.65-9.91,33.23-17.57,56.81-23.41,26.42-6.55,56.73-10.68,81.09-14l3.69-.5c1.74-.25,3.43-.47,5.08-.67,25.47-3,38.05-1.46,60.71,4.45a222.13,222.13,0,0,1,33.63,12.22c11.08,5,24.11,11.42,41,20.34l1,.53c27,14.26,54.86,29,84.36,30.45,36.24,1.76,64.66-15.79,94.72-34.38,23-14.24,46.88-29,75.12-34.94,36.82-7.78,74.52-.85,107.78,5.26l1,.18c31,5.69,63.91,10.5,94.6,1.46,28.34-8.36,57.08-33.48,53.2-68.89-1.86-17-12.17-35-29-50.62-9.65-9-20.47-16.72-30.93-24.22-5.6-4-11.39-8.17-16.9-12.43a247.84,247.84,0,0,1-37.83-36.25C782,189,762.79,129.8,767.68,69.52a230,230,0,0,1,3.24-24.13C783.48-20.86,823.7-82.17,884.18-127.27l1.21,1.4C825.29-81,785.31-20.12,772.83,45.7a226.76,226.76,0,0,0-3.21,24c-4.86,59.83,14.18,118.61,53.6,165.51a245.4,245.4,0,0,0,37.54,36c5.48,4.25,11.26,8.39,16.84,12.39,10.51,7.54,21.38,15.32,31.12,24.38,17.17,16,27.68,34.31,29.58,51.7,4,36.41-25.48,62.21-54.54,70.77-31.13,9.18-64.28,4.34-95.57-1.41l-1-.18c-33.07-6.07-70.55-12.95-107-5.26-27.89,5.89-51.57,20.53-74.47,34.68-30.34,18.76-59,36.49-95.91,34.68-30-1.47-58.05-16.32-85.21-30.69l-1-.53c-16.87-8.89-29.87-15.34-40.9-20.28a220.1,220.1,0,0,0-33.31-12.1c-22.39-5.84-34.8-7.38-59.95-4.4-1.63.19-3.3.42-5,.66l-3.7.5c-24.31,3.31-54.56,7.42-80.86,13.95-23.35,5.78-41.72,13.35-56.18,23.12a123.36,123.36,0,0,0-15.1,12c-31.22,29.13-42.2,76.4-27.31,117.62Z" transform="translate(225.72 225.45)"/></g><g class="cls-13"><path class="cls-6" d="M106.1,597.06c-15.7-41.82-3.44-90.86,29.81-119.26a121.75,121.75,0,0,1,16-11.56c14.85-9.05,33.29-15.77,58-21.14,15.64-3.4,32.57-6.17,48.94-8.86,13-2.13,25.36-4.15,36.14-6.34l1.18-.25c1.29-.26,2.54-.52,3.77-.75C325.33,424,336,423,357.7,426.36c9.93,1.52,21.74,4.87,34.14,9.68a460.45,460.45,0,0,1,41.94,19.19l7.1,3.65c25.19,13,51.25,26.44,78.64,28.58,36.08,2.82,64.88-13.44,95.36-30.65,22.62-12.77,46-26,73.27-31.43,34.86-7,70.41-1.73,101.77,2.91l5.38.79c35,5.13,63.9,6.55,91.08-3.16s52.83-35,48.4-69.49c-2.74-21.25-17-38.83-28.41-49.83-9.13-8.78-19.3-16.47-29.13-23.91-5.53-4.19-11.26-8.52-16.68-13a237.43,237.43,0,0,1-35.81-36.33c-37-46.85-53.42-105-46.25-163.67a222.42,222.42,0,0,1,4.09-23.32C797.26-17,838.48-75.73,898.65-118.88l1.19,1.42C840-74.57,799.06-16.25,784.49,46.78a219.64,219.64,0,0,0-4.06,23.15c-7.12,58.24,9.18,115.92,45.89,162.42a235.51,235.51,0,0,0,35.53,36c5.39,4.42,11.1,8.74,16.62,12.91,9.88,7.48,20.09,15.2,29.3,24.06,11.66,11.2,26.14,29.12,28.93,50.86,4.56,35.42-21.64,61.37-49.62,71.37-27.59,9.86-56.76,8.43-92.08,3.26l-5.38-.79c-31.2-4.61-66.56-9.83-101-2.93-26.94,5.39-50.19,18.52-72.68,31.21-30.76,17.37-59.83,33.78-96.53,30.9-27.81-2.17-54.05-15.7-79.43-28.79l-7.09-3.65a457.75,457.75,0,0,0-41.75-19.11c-12.27-4.76-23.92-8.07-33.71-9.56-21.4-3.28-31.93-2.36-57.05,2.52l-3.75.75-1.18.25c-10.82,2.19-23.16,4.22-36.22,6.36-16.35,2.68-33.25,5.45-48.84,8.84-24.5,5.32-42.74,11.95-57.39,20.88a120.81,120.81,0,0,0-15.72,11.39c-32.71,27.93-44.75,76.18-29.29,117.35Z" transform="translate(225.72 225.45)"/></g><g class="cls-14"><path class="cls-6" d="M112.74,600.78c-16.56-42.49-3.46-91.46,31.85-119.06a119.23,119.23,0,0,1,16.6-10.91c19.16-10.48,41.71-15.58,59.22-18.86,9.63-1.81,20-3.51,30-5.15,19.5-3.2,39.67-6.51,55.41-10.77l4.82-1.33c3.71-1,7.06-2,10.14-2.84,17-4.82,26.42-7.47,44.68-6.68,9.88.42,21.86,2.89,34.66,7.13a342.86,342.86,0,0,1,42.85,18c4.19,2.07,8.37,4.2,12.54,6.32,23.61,12,48,24.4,73.59,27.16,36,3.89,65.24-11.07,96.22-26.9,22.12-11.3,45-23,71.22-27.95,32.76-6.19,66.07-2.44,95.46.86L802,431c28.81,3.1,59.36,4.3,87.55-7.78,23.42-10.05,48.88-34.43,43.6-70.11-3.07-20.72-16.81-38.1-27.79-49-8.59-8.57-18.1-16.17-27.29-23.53-5.48-4.38-11.14-8.92-16.49-13.56a228.13,228.13,0,0,1-33.8-36.41A210.16,210.16,0,0,1,789.32,69.93a219.24,219.24,0,0,1,4.94-22.5c16.73-60.61,59-116.69,118.86-157.92l1.16,1.44c-59.56,41-101.52,96.71-118.14,156.92a218.56,218.56,0,0,0-4.9,22.33,208.55,208.55,0,0,0,38.18,159.34,225.68,225.68,0,0,0,33.52,36.11c5.32,4.61,11,9.14,16.43,13.51,9.23,7.38,18.78,15,27.44,23.66,11.18,11.12,25.15,28.83,28.29,50,5.43,36.64-20.69,61.67-44.7,72-28.63,12.28-59.5,11.07-88.59,7.94l-10.07-1.12c-29.25-3.29-62.39-7-94.85-.88-25.92,4.9-48.66,16.52-70.66,27.76-31.27,16-60.79,31.05-97.39,27.11-25.94-2.8-50.52-15.3-74.29-27.38-4.17-2.11-8.34-4.23-12.52-6.3A341.44,341.44,0,0,0,399.44,434c-12.62-4.18-24.41-6.62-34.1-7-17.93-.76-26.65,1.7-44,6.62-3.09.87-6.44,1.82-10.16,2.83l-4.83,1.33c-15.84,4.29-36.05,7.61-55.61,10.82-10,1.64-20.31,3.34-29.93,5.15-17.36,3.24-39.71,8.3-58.61,18.64a119.06,119.06,0,0,0-16.34,10.73c-34.7,27.14-47.57,75.29-31.28,117.1Z" transform="translate(225.72 225.45)"/></g><g class="cls-15"><path class="cls-6" d="M119.37,604.51C102.21,562,116.46,512,153.27,485.63a117.82,117.82,0,0,1,17.23-10.25c18.73-9.14,40.1-13.37,60.41-16.59,5.12-.81,10.4-1.6,15.74-2.41,25-3.78,50.79-7.69,69.94-14.22,1.53-.52,3-1.05,4.41-1.55l.29-.11c7.57-2.71,13.4-5.21,18.55-7.42,10.92-4.69,18.81-8.08,33.31-9.07,9.78-.67,22,.91,35.19,4.58a274.62,274.62,0,0,1,43.77,16.87c5.86,2.82,11.76,5.79,17.47,8.67,22.17,11.19,45.1,22.76,69,26.07,36,5,65.78-8.68,97.37-23.13,21.53-9.85,43.79-20,68.86-24.48,30.53-5.42,61.51-3,88.85-.88,5.14.4,10.17.79,15.06,1.12,37,2.51,62.15-1.21,84-12.39,22.58-11.54,44.62-36.18,38.8-70.71-3.4-20.2-16.65-37.39-27.16-48.25-8-8.32-16.88-15.81-25.42-23.06-5.44-4.61-11.06-9.37-16.34-14.25a217.54,217.54,0,0,1-31.78-36.49c-31.65-46.07-42.57-102-30.74-157.55a217.84,217.84,0,0,1,5.79-21.69C824.66-9.29,867.87-62.75,927.59-102.1l1.13,1.46C869.35-61.52,826.4-8.4,807.79,49a211.94,211.94,0,0,0-5.74,21.53c-11.74,55.07-.92,110.56,30.47,156.24A216.46,216.46,0,0,0,864,262.91c5.25,4.84,10.86,9.6,16.28,14.19,8.58,7.28,17.45,14.8,25.55,23.18,10.69,11.05,24.17,28.54,27.64,49.17,6,35.45-16.63,60.72-39.78,72.56-22.23,11.36-47.67,15.13-85.1,12.61-4.9-.33-9.94-.72-15.09-1.12-27.21-2.12-58-4.52-88.31.85-24.81,4.4-47,14.53-68.37,24.33C605,473.25,574.88,487,538.33,482c-24.28-3.36-47.36-15-69.68-26.26-5.7-2.88-11.59-5.85-17.43-8.66a273.71,273.71,0,0,0-43.43-16.75c-13-3.6-24.94-5.16-34.49-4.51-14.15,1-21.91,4.31-32.64,8.91-5.17,2.22-11,4.74-18.66,7.47l-.29.11c-1.43.51-2.9,1-4.44,1.56-19.33,6.59-45.25,10.51-70.31,14.3-5.34.81-10.6,1.61-15.72,2.42-20.15,3.19-41.35,7.38-59.84,16.4a116.77,116.77,0,0,0-16.94,10.09c-36.16,25.88-50.15,75-33.27,116.83Z" transform="translate(225.72 225.45)"/></g><g class="cls-16"><path class="cls-6" d="M126,608.23c-17.77-42.58-2.32-93.61,35.93-118.68a115.62,115.62,0,0,1,17.87-9.6c19.24-8.32,41-11.63,61.61-14.31l3.91-.51c28.26-3.66,60.28-7.81,82.07-16.83,1.6-.66,3.12-1.33,4.58-2a158,158,0,0,0,21-11.56c8.51-5.36,15.23-9.59,27.88-11.9,9.67-1.77,22-1.07,35.71,2s29.13,8.51,44.69,15.71c7.42,3.45,14.84,7.19,22,10.81,21.81,11,42.41,21.38,64.87,25.18,36,6.1,66.56-6.25,98.89-19.32,20.81-8.41,42.33-17.11,66.14-21.06,28.13-4.66,56.64-3.39,81.8-2.26,7.15.31,13.91.61,20.49.78,34.85.91,59.67-4.35,80.49-17,20.6-12.51,40.35-37.82,34-71.34-3.72-19.65-16.48-36.66-26.54-47.46-7.47-8-15.62-15.37-23.49-22.46-5.42-4.88-11-9.91-16.24-15.06a208.87,208.87,0,0,1-29.77-36.57c-29-45.69-37.18-100.56-23-154.49a210.4,210.4,0,0,1,6.64-20.88C838.27-5.37,882.47-56.21,942.07-93.7l1.09,1.48C883.9-54.95,840-4.42,819.44,50a213.2,213.2,0,0,0-6.59,20.71c-14.09,53.48-6,107.88,22.76,153.16a207,207,0,0,0,29.52,36.25c5.19,5.12,10.77,10.15,16.17,15,7.91,7.11,16.08,14.48,23.61,22.58,10.22,11,23.19,28.26,27,48.32,6.51,34.37-13.73,60.32-34.85,73.14s-46.36,18.2-81.62,17.29c-6.6-.17-13.36-.47-20.52-.79-25.06-1.11-53.46-2.38-81.36,2.25-23.59,3.91-45,12.56-65.71,20.93-32.61,13.19-63.4,25.64-100,19.45-22.77-3.86-44.47-14.8-65.45-25.38-7.16-3.61-14.57-7.34-22-10.77a227.14,227.14,0,0,0-44.27-15.59c-13.42-3-25.48-3.71-34.87-2-12.27,2.24-18.84,6.38-27.17,11.62a159.41,159.41,0,0,1-21.26,11.7c-1.48.66-3,1.33-4.63,2-22,9.13-54.22,13.3-82.6,17l-3.91.51c-20.48,2.65-42.06,5.93-61.06,14.15A114.68,114.68,0,0,0,163.07,491c-37.56,24.61-52.71,74.73-35.25,116.58Z" transform="translate(225.72 225.45)"/></g><g class="cls-17"><path class="cls-6" d="M132.64,612c-18.68-43.37-2.35-94.31,38-118.49a114.69,114.69,0,0,1,18.5-8.94c18.67-7.11,39.49-9.66,62.8-12,30.25-3.1,64.36-7.31,86.3-18.05q2.34-1.15,4.45-2.31c9.78-5.31,15.87-10.69,21.25-15.44,7-6.17,13-11.49,24.69-15,9.55-2.86,22.07-3.06,36.23-.56s29.88,7.51,45.6,14.55c8.9,4,17.72,8.47,26.25,12.79,20.53,10.4,39.92,20.22,61,24.46,36.25,7.27,67.64-3.77,100.88-15.45,19.93-7,40.54-14.26,62.95-17.7,25.49-3.92,51.36-3.58,74.18-3.29,9.29.12,18.07.24,26.47.08,33.34-.61,57.08-7.27,77-21.61,9-6.51,37.86-30.94,29.2-72-3.19-15.14-12.16-31.28-25.93-46.68-6.88-7.71-14.32-14.85-21.51-21.74-5.41-5.18-11-10.54-16.19-16A199.64,199.64,0,0,1,837,222c-26.44-45.31-31.84-99.09-15.22-151.42a210.87,210.87,0,0,1,7.49-20.07C852.11-2.16,896.12-49.12,956.54-85.32l1.06,1.51c-60.09,36-103.84,82.66-126.51,134.94A209.11,209.11,0,0,0,823.65,71c-16.48,51.88-11.13,105.17,15.07,150.07a197.63,197.63,0,0,0,27.5,36.33c5.16,5.43,10.73,10.77,16.12,15.93,7.22,6.93,14.69,14.08,21.62,21.85,14,15.63,23.08,32.05,26.33,47.47,8.87,42-20.65,67.05-29.91,73.72-20.25,14.58-44.34,21.36-78.13,22-8.43.16-17.23.05-26.54-.08-22.74-.29-48.51-.62-73.84,3.27-22.21,3.41-42.73,10.62-62.57,17.6-33.52,11.79-65.18,22.92-102,15.53-21.39-4.3-40.9-14.18-61.55-24.64-8.51-4.31-17.31-8.77-26.17-12.75-15.34-6.87-31.37-12-45.11-14.4s-26-2.27-35.27.5C378,426.77,372.08,432,365.26,438c-5.45,4.81-11.63,10.26-21.61,15.68-1.43.78-2.93,1.57-4.52,2.35-22.24,10.9-56.57,15.13-87,18.25-23.17,2.36-43.84,4.89-62.29,11.91A113.58,113.58,0,0,0,171.68,495c-39.57,23.73-55.58,73.74-37.24,116.32Z" transform="translate(225.72 225.45)"/></g><g class="cls-18"><path class="cls-6" d="M139.28,615.68c-19.3-43.45-1.72-95.41,40-118.29a114,114,0,0,1,19.13-8.29c19.35-6.42,40.29-8,62.46-9.65l1.54-.11c28.79-2.17,64.65-6.27,86.61-18.76,1.36-.78,2.78-1.64,4.32-2.63,9.92-6.39,15.32-12.86,20.54-19.12,5.84-7,11.37-13.63,22.45-18.26,9.43-3.94,22.13-5,36.74-3.14,14.32,1.84,30.84,6.6,46.52,13.39,10.31,4.48,20.44,9.66,30.23,14.67,19.33,9.88,37.58,19.21,57.44,23.83,36.66,8.54,69.14-1.19,103.52-11.5,18.83-5.64,38.31-11.48,59.11-14.41,22.6-3.19,44.58-3.55,65.84-3.9,11.73-.19,22.81-.37,33.18-1,32-2.05,54.68-10.13,73.46-26.2,10.36-8.87,33.48-33.7,24.4-72.59-3.47-14.91-12-30.35-25.3-45.89-6.27-7.34-13-14.2-19.48-20.84-5.43-5.55-11-11.29-16.2-17.13a191.46,191.46,0,0,1-25.74-36.74c-23.88-45-26.52-97.64-7.45-148.36,2.42-6.46,5.23-12.94,8.34-19.25,24.6-49.6,69.57-94,130.06-128.4l1,1.53C911.87-41.19,867.16,2.94,842.73,52.22a206,206,0,0,0-8.27,19.09c-18.91,50.26-16.29,102.46,7.35,147a189.36,189.36,0,0,0,25.5,36.39c5.14,5.8,10.73,11.52,16.14,17.06,6.52,6.66,13.26,13.55,19.56,20.93,13.5,15.76,22.14,31.44,25.68,46.62,9.29,39.79-14.38,65.2-25,74.28-18.86,16.15-42.58,24.62-74.64,26.68-10.43.67-21.53.85-33.29,1-21.19.35-43.11.71-65.58,3.88-20.64,2.91-40,8.72-58.8,14.35-34.66,10.38-67.4,20.19-104.6,11.53-20.1-4.68-38.46-14.07-57.9-24-9.77-5-19.87-10.16-30.12-14.61C463.27,425.73,447,421,432.83,419.2s-26.59-.8-35.68,3c-10.64,4.45-15.77,10.6-21.72,17.73-5.06,6.06-10.79,12.94-21,19.49-1.57,1-3,1.89-4.42,2.69-22.31,12.69-58.46,16.83-87.46,19l-1.55.12c-22,1.65-42.84,3.21-62,9.55a111.89,111.89,0,0,0-18.79,8.14c-40.93,22.44-58.16,73.42-39.22,116.07Z" transform="translate(225.72 225.45)"/></g><g class="cls-19"><path class="cls-6" d="M145.91,619.4c-19.91-43.54-1-96.52,42.07-118.09a112.76,112.76,0,0,1,19.76-7.63c18.62-5.31,38.41-6.24,59.37-7.22l5.82-.27c26.49-1.3,64.31-4.73,86.93-19.46,1.37-.9,2.75-1.87,4.2-3,9.83-7.39,14.68-15.14,19.37-22.64,5.12-8.18,10-15.91,20.68-21.69,9.28-5,22.16-7,37.24-5.73,14.7,1.24,31.54,5.58,47.42,12.23,11.69,4.91,23.06,10.79,34.05,16.49,18.18,9.42,35.35,18.31,54,23.27,37.34,9.92,71.2,1.49,107-7.43,17.43-4.34,35.46-8.83,54.38-11.26,19.33-2.48,38.22-3.28,56.48-4.05,14.57-.61,28.34-1.19,40.91-2.6,30.5-3.42,52.72-13.2,69.94-30.8C917,398,934.61,373,925.2,336.33c-3.71-14.45-12-29.63-24.69-45.11-5.62-6.88-11.6-13.41-17.37-19.73-5.47-6-11.13-12.17-16.28-18.45a182.94,182.94,0,0,1-23.72-36.83c-21.36-44.61-21.25-96.21.32-145.29a204.2,204.2,0,0,1,9.19-18.44C878.88,6,924.82-35.9,985.5-68.54l1,1.55c-60.36,32.47-106,74.06-132.1,120.3-3.36,6-6.42,12.12-9.12,18.28-21.36,48.63-21.48,99.74-.34,143.9A182.13,182.13,0,0,0,868.4,252c5.13,6.24,10.52,12.13,16.22,18.37s11.78,12.89,17.44,19.81c12.84,15.68,21.26,31.08,25,45.77,9.61,37.47-8.44,63-20.06,74.85-17.55,17.94-40.16,27.91-71.14,31.38-12.65,1.42-26.45,2-41.06,2.61-18.22.77-37.06,1.56-56.3,4-18.8,2.41-36.77,6.89-54.15,11.21-36.11,9-70.22,17.48-108.09,7.42-18.87-5-36.14-14-54.42-23.43-11-5.67-22.29-11.54-33.9-16.42-15.69-6.57-32.31-10.86-46.8-12.07-14.66-1.23-27.15.67-36.09,5.49-10.27,5.54-15,13.07-20,21-4.78,7.63-9.72,15.53-19.82,23.13-1.49,1.12-2.9,2.11-4.31,3-23,15-61.22,18.47-87.94,19.78l-5.83.28c-20.83,1-40.51,1.9-58.9,7.15a108.77,108.77,0,0,0-19.41,7.48C146.65,524,128.16,576,147.7,618.71Z" transform="translate(225.72 225.45)"/></g><g class="cls-20"><path class="cls-6" d="M152.55,623.12c-20.88-44.39-1.09-97.28,44.11-117.89a109.94,109.94,0,0,1,20.38-7c18.05-4.36,36.93-4.69,56.92-5l9.48-.18c41-1,70.32-7.74,87.24-20.17,1.38-1,2.76-2.12,4.09-3.28,9.6-8.34,13.86-17.33,18-26,4.45-9.42,8.65-18.31,19.12-25.25,9.15-6.06,22.2-8.94,37.73-8.31,15.06.61,32.23,4.54,48.34,11.06,13,5.29,25.58,11.9,37.72,18.29,17.08,9,33.21,17.48,50.72,22.73,38.39,11.49,74.06,4.36,111.82-3.19,15.62-3.12,31.76-6.35,48.41-8.27,15.56-1.8,30.86-2.77,45.65-3.71,18-1.14,35-2.21,50.11-4.66,29.59-4.8,50.7-16.05,66.43-35.39,9.87-12.14,24.91-37.87,14.81-73.88-3.93-14-12-28.89-24.07-44.33-4.95-6.34-10.14-12.44-15.17-18.33-5.81-6.81-11.29-13.24-16.47-20.07a175.68,175.68,0,0,1-21.7-36.91c-18.87-44.29-16-94.8,8.09-142.22,3-6,6.39-11.9,10-17.63C892.45,9.44,938.08-28.79,1000-60.15l.93,1.57c-61.58,31.2-107,69.21-134.91,113-3.61,5.68-7,11.56-10,17.47-23.86,47-26.71,97-8,140.82a173.89,173.89,0,0,0,21.48,36.53c5.14,6.79,10.61,13.2,16.4,20,5,5.91,10.26,12,15.22,18.4,12.19,15.62,20.39,30.73,24.37,44.92,10.31,36.74-5.05,63-15.13,75.4-16.05,19.73-37.54,31.2-67.64,36.08-15.19,2.47-32.25,3.55-50.32,4.69-14.76.94-30,1.9-45.54,3.7-16.56,1.91-32.67,5.13-48.24,8.24-38,7.6-73.94,14.78-112.83,3.14-17.7-5.3-34.67-14.24-51.08-22.88-12.1-6.36-24.6-12.95-37.54-18.2-15.9-6.43-32.82-10.31-47.65-10.91-15.09-.62-27.71,2.15-36.51,8-10,6.65-14.13,15.32-18.47,24.5-4.2,8.87-8.54,18-18.43,26.63-1.37,1.19-2.79,2.33-4.21,3.38-17.26,12.67-47,19.58-88.4,20.55L274,495c-19.87.35-38.63.69-56.46,5a108.18,108.18,0,0,0-20,6.84c-44.29,20.19-63.66,72-43.19,115.57Z" transform="translate(225.72 225.45)"/></g><g class="cls-21"><path class="cls-6" d="M159.18,626.85c-21.5-44.51-.36-98.41,46.15-117.69a109.81,109.81,0,0,1,21-6.31c17.58-3.52,35.73-3.3,55-3.07,4.19.05,8.41.1,12.64.11h.63c28.27,0,66.05-3.65,86.94-20.87,1.36-1.12,2.7-2.33,4-3.6,9.32-9.25,13-19.46,16.48-29.33,3.8-10.69,7.4-20.78,17.69-28.9,9-7.11,22.22-10.88,38.2-10.9H458c15.39,0,32.84,3.51,49.14,9.89,14.37,5.64,28.06,13,41.3,20.09,16,8.6,31.14,16.72,47.52,22.19,40,13.34,78.1,7.49,118.45,1.29,13.17-2,26.78-4.12,40.58-5.53,11.06-1.12,22-2,32.63-2.81,22.33-1.74,43.43-3.39,61.5-7.27,28.86-6.2,48.85-18.9,62.92-40,10.26-15.36,20.32-40.76,10-74.53-4.12-13.47-12-28.12-23.45-43.54-4.22-5.7-8.62-11.24-12.87-16.6-5.93-7.48-11.53-14.54-16.74-22a169.2,169.2,0,0,1-19.68-37c-16.41-44-10.78-93.43,15.86-139.16,3.31-5.7,7-11.36,10.89-16.81,29.45-40.86,76-76.61,138.44-106.26l.88,1.6C953.23-20.66,906.9,14.89,877.64,55.49c-3.89,5.4-7.52,11-10.8,16.67-26.38,45.29-32,94.2-15.73,137.73a166.77,166.77,0,0,0,19.48,36.6c5.17,7.44,10.75,14.48,16.67,21.94,4.26,5.37,8.66,10.93,12.9,16.65,11.56,15.58,19.54,30.4,23.72,44.06,10.51,34.4.25,60.29-10.21,76-14.37,21.51-34.74,34.47-64.14,40.78-18.21,3.91-39.37,5.57-61.77,7.32-10.6.82-21.55,1.68-32.58,2.81-13.75,1.4-27.34,3.49-40.49,5.51-40.59,6.23-78.94,12.12-119.42-1.38-16.55-5.53-32.45-14.06-47.84-22.32-13.18-7.08-26.82-14.4-41.08-20-16.07-6.29-33.24-9.75-48.38-9.75h-.11c-15.52,0-28.29,3.64-36.95,10.47-9.88,7.8-13.39,17.66-17.11,28.1-3.58,10.06-7.29,20.46-16.9,30-1.31,1.3-2.69,2.56-4.09,3.72-21.51,17.72-60.11,21.38-88.87,21.32-4.24,0-8.46-.06-12.67-.11-19.1-.23-37.14-.44-54.51,3a107.88,107.88,0,0,0-20.63,6.19c-45.56,18.89-66.25,71.7-45.18,115.33Z" transform="translate(225.72 225.45)"/></g><g class="cls-22"><path class="cls-6" d="M165.81,630.57a83.31,83.31,0,0,1-1.76-70,88.36,88.36,0,0,1,50-47.5,109.61,109.61,0,0,1,21.65-5.64c17.23-2.77,34.81-2,53.42-1.26,5.1.21,10.22.42,15.36.56,28.56.76,67-2.37,87.91-21.57a54.83,54.83,0,0,0,3.85-3.93c9-10.12,12-21.51,14.94-32.54,3.16-12,6.15-23.32,16.3-32.64,8.87-8.14,22.25-12.8,38.67-13.48,15.77-.66,33.59,2.45,50.16,8.72,15.73,6,30.53,14.08,44.85,21.94s29.09,16,44.36,21.59c42.49,15.68,84,11,128,6.1,9.73-1.09,19.78-2.21,29.82-3.1q8.13-.72,16.13-1.37c28.06-2.34,54.56-4.54,76.36-10.43,28.29-7.64,47.17-21.8,59.42-44.56,8.5-15.8,16.3-41.66,5.19-75.19-4.35-13.11-11.82-27.1-22.84-42.76-3.43-4.9-7-9.72-10.42-14.38C881,260.83,875.27,253,870,244.66a160,160,0,0,1-17.66-37.07c-14-43.74-5.6-92.07,23.63-136.09,3.61-5.44,7.56-10.82,11.74-16,31-38.17,77.19-70.51,141.23-98.88l.84,1.62C966-13.51,920.07,18.65,889.27,56.58,885.12,61.7,881.2,67,877.63,72.44,848.69,116,840.37,163.83,854.2,207.09a158.22,158.22,0,0,0,17.48,36.67c5.23,8.26,11,16.09,17.09,24.37,3.44,4.67,7,9.5,10.44,14.41,11.12,15.81,18.66,29.95,23.06,43.22,11.3,34.09,3.36,60.42-5.3,76.5-12.51,23.25-31.77,37.7-60.62,45.49-22,5.94-48.57,8.15-76.72,10.49-5.33.45-10.71.9-16.13,1.38-10,.88-20,2-29.76,3.09-44.24,5-86,9.63-129-6.21-15.41-5.69-30.27-13.84-44.63-21.72s-29-15.92-44.59-21.82c-16.32-6.17-33.85-9.22-49.34-8.59-15.94.66-28.87,5.14-37.39,13-9.76,9-12.69,20.05-15.79,31.79-3,11.23-6,22.83-15.32,33.26-1.24,1.4-2.59,2.77-4,4.06-21.41,19.65-60.4,22.85-89.33,22.09-5.15-.14-10.29-.35-15.4-.56-18.51-.78-36-1.5-53,1.23a108.53,108.53,0,0,0-21.25,5.54,86.51,86.51,0,0,0-48.89,46.5,81.62,81.62,0,0,0,1.73,68.58Z" transform="translate(225.72 225.45)"/></g><g class="cls-23"><path class="cls-6" d="M172.45,634.29A81.42,81.42,0,0,1,170.77,564a87.62,87.62,0,0,1,51.92-47A109.52,109.52,0,0,1,245,512c17-2.09,34.91-.81,52.25.43,5.81.41,11.81.84,17.74,1.14,23.59,1.19,66.43-.12,88.23-22.27a50,50,0,0,0,3.74-4.26c8.67-11,11.06-23.51,13.36-35.65,2.53-13.34,4.92-25.94,15-36.47,8.73-9.17,22.26-14.72,39.13-16.06,16.11-1.28,34.25,1.4,51.07,7.54,17.09,6.25,33,15.19,48.38,23.84,13.3,7.48,27,15.21,41.22,20.95,46.52,18.85,93.27,15.18,142.77,11.3q6.91-.56,13.86-1.07c35.13-2.61,66.21-5.43,90.85-13.51,27.48-9,45.78-25.09,55.94-49.16,6.8-16.09,12.38-42.31.37-75.84-4.54-12.65-11.6-26-22.22-42-2.59-3.9-5.2-7.72-7.79-11.52-6.38-9.36-12.41-18.21-17.77-27.56a154.56,154.56,0,0,1-15.64-37.15c-11.42-42.9,0-91.38,31.41-133,3.9-5.19,8.14-10.3,12.59-15.19,32.32-35.35,78.08-64.42,144-91.49l.79,1.64c-65.66,27-111.2,55.87-143.32,91-4.41,4.84-8.61,9.9-12.48,15-31.06,41.22-42.41,89.17-31.12,131.57A153.06,153.06,0,0,0,872.77,241c5.32,9.29,11.33,18.1,17.69,27.43,2.6,3.81,5.21,7.64,7.8,11.54,10.7,16.11,17.82,29.57,22.41,42.36,12.2,34,6.51,60.69-.4,77.05-10.38,24.58-29.06,41-57.1,50.2-24.86,8.15-56.08,11-91.35,13.6L758,464.29c-49.75,3.91-96.74,7.6-143.71-11.44-14.29-5.78-28.1-13.55-41.45-21.06-15.32-8.61-31.15-17.51-48.08-23.7-16.55-6-34.38-8.69-50.2-7.43-16.35,1.3-29.44,6.65-37.84,15.46-9.67,10.16-12,22.52-14.5,35.6-2.34,12.34-4.76,25.09-13.7,36.4a51.62,51.62,0,0,1-3.87,4.4c-22.35,22.71-65.84,24.07-89.78,22.86-5.94-.3-12-.73-17.78-1.14-18-1.29-35.07-2.51-51.84-.44a107.5,107.5,0,0,0-21.86,4.89,85.77,85.77,0,0,0-50.8,46,79.77,79.77,0,0,0,1.65,68.85Z" transform="translate(225.72 225.45)"/></g><g class="cls-24"><path class="cls-6" d="M179.08,638a79.75,79.75,0,0,1-1.61-70.57,87.13,87.13,0,0,1,53.89-46.5,110.09,110.09,0,0,1,22.91-4.33c16.78-1.46,34.34.3,51.32,2,6.51.65,13.24,1.33,19.86,1.82,19.19,1.42,66.23,2,88.57-23a50.26,50.26,0,0,0,3.63-4.58c8.31-11.8,10.07-25.47,11.76-38.69,1.81-14.07,3.68-28.61,13.63-40.39,8.58-10.15,22.26-16.6,39.59-18.64,16.51-1.88,35,.37,52,6.37,18.48,6.53,35.49,16.35,51.94,25.85,12.28,7.1,25,14.43,38,20.2C673.79,469.35,726.19,468.27,780,465c27.57-1.65,62.62-4.86,89.22-15.21,27.15-10.56,44.31-28.14,52.46-53.75,7.52-23.63,6-49.37-4.47-76.49-6-15.43-14.67-30.13-21.6-41.21q-2.45-3.93-4.9-7.79c-6.76-10.71-13.15-20.83-18.63-31.51a149.56,149.56,0,0,1-13.62-37.24c-9.08-42.72,5.21-90.08,39.19-129.95,4.2-4.93,8.72-9.77,13.44-14.36C953.87,16,1012-9.26,1057.91-26.59l.73,1.66C1012.93-7.67,955,17.44,912.52,58.76c-4.68,4.55-9.16,9.34-13.33,14.24-33.63,39.46-47.77,86.29-38.8,128.49a147,147,0,0,0,13.47,36.82c5.44,10.62,11.81,20.7,18.55,31.38q2.45,3.87,4.9,7.79c7,11.15,15.73,25.94,21.75,41.51,10.62,27.48,12.14,53.59,4.5,77.6-8.32,26.15-25.84,44.11-53.57,54.89-26.87,10.45-62.13,13.69-89.84,15.35-54.1,3.24-106.78,4.32-156.4-17.62-13.15-5.81-25.9-13.18-38.23-20.3-16.37-9.45-33.3-19.23-51.61-25.7-16.71-5.89-34.84-8.11-51-6.26-16.8,2-30.05,8.19-38.3,18-9.62,11.38-11.37,25-13.23,39.51-1.72,13.42-3.51,27.29-12.06,39.44a52.56,52.56,0,0,1-3.76,4.75c-22.1,24.73-66,25.42-90.23,23.62-6.65-.5-13.39-1.17-19.91-1.83-16.89-1.7-34.35-3.46-50.93-2A107.28,107.28,0,0,0,232,522.64a85.23,85.23,0,0,0-52.71,45.5,78.07,78.07,0,0,0,1.57,69.1Z" transform="translate(225.72 225.45)"/></g><g class="cls-25"><path class="cls-6" d="M185.72,641.74a78.18,78.18,0,0,1-1.52-71c10.66-22.42,31-39.16,55.84-45.92a109.41,109.41,0,0,1,23.53-3.67c16.65-.89,33.93,1.35,50.65,3.52,7.12.92,14.49,1.87,21.73,2.58,19.4,1.88,66.89,3.34,88.92-23.69a48.72,48.72,0,0,0,3.52-4.91c7.93-12.6,9.06-27.35,10.15-41.62,1.18-15.42,2.41-31.37,12.32-44.41,8.4-11.15,22.25-18.49,40-21.2,16.58-2.5,35.86-.6,52.88,5.19,19.93,6.79,38,17.56,55.56,28,11.26,6.69,22.9,13.62,34.81,19.34,53.93,25.9,113.86,26.48,154.24,24.67,37.53-1.69,66.18-7.22,87.58-16.92,26.53-12,43-31.65,49-58.34,5.28-23.63,2.15-49.58-9.31-77.15-5.77-13.89-13.5-27.64-21-40.43L893,273.05c-7.32-12.5-14.23-24.3-19.89-36.77A144.77,144.77,0,0,1,861.56,199c-6.75-42.58,10.37-88.82,47-126.87,4.5-4.68,9.31-9.25,14.29-13.55,42.83-37,99.65-59.54,149.58-76.74l.68,1.68C1023.32.62,966.72,23.09,924.14,59.85c-4.94,4.26-9.71,8.79-14.17,13.43-36.21,37.65-53.16,83.37-46.49,125.42a143.41,143.41,0,0,0,11.46,36.89c5.62,12.39,12.51,24.15,19.81,36.61l1.61,2.75c7.52,12.85,15.28,26.67,21.09,40.65,11.6,27.89,14.76,54.19,9.4,78.15-6.11,27.26-22.94,47.31-50,59.59-21.65,9.81-50.55,15.4-88.35,17.1-40.61,1.83-100.88,1.23-155.23-24.88-12-5.75-23.67-12.7-35-19.41-17.43-10.37-35.46-21.09-55.18-27.81-16.72-5.69-35.64-7.55-51.9-5.11C474,395.87,460.55,403,452.45,413.7c-9.61,12.63-10.76,27.63-12,43.51-1.11,14.47-2.26,29.43-10.42,42.39a51.79,51.79,0,0,1-3.64,5.09c-22.63,27.76-70.94,26.31-90.67,24.39-7.28-.71-14.66-1.67-21.8-2.59-16.62-2.15-33.81-4.38-50.27-3.5a107.29,107.29,0,0,0-23.09,3.6c-24.28,6.61-44.19,23-54.62,44.92a76.52,76.52,0,0,0,1.49,69.43Z" transform="translate(225.72 225.45)"/></g><g class="cls-26"><path class="cls-6" d="M192.35,645.46a76.69,76.69,0,0,1-1.49-71.14C202,551.63,223,535,248.71,528.8a110.29,110.29,0,0,1,24.16-3c16.58-.37,33.65,2.34,50.16,5,7.69,1.21,15.63,2.47,23.42,3.4,19.62,2.35,67.59,4.66,89.27-24.39a48.91,48.91,0,0,0,3.4-5.24c7.57-13.4,8.09-29.23,8.6-44.53.55-16.78,1.13-34.13,10.95-48.46,8.31-12.16,22.31-20.38,40.49-23.77,16.89-3.12,36.49-1.66,53.78,4,21.42,7,40.67,18.86,59.28,30.28,10.19,6.25,20.73,12.72,31.46,18.3,55,28.57,113.58,33.11,153.05,31.9,35.23-1,64.14-7.27,85.95-18.62,26.33-13.72,41.64-34.9,45.52-62.95,3.22-23.36-1.54-49.53-14.15-77.8-5.68-12.73-12.63-25.46-19.35-37.78l-1-1.88c-7.21-13.21-14.11-26.2-19.47-39.75a141.13,141.13,0,0,1-9.58-37.4c-4.42-42.48,15.53-87.6,54.74-123.79,4.8-4.43,9.9-8.72,15.15-12.74C979.2,25.35,1036.59,5.82,1086.88-9.8l.62,1.69c-50.12,15.57-107.32,35-151.74,69-5.21,4-10.26,8.24-15,12.63C882,109.37,862.2,154,866.56,195.91a139.39,139.39,0,0,0,9.47,37c5.32,13.47,12.21,26.4,19.38,39.57l1,1.87c6.74,12.35,13.7,25.12,19.42,37.91,12.74,28.55,17.54,55,14.27,78.71-4,28.64-19.6,50.27-46.49,64.28-22.08,11.5-51.3,17.84-86.84,18.85-39.71,1.22-98.68-3.36-154.06-32.13-10.79-5.61-21.36-12.1-31.58-18.37-18.52-11.36-37.66-23.11-58.86-30.08-17-5.57-36.2-7-52.75-4-17.64,3.28-31.21,11.23-39.23,23-9.54,13.91-10.1,31-10.65,47.55-.52,15.51-1.05,31.54-8.82,45.31a51.91,51.91,0,0,1-3.52,5.43c-22.29,29.86-71.15,27.53-91.12,25.15-7.83-.94-15.79-2.2-23.49-3.42-16.42-2.59-33.41-5.27-49.8-4.92a108.15,108.15,0,0,0-23.71,2.95c-25.1,6.1-45.72,22.32-56.57,44.52a75,75,0,0,0,1.46,69.59Z" transform="translate(225.72 225.45)"/></g><g class="cls-27"><path class="cls-6" d="M199,649.18a75.27,75.27,0,0,1-1.47-71.32c11.51-23,33.33-39.41,59.86-45.12,24.61-5.3,50.05-.58,74.65,4,8.18,1.52,16.64,3.09,24.92,4.26,15.48,2.19,67.72,6.86,89.62-25.1C457.08,500.56,457,481.44,456.91,463c-.07-18.15-.16-36.92,9.58-52.55,18.18-29.18,62.83-33.88,95.62-23.5,23,7.28,43.39,20.24,63.12,32.77,9.08,5.77,18.48,11.74,28,17.07,85.17,47.69,196.48,52.4,248.14,10.5,25.29-20.51,47.75-61.05,11.09-137.69-3.94-8.25-8.27-16.6-12.45-24.67-15.09-29.12-30.69-59.23-32.3-91.69C865.36,145.77,895.45,95,946.22,60.57c44.07-29.84,96.33-45.72,155.15-62l.55,1.71C1043.29,16.51,991.18,32.35,947.37,62c-50.26,34-80,84.27-77.72,131.1,1.59,32.1,17.1,62,32.11,91,4.19,8.08,8.52,16.45,12.48,24.71,37.13,77.64,14.19,118.86-11.59,139.77C850.4,491,738.06,486.33,652.23,438.27c-9.57-5.36-19-11.34-28.1-17.12-19.62-12.46-39.91-25.35-62.65-32.55-32.05-10.15-75.64-5.65-93.3,22.69-9.48,15.21-9.4,33.73-9.33,51.65.09,18.75.17,38.14-10.64,53.92-22.53,32.88-75.77,28.15-91.55,25.91-8.33-1.17-16.81-2.75-25-4.28-24.39-4.53-49.62-9.22-73.82-4-25.94,5.59-47.28,21.67-58.54,44.13a73.62,73.62,0,0,0,1.43,69.75Z" transform="translate(225.72 225.45)"/></g></g></g></g></g></svg>