<svg id="Layer_1" data-name="Layer 1" xmlns="http://www.w3.org/2000/svg" viewBox="0 0 3000 2000"><defs><style>.cls-1{fill:#fff;}.cls-2{fill:#00adb5;}.cls-3{fill:#afcdfb;}.cls-4{fill:#6488d3;}.cls-5{fill:#7ea6ed;}.cls-6{fill:#ffb07b;}.cls-7{fill:#415da5;}.cls-8{fill:#ea8e50;}.cls-9{fill:#aa3e39;}.cls-10{fill:#b84c42;}.cls-11{fill:#739cf3;}.cls-12{fill:#2c3a64;}.cls-13{fill:#9fc1f4;}.cls-14{fill:#c5ddf9;}.cls-15{fill:#f1a34f;}.cls-16{fill:#e58435;}.cls-17{fill:#f4ac75;}.cls-18{fill:#abddda;}.cls-19{fill:#91cecf;}.cls-20{fill:#c97c47;}.cls-21{fill:#b64c41;}.cls-22{fill:#d6716b;}.cls-23{fill:#35488b;}.cls-24{fill:#b2cbfd;}.cls-25{fill:#7a97f3;}.cls-26{fill:#88ade5;}.cls-27{fill:#ee9849;}.cls-28{fill:#163560;}.cls-29{fill:#ffb27d;}.cls-30{fill:#fca56b;}.cls-31{fill:#466aa5;}.cls-32{fill:#d3a688;}.cls-33{fill:#f9dfcd;}.cls-34{fill:#ffeadc;}.cls-35{fill:#f4d7c3;}.cls-36{fill:#eeccb3;}.cls-37{fill:#2e3552;}</style></defs><rect class="cls-1" width="3000" height="2000" transform="translate(3000 2000) rotate(180)"/><path class="cls-2" d="M2588.29,1709.63s201.75-415.87-84-727.16S1972.67,843.65,1848,835,1688.1,528.24,1319.17,446,601.6,540.4,638.74,811.61c55.45,404.87-636.41,196.54-281,899.76Z"/><polygon class="cls-3" points="1199.15 1699.56 418.39 902.43 448.25 872.57 1229.01 1669.7 1199.15 1699.56"/><path class="cls-4" d="M1143.43,1707.79H1488c39.18,0,74-15.62,93-41.79,18.22-25,18.09-54.81-.37-79.74l-106.79-140.39h-72.51l123.53,166c6.77,9.14,6.82,19.63.15,28.78-7.43,10.19-21.29,16.27-37.06,16.27H1203.66c-33.26,0-60.23,22.77-60.23,50.86Z"/><path class="cls-5" d="M1241.54,1596.52h214.69a12.26,12.26,0,0,1,12.26,12.26v35.88a12.27,12.27,0,0,1-12.27,12.27H1241.54a12.27,12.27,0,0,1-12.27-12.27v-35.88A12.27,12.27,0,0,1,1241.54,1596.52Z"/><path class="cls-3" d="M1412.47,1345.52l282.09-352.19A326.12,326.12,0,0,1,1718,963.91a102.06,102.06,0,0,1,90.37-32.12h0c41.85,8.05,57.08,54.94,49,96.8l-263.39,351.83a77.6,77.6,0,0,1-48.69,57.79,82.06,82.06,0,0,1-8,2.57,76.78,76.78,0,0,1-34,1.12l-29.38-5.64A77.73,77.73,0,0,1,1412.47,1345.52Z"/><path class="cls-6" d="M1014.78,1285.07l21.86,28.83s142.76-1.5,187.42-21.7c14.52-6.56,146.92,4.45,184.3-10,8-3.09,14.64-7.21,19.56-12.85,28.34-32.55,12.69-69.2,12.69-69.2s-56.9-5.87-111.78-1.68c-39.1,3-98.07,13.36-122.25,27.8C1168.55,1249,1014.78,1285.07,1014.78,1285.07Z"/><path class="cls-7" d="M982.31,1235.26a7.75,7.75,0,0,1,5.73,3.65c3.36,5.18,8.42,15.92,20.06,23.4,6.54,4.21,26.28,22.12,26.28,22.12l.06.11c.16.49.3,3-3.81,15.55-2.12,6.49,10.18,12.19,10.18,12.19a12.19,12.19,0,0,1-2.5,4.06,11.17,11.17,0,0,1-6.87,3.6c-4.53.63-11.58,5.87-16.25,9.73-2.82,2.34-4.77,4.16-4.77,4.16s-2.47,1.5-7.31-8.93l-4.24-12.58c-.83-4.42-.8-7.89-1.75-12.38-1.46-6.83-4.85-9-5.6-9.47l-.15-.08-18-53.47C974.62,1235,979,1235,982.31,1235.26Z"/><path class="cls-6" d="M1595.91,945.41a373.19,373.19,0,0,0-20.1,35.4,163.68,163.68,0,0,0-9.8,24l57.69,34.15s-.64-33.1,10.65-52.62q1-1.74,2.13-3.33a26.94,26.94,0,0,1,8.22-7.73l-5.29-8.07-21.64-10.84Z"/><path class="cls-8" d="M1595.91,945.41a373.19,373.19,0,0,0-20.1,35.4c21.9,11.24,48.79,7.44,58.54,5.5q1-1.74,2.13-3.33l-8.57-13.18-10.14-13.46Z"/><path class="cls-6" d="M1571.82,959.35s50.27,50.66,81.34,18.86,58.47-46.66,27.68-80.35-49-27.74-61.92-19.65S1559.54,945.36,1571.82,959.35Z"/><path class="cls-9" d="M1327.65,1202.56c-.2,3.27.12,30.69,17.75,42.72,11.42,7.86,39.19,27,65.93,36.86,7.83-3.49,14.26-7.94,18.89-13.82,26.65-34,9.15-69.77,9.15-69.77S1382.25,1195.58,1327.65,1202.56Z"/><path class="cls-10" d="M1514.65,1185.22s-63.34,16.85-109.31-1.93a578.89,578.89,0,0,1-86.17,15.92s16.5,75.38,27.13,88.15c3.45,4.14,60.89,4.23,98.77,4.83a76.12,76.12,0,0,0,59.14-26.53,256.39,256.39,0,0,0,18.93-25.07C1546.69,1205,1514.65,1185.22,1514.65,1185.22Z"/><path class="cls-11" d="M1430.46,1135.62l18.19-25.88,17.14-22a320.28,320.28,0,0,1,95.38-82.16l6.37-3.59s42.77,6.53,59,11.09c0,0,7.56,44.56-.28,67.38-4.73,13.26-35,81.93-95.56,152.46,0,0-52,18.55-96.35-22.44-6.82-6.14-28.93-16.54-33.58-30.59C1399.16,1175.17,1427,1139.24,1430.46,1135.62Z"/><path class="cls-10" d="M1704.13,1015.15l56.48-67.68a23.45,23.45,0,0,0-4-33.8l-1.56-1.16a23.43,23.43,0,0,0-32.34,4.16l-54.93,68.85a23.43,23.43,0,0,0,3.36,32.65h0A23.43,23.43,0,0,0,1704.13,1015.15Z"/><path class="cls-12" d="M1722.87,918.52a12.29,12.29,0,0,0-6.64-.73.15.15,0,0,1,0-.06c5.47-7.76,3.64-21,3.64-21,.28,7.18-7.06,14.71-7.06,14.71,2.75-26.16-59.92-50-65.7-52.41s-3.84-12.23-3.84-12.23c-12.62,1-27.57,15.21-29,30.59s4.2,57.94,11.06,53.3c14.84-10,16.69,13.3,2.36,19.71-9.84,4.41-3,24.84,6.09,34.75,7.29,8,12.25,2.63,17.32.61a14.85,14.85,0,0,1,3.92-1c19.34-2,41.17-18.22,53.75-40.81a64.18,64.18,0,0,0,7.22-23.1A32.8,32.8,0,0,1,1722.87,918.52Z"/><path class="cls-4" d="M1589.33,1051.57s26.39,41.4,1.67,97.91c0,0-32.54,51.54-60.34,83.45,0,0-50.37,24.83-108.12-28.64l60.32-25.67Z"/><path class="cls-6" d="M1332.84,1195.61c2-2.28,9.22-10.63,32.78-10.88h0c25.78-2.24,101-9.55,107.6-19.11,4.47-6.46,66.21-130.48,71.63-131.32,17.76-2.6,48.58,29.45,44,45.14,0,0-63.59,129.46-77.65,132-22.71,4-103.88,1.07-134.09-5.42-3.65,2-17.83,9.59-21.23,11.09-3.9,1.72-19.09,1.68-25.19-2.69S1328.57,1200.6,1332.84,1195.61Z"/><path class="cls-11" d="M1510,1091.13c10.58,19.71,31.11,35.85,58.35,41.22,5.36-6.39,20.51-52.91,20.51-52.91,4.55-15.69,6.14-69.45-42.49-50C1516,1041.62,1513.93,1080.63,1510,1091.13Z"/><path class="cls-13" d="M923,1559.93l268.87-116.83-59.76-137.53L863.23,1422.41A65.92,65.92,0,0,0,829,1509.14l7.21,16.6A65.92,65.92,0,0,0,923,1559.93Z"/><path class="cls-5" d="M1091.44,1421.4v-98.16l40.66-17.67,59.76,137.53L1137,1467h0A45.54,45.54,0,0,1,1091.44,1421.4Z"/><path class="cls-13" d="M1165.88,1289.92h318.53L1740.82,984c20.17-26.44,32.51-38.28,48.28-47.73a31.78,31.78,0,0,1,22.3-3.86h0c.87.17,1.74.35,2.6.55,51.12,11.65,38.27,67.06,39.75,114.71l-259.68,332.77a76.83,76.83,0,0,1-17.86,36.38,54.21,54.21,0,0,1-47.87,29.07H1165.88a53.57,53.57,0,0,1-18.54-3.29,54.45,54.45,0,0,1-19.65-12.59,53.88,53.88,0,0,1-15.88-38.18h0V1344A54.23,54.23,0,0,1,1165.88,1289.92Z"/><path class="cls-4" d="M1113.37,1374.82h479.25c3.28,0,18.8.31,18.8-6h0a6,6,0,0,0-6-6H1113.37a6,6,0,0,0-6,6h0A6,6,0,0,0,1113.37,1374.82Z"/><rect class="cls-3" x="308.88" y="604.64" width="827.24" height="42.23" transform="translate(1675.87 557.35) rotate(135)"/><rect class="cls-3" x="976.96" y="414.4" width="217.4" height="42.23" transform="translate(1545.39 1511.14) rotate(-135)"/><path class="cls-4" d="M1148,497.85c-47.24,47.25-61.62,109.47-32.12,139s91.73,15.12,139-32.12,61.62-109.47,32.12-139S1195.25,450.61,1148,497.85Z"/><ellipse class="cls-13" cx="1262.75" cy="612.6" rx="214.56" ry="134" transform="translate(-63.32 1072.33) rotate(-45)"/><path class="cls-11" d="M1099.53,618.45c-15.6,50.36-10.55,97.31,18.51,126.37,52.33,52.33,162.68,26.83,246.47-57,31.29-31.3,54.45-66.3,68.47-100.6-12.49,40.32-38.21,82.84-75.47,120.1-83.79,83.79-194.14,109.29-246.47,57C1078.25,731.54,1076,676,1099.53,618.45Z"/><ellipse class="cls-14" cx="1277.96" cy="627.81" rx="167.32" ry="104.5" transform="translate(-69.62 1087.53) rotate(-45)"/><path class="cls-1" d="M1268.46,612.65c-17.58,17.57-22.93,40.72-12,51.69s34.12,5.63,51.69-12,22.92-40.71,12-51.69S1286,595.08,1268.46,612.65Z"/><ellipse class="cls-1" cx="1239.18" cy="579.13" rx="45" ry="28.1" transform="translate(-46.56 1045.86) rotate(-45)"/><path class="cls-1" d="M1345.53,535.57c-17.57,17.58-22.92,40.72-12,51.7s34.12,5.62,51.69-11.95,22.93-40.72,12-51.69S1363.1,518,1345.53,535.57Z"/><path class="cls-1" d="M1194.21,686.9c-17.57,17.57-22.92,40.71-12,51.69s34.12,5.62,51.69-12,22.93-40.72,12-51.69S1211.78,669.32,1194.21,686.9Z"/><path class="cls-1" d="M1317.25,661.44c-13.51,13.5-17.62,31.28-9.18,39.72s26.21,4.32,39.71-9.18,17.62-31.29,9.18-39.72S1330.75,647.94,1317.25,661.44Z"/><circle class="cls-4" cx="1004.08" cy="353.93" r="51.5"/><path class="cls-3" d="M982.74,353.93a21.34,21.34,0,1,0,21.34-21.34A21.33,21.33,0,0,0,982.74,353.93Z"/><circle class="cls-4" cx="450.44" cy="897.82" r="51.5"/><path class="cls-3" d="M429.11,897.82a21.34,21.34,0,1,0,21.33-21.34A21.33,21.33,0,0,0,429.11,897.82Z"/><path class="cls-12" d="M513.64,1609.55s-21.27,19.72-17.12,33.72,23.34,23.35,25.94,40.46,13,26.46,22.3,26.46h44.52s6.87-12-9.73-15.68-22.86-23.75-21.82-42.42-1.55-43.57-1.55-43.57l-35.28-8.3Z"/><path class="cls-12" d="M778.71,1709.47a7.42,7.42,0,0,0,1.4.48H899.17c-1-4.22-4.85-12.23-18.79-14.49-18.59-3-50.81-13.83-58-37.6-.23-.77-.44-1.55-.62-2.34-5.71-25.42-47.2,7.78-47.2,7.78s-.13,1-.31,2.74C773.3,1675.36,770.83,1705.53,778.71,1709.47Z"/><path class="cls-15" d="M875.44,1029.62s-6.3,78.63-13.71,173.16c-10.07,128.4-22.17,286.11-23.37,316-2.07,51.89-10.38,134.88-10.38,134.88s-19.7,19.71-59.14,11.4c0,0-35.13-118.47-45.17-243.82-.16-2-.31-4.12-.47-6.19-9.34-127.61-23.85-396.31-23.85-396.31Z"/><path class="cls-16" d="M875.44,1029.62s-6.3,78.63-13.71,173.16L723.67,1421.23c-.16-2-.31-4.12-.47-6.19-9.34-127.61-23.85-396.31-23.85-396.31Z"/><path class="cls-15" d="M846.66,1039s-113.6,284.78-188.3,418.61-98,171.18-98,171.18-42.79-17.12-46.68-28.79c0,0,28.56-258.37,78.59-321.35,28.26-35.59,61.46-142.39,63-179.74S665.37,987.6,665.37,987.6Z"/><path class="cls-17" d="M811.85,511.66C769.53,525,696.29,489,696.29,489s33-24.78,36.72-76.19c.06-.71.1-1.41.13-2.13q.33-5.72.14-11.87l11.58,9.33,43.37,35s-2.23,17.24-3.12,46a90.38,90.38,0,0,1,16.55,11.64A66.18,66.18,0,0,1,811.85,511.66Z"/><path class="cls-17" d="M649.31,483.49s111.88-17.65,185.59,31.14c0,0,50.07,327.36,6.47,358.34s-192.06,0-192.06,0Z"/><path class="cls-18" d="M798.61,1225.13H596.44s23.49-345,30.2-428.94c5.45-68.11,17-231.42,21.13-290.71,1-13.82,1.54-22,1.54-22l48.26-8.22,82.9,107.44s13.11,286.52,12.63,331.67,5.24,221.12,5.51,250.71S798.61,1225.13,798.61,1225.13Z"/><path class="cls-18" d="M780.48,582.71l18.12,642.43h95.25s-4.4-422.53-4.73-461.35,10.35-206-19.37-232C844.9,510.09,785.11,489,785.11,489Z"/><path class="cls-19" d="M785.72,474.2s27.16,18.71,26.14,25.43S807.11,517,807.11,517L790.5,513.6l14,9.86s-15.89,46.35-24,59.25Z"/><path class="cls-19" d="M636.39,665.56c11.88-73.06,149.26,34.91,137.84,130.75-21.12,177.31-111.09,375-177.79,428.82Z"/><path class="cls-20" d="M733,412.78a5.06,5.06,0,0,0-.62-2l.75-.17,11.72-2.54,43.37,35s-1.88,16.28-3.22,46C784.9,489,740.32,464.28,733,412.78Z"/><path class="cls-17" d="M805.89,453.7s-75.49-2.12-73.45-49.11S726.1,325.67,774.39,325s56.87,17.7,60,33.55S825.58,453,805.89,453.7Z"/><path class="cls-12" d="M732.4,410.82s9.82,2.59,17.61-7.79,20.76-50.35,37.89-52.94,39.71,10.12,47,2.85C845.51,342.35,859.2,325,859.2,325s-85-60.58-118.88-32.55S694.54,361.51,732.4,410.82Z"/><path class="cls-12" d="M834.36,578.65c-1.59-29.1-17.48-76.52-17.62-77l4.53,2c.57,1.9,13.2,45.18,14.83,74.91Z"/><path class="cls-12" d="M724.41,665.56c-1.6-1.65-40.46-39-32.17-65.22,3.23-10.2,9.17-14.21,15.48-17.19,5.89-2.14,19.62-4.38,26.72.09,12.95,8.15,19.47,30.66,21.39,68.1l-1.58.08C752,607,740.53,590.93,732,587.3c-10.75-4.55-29.62-2.66-35.55,14.54-4.09,11.85,3.93,28.42,11.37,39.79,8.27,12.64,17.28,23.84,17.37,23.93Z"/><path class="cls-21" d="M728.44,669.6h0a3.83,3.83,0,0,1-5.41,0l-2.66-2.66a3.83,3.83,0,0,1,0-5.41h0a3.83,3.83,0,0,1,5.41,0l2.66,2.66A3.83,3.83,0,0,1,728.44,669.6Z"/><path class="cls-21" d="M755.19,658.49h0a3.84,3.84,0,0,1-3.83-3.83V650.9a3.84,3.84,0,0,1,3.83-3.83h0A3.84,3.84,0,0,1,759,650.9v3.76A3.84,3.84,0,0,1,755.19,658.49Z"/><path class="cls-12" d="M824.51,578.65A10.39,10.39,0,1,1,834.9,589,10.39,10.39,0,0,1,824.51,578.65Z"/><path class="cls-22" d="M830,578.65a5.28,5.28,0,1,1,5.27,5.28A5.27,5.27,0,0,1,830,578.65Z"/><path class="cls-19" d="M787.85,1225.13c-.07-.64-6.61-65.35-4.72-121.59.79-23.77.12-51.71-.53-78.72-.93-38.54-3-75.66.11-99.86,5.33-41.41,4.27-229.65,2.08-250.05-2.13-19.89-.09-41.71,1.88-48.29s-6.6-43.41-6.7-43.78l1-.26c.39,1.53,9.69,37.69,7.59,44.67-2,6.51-4.86,27.81-2.75,47.55,2.19,20.42,6.38,208.62,1,250.08-3.11,24.12-4.16,61.41-3.23,99.91.65,27,1.32,55,.52,78.78-1.88,56.17,7.66,120.92,7.72,121.56Z"/><path class="cls-18" d="M955.26,708.38s25.58,44-1.24,55.62-29.72-.63-29.72-.63Z"/><path class="cls-18" d="M740.93,735.5s4.06,8.3,3.61,15.75c-.48,7.79-4.13,19.55-4.13,19.55s-157.93,33.61-188.61,5.51c-32.95-30.17,28.18-256.85,54.34-279,11.28-9.57,35.05-15.4,57-18.89,12.09-1.93,23.63-3.14,32.21-3.88,8.85-.77,14.58-1,14.58-1l-3.56,13.17-13.85,51.18-16.15,59.69S628.1,696.9,626.54,706.25,740.93,735.5,740.93,735.5Z"/><path class="cls-19" d="M780.48,582.71,717.75,463.09s-23.4,4.75-31.25,12.11c0,0,4,36,7.1,43.93,0,0,12.12-1.38,13.85-.34,0,0-5.89,9-7.62,10C699.83,528.82,754.36,554.24,780.48,582.71Z"/><path class="cls-12" d="M707.9,587.3c-4.29-9.46-42.06-90.14-32.44-110.67l3.69-.46c-7.28,15.56,18.9,85.69,30.27,110.81Z"/><path class="cls-19" d="M791.14,657.14a5,5,0,1,1,5,5A5,5,0,0,1,791.14,657.14Z"/><path class="cls-19" d="M791.14,939.24a5,5,0,1,1,5,5A5,5,0,0,1,791.14,939.24Z"/><path class="cls-19" d="M793.69,810.32a5,5,0,1,1,5,5A5,5,0,0,1,793.69,810.32Z"/><path class="cls-19" d="M793.69,1061.81a5,5,0,1,1,5,5A5,5,0,0,1,793.69,1061.81Z"/><path class="cls-16" d="M738,501.67s18.13,8.64,46.34,3.32l-3.84,77.72Z"/><polygon class="cls-23" points="848.25 593.67 1011.58 608.31 911.92 785.35 758.18 776.52 848.25 593.67"/><path class="cls-24" d="M863.3,592.86s.07-25,13.9-23.3,18,26.87,18,26.87Z"/><polygon class="cls-25" points="1010.52 606.07 847.18 591.44 757.12 774.29 758.22 776.56 848.29 593.71 1011.62 608.34 1010.52 606.07"/><path class="cls-1" d="M877.2,569.56s23.08,11.33,14.92,47.64-18.31,56.22-12.39,77.7l110,10.1s-12-28.55,1.33-57.45,3.85-61.92-8.35-64.79Z"/><path class="cls-17" d="M932.15,752.39s-16.73-20.1-13.27-34.63S934.8,699.87,942.41,705s18.69,16.9,16.61,25.9S940.57,756.57,932.15,752.39Z"/><path class="cls-17" d="M732.58,740.43s28.33-12.46,41.31-8.82,30.48,6.23,31.85,10.9-9.33,22-25.26,22.84-44,8.3-50.71,0S732.58,740.43,732.58,740.43Z"/><path class="cls-26" d="M2183,1686.25a26,26,0,1,0-26,26A26,26,0,0,0,2183,1686.25Z"/><path class="cls-4" d="M2175,1686.25a18,18,0,1,0-18,18A18,18,0,0,0,2175,1686.25Z"/><path class="cls-26" d="M1853.26,1686.25a26,26,0,1,0-26,26A26,26,0,0,0,1853.26,1686.25Z"/><circle class="cls-4" cx="1827.28" cy="1686.25" r="18.04" transform="translate(117.15 3491.19) rotate(-89.25)"/><path class="cls-13" d="M2045.64,1058.77h29.6a2.17,2.17,0,0,1,0-4.33h21.38a2.17,2.17,0,0,1,0,4.33h-.15a13.91,13.91,0,0,1,13.87,13.87v73.94a13.91,13.91,0,0,1-13.87,13.86h-50.83a13.91,13.91,0,0,1-13.87-13.86v-73.94A13.91,13.91,0,0,1,2045.64,1058.77Z"/><path class="cls-4" d="M1978.22,1042.12h18.45a2,2,0,0,1-2-2V1039a2,2,0,0,1,2-2h14.18a2,2,0,0,1,2,2v1.18a2,2,0,0,1-2,2h-2.54a12.72,12.72,0,0,1,12.68,12.69V1150a12.72,12.72,0,0,1-12.68,12.69h-30.09a12.72,12.72,0,0,1-12.68-12.69v-95.22A12.72,12.72,0,0,1,1978.22,1042.12Z"/><polygon class="cls-13" points="1926.88 1095.75 1948.83 1095.75 1952.78 1061.96 1924.47 1061.96 1926.88 1095.75"/><rect class="cls-3" x="1923.81" y="1060.5" width="29.38" height="1.46" rx="0.47" transform="translate(3877 2122.46) rotate(180)"/><polygon class="cls-13" points="1926.88 1100.38 1948.83 1100.38 1952.78 1066.59 1924.47 1066.59 1926.88 1100.38"/><rect class="cls-3" x="1923.81" y="1065.13" width="29.38" height="1.46" rx="0.47" transform="translate(3877 2131.72) rotate(180)"/><polygon class="cls-13" points="1926.88 1105.39 1948.83 1105.39 1952.78 1071.59 1924.47 1071.59 1926.88 1105.39"/><rect class="cls-3" x="1923.81" y="1070.14" width="29.38" height="1.46" rx="0.47" transform="translate(3877 2141.73) rotate(180)"/><polygon class="cls-13" points="1926.88 1111.93 1948.83 1111.93 1952.78 1078.14 1924.47 1078.14 1926.88 1111.93"/><rect class="cls-3" x="1923.81" y="1076.68" width="29.38" height="1.46" rx="0.47" transform="translate(3877 2154.82) rotate(180)"/><polygon class="cls-13" points="1926.88 1116.75 1948.83 1116.75 1952.78 1082.95 1924.47 1082.95 1926.88 1116.75"/><rect class="cls-3" x="1923.81" y="1081.5" width="29.38" height="1.46" rx="0.47" transform="translate(3877 2164.45) rotate(180)"/><path class="cls-21" d="M2181.15,933.69h1.57v0a3,3,0,0,1,3-3h2.74a3,3,0,0,1,3,3v0h1.57a6.59,6.59,0,0,1,6.57,6.57v58.31a6.59,6.59,0,0,1-6.57,6.57h-11.94a6.59,6.59,0,0,1-6.57-6.57V940.26A6.59,6.59,0,0,1,2181.15,933.69Z"/><path class="cls-21" d="M2150.53,933.69h1.57v0a3,3,0,0,1,3-3h2.74a3,3,0,0,1,3,3s0,0,0,0h1.58a6.58,6.58,0,0,1,6.56,6.57v58.31a6.59,6.59,0,0,1-6.56,6.57h-11.95a6.59,6.59,0,0,1-6.57-6.57V940.26A6.59,6.59,0,0,1,2150.53,933.69Z"/><path class="cls-21" d="M2117.07,933.69h1.57v0a3,3,0,0,1,3-3h2.75a3,3,0,0,1,3,3v0H2129a6.59,6.59,0,0,1,6.57,6.57v58.31a6.59,6.59,0,0,1-6.57,6.57h-11.95a6.59,6.59,0,0,1-6.56-6.57V940.26A6.58,6.58,0,0,1,2117.07,933.69Z"/><path class="cls-27" d="M2048.84,894.28h18.45a2,2,0,0,1-2-2v-1.17a2,2,0,0,1,2-2h14.18a2,2,0,0,1,2,2v1.17a2,2,0,0,1-2,2h-2.55A12.72,12.72,0,0,1,2091.61,907v95.23a12.72,12.72,0,0,1-12.69,12.68h-30.08a12.72,12.72,0,0,1-12.68-12.68V907A12.72,12.72,0,0,1,2048.84,894.28Z"/><polygon class="cls-13" points="1926.88 947.91 1948.83 947.91 1952.78 914.11 1924.47 914.11 1926.88 947.91"/><rect class="cls-3" x="1923.81" y="912.66" width="29.38" height="1.46" rx="0.47" transform="translate(3877 1826.77) rotate(180)"/><polygon class="cls-13" points="1926.88 952.53 1948.83 952.53 1952.78 918.74 1924.47 918.74 1926.88 952.53"/><rect class="cls-3" x="1923.81" y="917.29" width="29.38" height="1.46" rx="0.47" transform="translate(3877 1836.03) rotate(180)"/><polygon class="cls-13" points="1926.88 957.54 1948.83 957.54 1952.78 923.75 1924.47 923.75 1926.88 957.54"/><rect class="cls-3" x="1923.81" y="922.29" width="29.38" height="1.46" rx="0.47" transform="translate(3877 1846.04) rotate(180)"/><polygon class="cls-13" points="1926.88 964.09 1948.83 964.09 1952.78 930.29 1924.47 930.29 1926.88 964.09"/><rect class="cls-3" x="1923.81" y="928.84" width="29.38" height="1.46" rx="0.47" transform="translate(3877 1859.13) rotate(180)"/><polygon class="cls-13" points="1926.88 968.9 1948.83 968.9 1952.78 935.11 1924.47 935.11 1926.88 968.9"/><rect class="cls-3" x="1923.81" y="933.65" width="29.38" height="1.46" rx="0.47" transform="translate(3877 1868.76) rotate(180)"/><polygon class="cls-13" points="1966.95 947.91 1988.91 947.91 1992.85 914.11 1964.55 914.11 1966.95 947.91"/><rect class="cls-3" x="1963.88" y="912.66" width="29.38" height="1.46" rx="0.47" transform="translate(3957.15 1826.77) rotate(180)"/><polygon class="cls-13" points="1966.95 952.53 1988.91 952.53 1992.85 918.74 1964.55 918.74 1966.95 952.53"/><rect class="cls-3" x="1963.88" y="917.29" width="29.38" height="1.46" rx="0.47" transform="translate(3957.15 1836.03) rotate(180)"/><polygon class="cls-13" points="1966.95 957.54 1988.91 957.54 1992.85 923.75 1964.55 923.75 1966.95 957.54"/><rect class="cls-3" x="1963.88" y="922.29" width="29.38" height="1.46" rx="0.47" transform="translate(3957.15 1846.04) rotate(180)"/><polygon class="cls-13" points="1966.95 964.09 1988.91 964.09 1992.85 930.29 1964.55 930.29 1966.95 964.09"/><rect class="cls-3" x="1963.88" y="928.84" width="29.38" height="1.46" rx="0.47" transform="translate(3957.15 1859.13) rotate(180)"/><polygon class="cls-13" points="1992.85 935.11 1988.91 968.9 1966.95 968.9 1964.55 935.11 1992.85 935.11"/><rect class="cls-3" x="1963.88" y="933.65" width="29.38" height="1.46" rx="0.47" transform="translate(3957.15 1868.76) rotate(180)"/><polygon class="cls-13" points="1885.56 947.91 1907.51 947.91 1911.46 914.11 1883.15 914.11 1885.56 947.91"/><rect class="cls-3" x="1882.49" y="912.66" width="29.38" height="1.46" rx="0.47" transform="translate(3794.36 1826.77) rotate(180)"/><polygon class="cls-13" points="1885.56 952.53 1907.51 952.53 1911.46 918.74 1883.15 918.74 1885.56 952.53"/><rect class="cls-3" x="1882.49" y="917.29" width="29.38" height="1.46" rx="0.47" transform="translate(3794.36 1836.03) rotate(180)"/><polygon class="cls-13" points="1885.56 957.54 1907.51 957.54 1911.46 923.75 1883.15 923.75 1885.56 957.54"/><rect class="cls-3" x="1882.49" y="922.29" width="29.38" height="1.46" rx="0.47" transform="translate(3794.36 1846.04) rotate(180)"/><polygon class="cls-13" points="1885.56 964.09 1907.51 964.09 1911.46 930.29 1883.15 930.29 1885.56 964.09"/><rect class="cls-3" x="1882.49" y="928.84" width="29.38" height="1.46" rx="0.47" transform="translate(3794.36 1859.13) rotate(180)"/><polygon class="cls-13" points="1885.56 968.9 1907.51 968.9 1911.46 935.11 1883.15 935.11 1885.56 968.9"/><rect class="cls-3" x="1882.49" y="933.65" width="29.38" height="1.46" rx="0.47" transform="translate(3794.36 1868.76) rotate(180)"/><polygon class="cls-13" points="1891.08 1095.75 1913.03 1095.75 1916.98 1061.96 1888.67 1061.96 1891.08 1095.75"/><rect class="cls-3" x="1888.01" y="1060.5" width="29.38" height="1.46" rx="0.47" transform="translate(3805.4 2122.46) rotate(180)"/><polygon class="cls-13" points="1891.08 1100.38 1913.03 1100.38 1916.98 1066.59 1888.67 1066.59 1891.08 1100.38"/><rect class="cls-3" x="1888.01" y="1065.13" width="29.38" height="1.46" rx="0.47" transform="translate(3805.4 2131.72) rotate(180)"/><polygon class="cls-13" points="1891.08 1105.39 1913.03 1105.39 1916.98 1071.59 1888.67 1071.59 1891.08 1105.39"/><rect class="cls-3" x="1888.01" y="1070.14" width="29.38" height="1.46" rx="0.47" transform="translate(3805.4 2141.73) rotate(180)"/><polygon class="cls-13" points="1891.08 1111.93 1913.03 1111.93 1916.98 1078.14 1888.67 1078.14 1891.08 1111.93"/><rect class="cls-3" x="1888.01" y="1076.68" width="29.38" height="1.46" rx="0.47" transform="translate(3805.4 2154.82) rotate(180)"/><polygon class="cls-13" points="1891.08 1116.75 1913.03 1116.75 1916.98 1082.95 1888.67 1082.95 1891.08 1116.75"/><rect class="cls-3" x="1888.01" y="1081.5" width="29.38" height="1.46" rx="0.47" transform="translate(3805.4 2164.45) rotate(180)"/><path class="cls-4" d="M1796.09,1010.25h0a8.49,8.49,0,0,1,8.47,8.47v82.66c0,4.66-3.81-1.53-8.47-1.53h0c-4.66,0-8.47,6.19-8.47,1.53v-82.66A8.49,8.49,0,0,1,1796.09,1010.25Z"/><path class="cls-4" d="M1851.57,1010.27a8.69,8.69,0,0,1,7.87,8.77v86.28c-7.36,8.71-17,3.45-17-3.94v-82.66A8.49,8.49,0,0,1,1851.57,1010.27Z"/><path class="cls-4" d="M2131.52,1010.25a8.49,8.49,0,0,1,8.47,8.47v82.66c0,4.66-3.81-1.53-8.47-1.53s-8.47,6.19-8.47,1.53v-82.66A8.49,8.49,0,0,1,2131.52,1010.25Z"/><path class="cls-4" d="M2186.4,1010.25h0c4.65,0,8.47,3.81,8.47,12.47v72.66c0,.66-3.82,4.47-8.47,4.47h0c-4.66,0-8.48.19-8.48-4.47v-76.66A8.5,8.5,0,0,1,2186.4,1010.25Z"/><rect class="cls-4" x="1766.05" y="955.37" width="365.08" height="69.87" rx="5.61"/><rect class="cls-13" x="1865.58" y="955.37" width="365.08" height="69.87" rx="5.61"/><rect class="cls-4" x="1766.05" y="1094.39" width="365.08" height="573.34" rx="14.44"/><rect class="cls-13" x="1865.58" y="1094.39" width="365.08" height="573.34" rx="14.44"/><path class="cls-4" d="M2197.65,1650.57H1898.59a15.37,15.37,0,0,1-15.35-15.35V1126.91a15.36,15.36,0,0,1,15.35-15.34h299.06a15.36,15.36,0,0,1,15.34,15.34v508.31A15.36,15.36,0,0,1,2197.65,1650.57Zm-299.06-534a10.36,10.36,0,0,0-10.35,10.34v508.31a10.36,10.36,0,0,0,10.35,10.35h299.06a10.36,10.36,0,0,0,10.34-10.35V1126.91a10.35,10.35,0,0,0-10.34-10.34Z"/><circle class="cls-4" cx="1907.96" cy="1366.81" r="9.02"/><path class="cls-28" d="M2657.65,1652.64s-3.48,56.08-14.33,56.89c-1.45.1-55,.1-55,.1h-68.18s.21-16.88,20.21-20.36,53.47-17.54,65.58-44C2618.64,1617.5,2657.65,1652.64,2657.65,1652.64Z"/><path class="cls-15" d="M2661.59,1657.85s-20.8,7-37,7a136.18,136.18,0,0,1-34.58-4.93s-3.91-37.86-25.46-121.29c-11.3-43.73-27.42-99.95-50.38-169.81-63.45-193.08-82.75-306-84.51-316.74-.09-.56-.13-.84-.13-.84l.21-.09,195.08-85.66s-24.11,266.11,6.65,368.25a431.42,431.42,0,0,1,11.17,48.94C2662,1493.58,2661.59,1657.85,2661.59,1657.85Z"/><path class="cls-16" d="M2642.61,1382.63l-78.09,155.95c-11.3-43.73-27.42-99.95-50.38-169.81-63.45-193.08-82.75-306-84.51-316.74,0-.32,0-.61.08-.93l195.08-85.66s-24.11,266.11,6.65,368.25A431.42,431.42,0,0,1,2642.61,1382.63Z"/><path class="cls-28" d="M2509.53,1652.64s-3.48,56.08-14.32,56.89c-1.45.1-55,.1-55,.1l-68.41-.39s.45-16.49,20.45-20,53.46-17.54,65.58-44C2470.53,1617.5,2509.53,1652.64,2509.53,1652.64Z"/><path class="cls-15" d="M2394.67,971.71s-2.54,172.44,27.3,384.17,19.72,301.61,19.72,301.61,20.5,6.64,28.77,7.31c21.08,1.72,42.69-4.94,42.69-4.94s42.7-211.8,30.46-317.78,58.48-363.65,58.48-363.65Z"/><path class="cls-29" d="M2533,568.17l-38.08,25-55-10.26c.76-4.44,4.4-22.85,7.7-39.53.2-1,.4-2,.59-2.92,2.83-14.19,5.28-26.38,5.28-26.38l51.39-22.67,19.16-8.46c-.05.3-1.48,15.75-1.68,18C2518.74,541,2533,568.17,2533,568.17Z"/><path class="cls-18" d="M2383.29,979.17c.79,91,6.85,303.95,11.32,308.28,47.41,45.76,255.93-12.55,267-63s-42-646.42-123-670.22c-16.8-4.94-106.64,24.1-106.64,24.1a569.83,569.83,0,0,0-23.32,83.82c-3.43,17.4-14.61,141.54-21.13,224.49-1.72,22.12-3.14,41.3-4,54.75C2383.22,947,2383.14,960.53,2383.29,979.17Z"/><path class="cls-30" d="M2518.48,501.63c-11.28,19.12-53.34,35.65-70.88,41.72.2-1,.4-2,.59-2.92,2.83-14.19,5.28-26.38,5.28-26.38l51.39-22.67C2516.22,491.22,2523.14,493.76,2518.48,501.63Z"/><path class="cls-29" d="M2434.1,510.92s82.78,25.83,98.07-26,36.27-83.36-15.94-102-68.36-2-77.66,14.09S2413,502.87,2434.1,510.92Z"/><path class="cls-28" d="M2441.82,392s5.27,60.28,17.74,57.66,23.77-4.56,22,13.61-19.11,39.16,19.3,42.37,93.65-95.86,83.1-114.62C2553.45,336.91,2397.8,326,2441.82,392Z"/><path class="cls-19" d="M2454,555.58c1.07-.45,61.63-27.62,68.71-25.28s15.91,24,15.91,24L2432,578.38S2440.37,561.31,2454,555.58Z"/><path class="cls-19" d="M2383.29,979.17C2581.14,845.19,2565,660.91,2565,660.91c-77.2,43.55-153.72,146.64-177.5,225.77-1.72,22.12-3.14,41.3-4,54.75C2383.22,947,2383.14,960.53,2383.29,979.17Z"/><path class="cls-29" d="M2254,965.77s-1.91-1.76-6.42-2.46c-3.82-1.6-14.37-7.2-16.12-9-5.52-5.8-8-.24-4.3,5.76.81,1.3,3.86,3.64,4.89,4.9-9.11,2.7-21.44,8.74-37.77,21.1,0,0-13,9,3.43,12.39,11,2.26,15.48-1.57,31,1.36s31.18-1.58,37.49-11.4l10.92-7.42-7.29-21.35Z"/><path class="cls-18" d="M2490.54,580.3s171,4.26-4,279.76c-28,44.06-211.41,130.85-211.41,130.85s-15.24-19.13-7.9-33.66c0,0,124.23-122.15,140-126.34,14-3.72,22.76-162.86,37.76-200.3S2490.54,580.3,2490.54,580.3Z"/><rect class="cls-24" x="1526.92" y="381.2" width="546.8" height="385.63" transform="translate(3600.65 1148.04) rotate(180)"/><rect class="cls-1" x="1545.85" y="401.25" width="508.94" height="345.54" transform="translate(3600.64 1148.04) rotate(180)"/><rect class="cls-31" x="2073.56" y="381.2" width="3.62" height="385.63" transform="translate(4150.73 1148.04) rotate(180)"/><path class="cls-32" d="M1994.05,653.1c-4.34,14-10,26.56-17.22,36.5-39.7,54.65-49.12-2.25-58.64-29-9-25.15-20.78-36.2-42.83-25.53-16.23,7.84-32.09,77.6-56.14,77.18-19.48-.34-80-77.2-41.13-214.13a43.68,43.68,0,0,1,3.32-8.41c7.15-13.68,24.11-27.38,63-14.92,35.58,11.4,37,18.56,61.33,11.86s60.58-33.59,85.09-6.14C2006,497.49,2013.53,590.06,1994.05,653.1Z"/><path class="cls-33" d="M1994.05,653.1a110,110,0,0,1-12.61,23.46c-39.7,54.65-49.12-2.25-58.64-29-9-25.15-20.78-36.2-42.84-25.54-16.22,7.84-32.08,77.61-56.13,77.19-19-.34-76.93-73.35-43.91-203.81q.72-2.82,1.49-5.69c7.15-13.68,24.11-27.38,63-14.92,35.58,11.4,37,18.56,61.33,11.86s60.58-33.59,85.09-6.14c10.28,11.51,17.06,57.87,14.26,106.17C2003.77,609.56,2000.3,632.85,1994.05,653.1Z"/><path class="cls-34" d="M1986.39,500.12c5.12,14-.66,40.44-9.85,40.41s-13.23-24.6-21.77-35.34c-12.34-15.51-.6-23.39,8.58-23.37S1981.67,487.24,1986.39,500.12Z"/><path class="cls-35" d="M1995.51,648.1q-.69,2.52-1.46,5a110,110,0,0,1-12.61,23.46c-29.9,41.16-42.63,19-51.15-5.81h0c-2.8-8.14-5.14-16.57-7.49-23.17-5-14.16-11-23.85-19.17-27.72h0c-4.32-2-9.26-2.45-15-1A44.26,44.26,0,0,0,1880,622c-10.32,5-20.5,35.08-32.75,56.18-7,12-14.64,21.16-23.38,21-15.65-.28-57.78-49.94-53.59-140.47h0a297.21,297.21,0,0,1,3.26-32c1.34-8.6,3.08-17.51,5.28-26.7.37-1.53.75-3.08,1.14-4.63,2.45,4.28,5.25,8.87,8.43,13.63,20.53,30.74,56.9,68.88,115.89,81.23a191.73,191.73,0,0,0,30,3.81c21.15,1,44.71-1.05,70.9-7.39-.47,8.1-1.21,16.26-2.25,24.31h0A262.19,262.19,0,0,1,1995.51,648.1Z"/><path class="cls-36" d="M1903.62,619.86c-4.32-2-9.26-2.45-15-1A44.26,44.26,0,0,0,1880,622c-10.32,5-20.5,35.08-32.75,56.18-7,12-14.64,21.16-23.38,21-15.65-.28-57.78-49.94-53.59-140.47,6.83,20.7,20.46,96.37,64.38,88.78C1863.75,642.5,1865.81,611.4,1903.62,619.86Z"/><path class="cls-36" d="M1995.51,648.1q-.69,2.52-1.46,5a123,123,0,0,1-12.61,23.46c-41.16,60-52-9.23-60.58-34.08.23.55,15.61,39.09,40,30.6,20.35-7.09,36.56-30,42-62.06A262.19,262.19,0,0,1,1995.51,648.1Z"/><path class="cls-32" d="M1787.92,530a2.46,2.46,0,1,1,2,2.82A2.46,2.46,0,0,1,1787.92,530Z"/><path class="cls-32" d="M1796.38,518.8a1.23,1.23,0,1,1,2.43.38,1.23,1.23,0,0,1-2.43-.38Z"/><path class="cls-32" d="M1803.31,535a1.23,1.23,0,0,1,2.43.38,1.23,1.23,0,1,1-2.43-.38Z"/><path class="cls-10" d="M1985.34,590.79a19.44,19.44,0,1,1-19.44-19.44A19.45,19.45,0,0,1,1985.34,590.79Z"/><path class="cls-10" d="M1965.9,626.38a35.59,35.59,0,1,1,35.59-35.59A35.63,35.63,0,0,1,1965.9,626.38Zm0-65.71A30.12,30.12,0,1,0,1996,590.79,30.15,30.15,0,0,0,1965.9,560.67Z"/><path class="cls-24" d="M2030.48,433.09H1574a8.75,8.75,0,0,1-8.75-8.75h0a8.75,8.75,0,0,1,8.75-8.75h456.5a8.75,8.75,0,0,1,8.75,8.75h0A8.75,8.75,0,0,1,2030.48,433.09Z"/><path class="cls-24" d="M1718,568.08H1592.07a8.75,8.75,0,0,1-8.75-8.75h0a8.75,8.75,0,0,1,8.75-8.75H1718a8.75,8.75,0,0,1,8.75,8.75h0A8.75,8.75,0,0,1,1718,568.08Z"/><path class="cls-24" d="M1718,598.08H1592.07a8.75,8.75,0,0,1-8.75-8.75h0a8.75,8.75,0,0,1,8.75-8.75H1718a8.75,8.75,0,0,1,8.75,8.75h0A8.75,8.75,0,0,1,1718,598.08Z"/><path class="cls-24" d="M1718,628.08H1592.07a8.75,8.75,0,0,1-8.75-8.75h0a8.75,8.75,0,0,1,8.75-8.75H1718a8.75,8.75,0,0,1,8.75,8.75h0A8.75,8.75,0,0,1,1718,628.08Z"/><polygon class="cls-19" points="2391.16 841.87 2412 823.36 2428.38 722.55 2391.16 841.87"/><rect class="cls-37" x="241.02" y="1707.79" width="2517.96" height="7.14" rx="2.95" transform="translate(3000 3422.73) rotate(180)"/></svg>