<svg id="Layer_1" data-name="Layer 1" xmlns="http://www.w3.org/2000/svg" viewBox="0 0 2903.34 1751.2"><defs><style>.cls-1{fill:#00adb5;}.cls-2{fill:#afcdfb;}.cls-3{fill:#6488d3;}.cls-4{fill:#7ea6ed;}.cls-5{fill:#ffb07b;}.cls-6{fill:#415da5;}.cls-7{fill:#ea8e50;}.cls-8{fill:#aa3e39;}.cls-9{fill:#b84c42;}.cls-10{fill:#739cf3;}.cls-11{fill:#2c3a64;}.cls-12{fill:#9fc1f4;}.cls-13{fill:#c5ddf9;}.cls-14{fill:#fff;}.cls-15{fill:#f1a34f;}.cls-16{fill:#e58435;}.cls-17{fill:#f4ac75;}.cls-18{fill:#abddda;}.cls-19{fill:#91cecf;}.cls-20{fill:#c97c47;}.cls-21{fill:#b64c41;}.cls-22{fill:#d6716b;}.cls-23{fill:#35488b;}.cls-24{fill:#b2cbfd;}.cls-25{fill:#7a97f3;}.cls-26{fill:#88ade5;}.cls-27{fill:#ee9849;}.cls-28{fill:#163560;}.cls-29{fill:#ffb27d;}.cls-30{fill:#fca56b;}.cls-31{fill:#466aa5;}.cls-32{fill:#d3a688;}.cls-33{fill:#f9dfcd;}.cls-34{fill:#ffeadc;}.cls-35{fill:#f4d7c3;}.cls-36{fill:#eeccb3;}.cls-37{fill:#2e3552;}</style></defs><path class="cls-1" d="M2759.35,1827.75s232.64-509.33-96.89-890.57-612.95-170-756.75-180.61S1721.39,380.87,1296,280.17,468.6,395.75,511.43,727.92c63.93,495.85-733.82,240.7-324,1101.95Z" transform="translate(-52.83 -83.04)"/><polygon class="cls-2" points="1104.78 1732.37 204.51 756.11 238.94 719.54 1139.21 1695.8 1104.78 1732.37"/><path class="cls-3" d="M1093.36,1825.5h397.29c45.18,0,85.28-19.14,107.29-51.19,21-30.62,20.86-67.13-.42-97.66l-123.14-171.93h-83.61L1533.21,1708c7.8,11.2,7.87,24,.17,35.25-8.56,12.48-24.54,19.92-42.73,19.92H1162.8c-38.35,0-69.44,27.89-69.44,62.3Z" transform="translate(-52.83 -83.04)"/><path class="cls-4" d="M1206.48,1689.22H1454c7.78,0,14.15,6.76,14.15,15v43.94c0,8.26-6.37,15-14.15,15H1206.48c-7.78,0-14.14-6.76-14.14-15v-43.94C1192.34,1696,1198.7,1689.22,1206.48,1689.22Z" transform="translate(-52.83 -83.04)"/><path class="cls-2" d="M1403.57,1381.81l325.27-431.33a392.16,392.16,0,0,1,27.08-36c26.37-30.74,65.46-45.43,104.19-39.35h0c48.26,9.86,65.82,67.29,56.55,118.56L1613,1424.56c-6,33.4-28.13,59.43-56.15,70.77a87.34,87.34,0,0,1-9.24,3.14,83.32,83.32,0,0,1-39.23,1.38l-33.88-6.91C1426.21,1483.09,1394.29,1433.08,1403.57,1381.81Z" transform="translate(-52.83 -83.04)"/><path class="cls-5" d="M945,1307.77l25.2,35.31s164.61-1.83,216.11-26.57c16.74-8,169.4,5.44,212.5-12.28,9.22-3.78,16.89-8.82,22.56-15.73,32.68-39.86,14.63-84.76,14.63-84.76s-65.6-7.19-128.89-2c-45.08,3.68-113.08,16.36-141,34C1122.32,1263.57,945,1307.77,945,1307.77Z" transform="translate(-52.83 -83.04)"/><path class="cls-6" d="M907.58,1246.78a8.87,8.87,0,0,1,6.6,4.46c3.88,6.35,9.71,19.5,23.13,28.66,7.54,5.16,30.3,27.09,30.3,27.09l.08.13c.18.6.35,3.68-4.39,19.05-2.45,7.95,11.73,14.93,11.73,14.93a15.17,15.17,0,0,1-2.88,5,12.73,12.73,0,0,1-7.93,4.4c-5.22.78-13.35,7.19-18.73,11.91-3.25,2.87-5.5,5.1-5.5,5.1s-2.85,1.84-8.43-10.93l-4.89-15.41c-1-5.41-.92-9.67-2-15.17-1.67-8.35-5.59-11.08-6.45-11.59l-.18-.09-20.75-65.49C898.71,1246.46,903.75,1246.42,907.58,1246.78Z" transform="translate(-52.83 -83.04)"/><path class="cls-5" d="M1615.09,891.79a466.44,466.44,0,0,0-23.18,43.35,209.5,209.5,0,0,0-11.3,29.35l66.53,41.83s-.74-40.53,12.27-64.44c.77-1.42,1.59-2.79,2.46-4.09a32.08,32.08,0,0,1,9.47-9.46l-6.09-9.89-25-13.26Z" transform="translate(-52.83 -83.04)"/><path class="cls-7" d="M1615.09,891.79a466.44,466.44,0,0,0-23.18,43.35c25.26,13.77,56.26,9.11,67.5,6.74.77-1.42,1.59-2.79,2.46-4.09L1652,921.66l-11.69-16.48Z" transform="translate(-52.83 -83.04)"/><path class="cls-5" d="M1587.32,908.86s58,62,93.78,23.1,67.42-57.15,31.92-98.41-56.46-34-71.39-24.06S1573.16,891.72,1587.32,908.86Z" transform="translate(-52.83 -83.04)"/><path class="cls-8" d="M1305.77,1206.73c-.22,4,.15,37.58,20.46,52.31,13.17,9.64,45.2,33.11,76,45.15,9-4.28,16.44-9.73,21.78-16.93,30.73-41.58,10.55-85.44,10.55-85.44S1368.73,1198.18,1305.77,1206.73Z" transform="translate(-52.83 -83.04)"/><path class="cls-9" d="M1521.39,1185.48s-73,20.65-126-2.35a633.45,633.45,0,0,1-99.37,19.49s19,92.32,31.29,108c4,5.07,70.21,5.18,113.88,5.92,26.15.45,51.2-11.39,68.2-32.5a314.07,314.07,0,0,0,21.83-30.7C1558.34,1209.73,1521.39,1185.48,1521.39,1185.48Z" transform="translate(-52.83 -83.04)"/><path class="cls-10" d="M1424.31,1124.75l21-31.71,19.76-26.93a376.84,376.84,0,0,1,110-100.62l7.35-4.4s49.31,8,68,13.58c0,0,8.72,54.58-.33,82.53-5.46,16.24-40.36,100.34-110.19,186.71,0,0-59.91,22.72-111.1-27.48-7.86-7.51-33.36-20.26-38.72-37.46C1388.23,1173.17,1420.35,1129.17,1424.31,1124.75Z" transform="translate(-52.83 -83.04)"/><path class="cls-9" d="M1739.88,977.19,1805,894.3c9.93-12.63,7.84-31.53-4.57-41.38l-1.79-1.42c-11.69-9.28-28.2-7-37.3,5.09L1698,940.9c-9.18,12.23-7.46,30,3.87,40h0C1713.33,991,1730.33,989.34,1739.88,977.19Z" transform="translate(-52.83 -83.04)"/><path class="cls-11" d="M1761.48,858.85a13.37,13.37,0,0,0-7.65-.89v-.08c6.31-9.5,4.2-25.73,4.2-25.73.33,8.8-8.13,18-8.13,18,3.16-32-69.1-61.28-75.76-64.19s-4.43-15-4.43-15c-14.55,1.25-31.79,18.63-33.47,37.47s4.84,71,12.75,65.28c17.12-12.27,19.24,16.28,2.72,24.14-11.34,5.39-3.4,30.41,7,42.55,8.4,9.78,14.12,3.22,20,.75a16.27,16.27,0,0,1,4.52-1.21c22.3-2.39,47.46-22.32,62-50a82.35,82.35,0,0,0,8.33-28.29C1755.51,860.79,1759.33,859.13,1761.48,858.85Z" transform="translate(-52.83 -83.04)"/><path class="cls-3" d="M1607.51,1021.8s30.42,50.71,1.92,119.92c0,0-37.52,63.12-69.58,102.19,0,0-58.07,30.42-124.66-35.07l69.55-31.44Z" transform="translate(-52.83 -83.04)"/><path class="cls-5" d="M1311.76,1198.21c2.24-2.79,10.63-13,37.79-13.32h0c29.72-2.74,116.47-11.69,124.07-23.4,5.15-7.92,76.34-159.81,82.59-160.83,20.49-3.2,56,36.06,50.77,55.27,0,0-73.32,158.56-89.53,161.72-26.18,4.92-119.78,1.31-154.61-6.64-4.21,2.41-20.56,11.74-24.48,13.58-4.5,2.11-22,2.06-29-3.3S1306.84,1204.33,1311.76,1198.21Z" transform="translate(-52.83 -83.04)"/><path class="cls-10" d="M1516.05,1070.25c12.21,24.14,35.87,43.91,67.28,50.48,6.19-7.83,23.65-64.8,23.65-64.8,5.25-19.21,7.08-85.05-49-61.22C1522.92,1009.61,1520.56,1057.4,1516.05,1070.25Z" transform="translate(-52.83 -83.04)"/><path class="cls-12" d="M839.17,1644.41l310-143.09-68.91-168.43L770.27,1476c-38.5,17.77-56.15,65.33-39.42,106.22l8.31,20.33C755.89,1643.43,800.67,1662.18,839.17,1644.41Z" transform="translate(-52.83 -83.04)"/><path class="cls-4" d="M1033.41,1474.75V1354.53l46.88-21.64,68.91,168.43-63.28,29.2h0C1056.92,1530.52,1033.41,1505.55,1033.41,1474.75Z" transform="translate(-52.83 -83.04)"/><path class="cls-12" d="M1119.24,1313.72h367.28L1782.18,939c23.26-32.38,37.49-46.88,55.67-58.45a34.82,34.82,0,0,1,25.71-4.73h0c1,.21,2,.43,3,.67,59,14.27,44.13,82.13,45.83,140.49L1613,1424.56a96.37,96.37,0,0,1-20.58,44.55c-10.59,21.37-31.58,35.61-55.2,35.61H1119.24a58.59,58.59,0,0,1-21.38-4,62.38,62.38,0,0,1-22.65-15.41,68.14,68.14,0,0,1-18.31-46.77h0v-58.57C1056.9,1343.52,1085,1313.72,1119.24,1313.72Z" transform="translate(-52.83 -83.04)"/><path class="cls-3" d="M1058.7,1417.69h552.59c3.79,0,21.68.39,21.68-7.31h0a7.12,7.12,0,0,0-6.88-7.3H1058.7a7.12,7.12,0,0,0-6.88,7.3h0A7.12,7.12,0,0,0,1058.7,1417.69Z" transform="translate(-52.83 -83.04)"/><polygon class="cls-2" points="235.15 793.74 909.63 77.34 875.2 40.77 200.72 757.17 235.15 793.74"/><polygon class="cls-2" points="868.07 108.4 1045.33 296.68 1079.76 260.11 902.5 71.84 868.07 108.4"/><path class="cls-3" d="M1098.63,343.65c-54.48,57.86-71.06,134.07-37,170.2s105.77,18.53,160.25-39.33,71.06-134.07,37-170.21S1153.11,285.79,1098.63,343.65Z" transform="translate(-52.83 -83.04)"/><ellipse class="cls-12" cx="1230.94" cy="484.19" rx="255.5" ry="158.91" transform="translate(4.21 1010.75) rotate(-48.91)"/><path class="cls-10" d="M1042.74,491.35c-18,61.68-12.17,119.18,21.34,154.77,60.34,64.09,187.58,32.85,284.19-69.77,36.09-38.33,62.79-81.19,79-123.2-14.4,49.39-44.06,101.45-87,147.09C1243.58,702.86,1116.35,734.09,1056,670,1018.2,629.85,1015.63,561.81,1042.74,491.35Z" transform="translate(-52.83 -83.04)"/><ellipse class="cls-13" cx="1248.47" cy="502.81" rx="199.25" ry="123.93" transform="translate(-3.81 1030.34) rotate(-48.91)"/><path class="cls-14" d="M1237.52,484.24c-20.27,21.53-26.43,49.87-13.78,63.31s39.34,6.89,59.61-14.63,26.43-49.87,13.77-63.31S1257.78,462.72,1237.52,484.24Z" transform="translate(-52.83 -83.04)"/><ellipse class="cls-14" cx="1203.77" cy="443.2" rx="53.59" ry="33.33" transform="translate(25.79 976.21) rotate(-48.91)"/><path class="cls-14" d="M1326.39,389.85c-20.26,21.52-26.43,49.87-13.78,63.31s39.34,6.89,59.61-14.63,26.43-49.87,13.77-63.31S1346.65,368.33,1326.39,389.85Z" transform="translate(-52.83 -83.04)"/><path class="cls-14" d="M1151.91,575.18c-20.27,21.52-26.43,49.86-13.78,63.31s39.34,6.89,59.61-14.64,26.43-49.86,13.77-63.31S1172.17,553.65,1151.91,575.18Z" transform="translate(-52.83 -83.04)"/><path class="cls-14" d="M1293.78,544c-15.57,16.54-20.31,38.31-10.59,48.64s30.23,5.3,45.8-11.24,20.31-38.31,10.58-48.64S1309.34,527.46,1293.78,544Z" transform="translate(-52.83 -83.04)"/><ellipse class="cls-3" cx="879.85" cy="84.34" rx="59.38" ry="63.07"/><path class="cls-2" d="M908.08,167.38c0,14.43,11,26.13,24.6,26.13s24.59-11.7,24.59-26.13-11-26.13-24.59-26.13S908.08,153,908.08,167.38Z" transform="translate(-52.83 -83.04)"/><ellipse class="cls-3" cx="241.48" cy="750.46" rx="59.38" ry="63.07"/><path class="cls-2" d="M269.71,833.5c0,14.43,11,26.13,24.6,26.13s24.59-11.7,24.59-26.13-11-26.13-24.59-26.13S269.71,819.07,269.71,833.5Z" transform="translate(-52.83 -83.04)"/><path class="cls-11" d="M367.17,1705.18s-24.52,24.14-19.73,41.29,26.91,28.59,29.9,49.56,15,32.4,25.72,32.4h51.33s7.92-14.75-11.21-19.2-26.36-29.08-25.16-52-1.8-53.37-1.8-53.37l-40.67-10.16Z" transform="translate(-52.83 -83.04)"/><path class="cls-11" d="M672.82,1827.55a7.78,7.78,0,0,0,1.61.58H811.72c-1.2-5.16-5.6-15-21.67-17.74-21.44-3.69-58.59-16.93-66.88-46.05-.26-.94-.5-1.9-.71-2.87C715.87,1730.34,668,1771,668,1771s-.15,1.24-.35,3.35C666.57,1785.77,663.73,1822.72,672.82,1827.55Z" transform="translate(-52.83 -83.04)"/><path class="cls-15" d="M784.35,994.92s-7.26,96.3-15.81,212.07c-11.6,157.25-25.57,350.41-26.95,387-2.38,63.54-12,165.18-12,165.18s-22.72,24.15-68.19,14c0,0-40.52-145.1-52.09-298.61-.18-2.52-.36-5.06-.54-7.59-10.76-156.28-27.51-485.37-27.51-485.37Z" transform="translate(-52.83 -83.04)"/><path class="cls-16" d="M784.35,994.92s-7.26,96.3-15.81,212.07L609.35,1474.54c-.18-2.52-.36-5.06-.54-7.59-10.76-156.28-27.51-485.37-27.51-485.37Z" transform="translate(-52.83 -83.04)"/><path class="cls-15" d="M751.17,1006.36s-131,348.77-217.12,512.68-113,209.65-113,209.65-49.34-21-53.83-35.26c0,0,32.94-316.43,90.62-393.57,32.59-43.58,70.88-174.39,72.67-220.13s11.66-136.27,11.66-136.27Z" transform="translate(-52.83 -83.04)"/><path class="cls-17" d="M711,360.57c-48.8,16.35-133.25-27.8-133.25-27.8s38.07-30.35,42.34-93.31q.11-1.29.15-2.61c.25-4.66.31-9.52.16-14.54l13.36,11.43,50,42.82s-2.57,21.11-3.59,56.29a104.76,104.76,0,0,1,19.08,14.25A80,80,0,0,1,711,360.57Z" transform="translate(-52.83 -83.04)"/><path class="cls-17" d="M523.61,326.06s129-21.62,214,38.14c0,0,57.74,400.93,7.46,438.86s-221.45,0-221.45,0Z" transform="translate(-52.83 -83.04)"/><path class="cls-18" d="M695.76,1234.37H462.64S489.73,811.88,497.47,709c6.28-83.42,19.57-283.43,24.37-356,1.11-16.92,1.77-26.93,1.77-26.93L579.26,316l95.58,131.58S690,798.48,689.41,853.79s6,270.8,6.35,307S695.76,1234.37,695.76,1234.37Z" transform="translate(-52.83 -83.04)"/><path class="cls-18" d="M674.85,447.58l20.9,786.79H805.58s-5.08-517.47-5.45-565S812.06,417,777.79,385.21c-28.65-26.57-97.59-52.37-97.59-52.37Z" transform="translate(-52.83 -83.04)"/><path class="cls-19" d="M680.9,314.69S712.21,337.6,711,345.83s-5.48,21.23-5.48,21.23l-19.15-4.13L702.57,375s-18.33,56.77-27.72,72.57Z" transform="translate(-52.83 -83.04)"/><path class="cls-19" d="M508.71,549.05c13.7-89.49,172.11,42.75,158.94,160.13-24.36,217.15-128.1,459.27-205,525.19Z" transform="translate(-52.83 -83.04)"/><path class="cls-20" d="M620.12,239.46a6.6,6.6,0,0,0-.71-2.4l.86-.21,13.52-3.11,50,42.82s-2.17,19.94-3.71,56.38C680,332.76,628.55,302.54,620.12,239.46Z" transform="translate(-52.83 -83.04)"/><path class="cls-17" d="M704.16,289.57s-87-2.59-84.7-60.14-7.3-96.66,48.38-97.44,65.57,21.68,69.19,41.1S726.86,288.76,704.16,289.57Z" transform="translate(-52.83 -83.04)"/><path class="cls-11" d="M619.41,237.06s11.34,3.18,20.31-9.54,23.94-61.66,43.7-64.84,45.78,12.39,54.18,3.49c12.24-13,28-34.2,28-34.2s-98-74.19-137.07-39.86S575.76,176.66,619.41,237.06Z" transform="translate(-52.83 -83.04)"/><path class="cls-11" d="M737,442.61c-1.83-35.65-20.15-93.73-20.31-94.28l5.22,2.46c.66,2.32,15.22,55.33,17.1,91.74Z" transform="translate(-52.83 -83.04)"/><path class="cls-11" d="M610.2,549.05c-1.84-2-46.65-47.81-37.09-79.88,3.72-12.5,10.58-17.41,17.86-21.05,6.78-2.62,22.62-5.36,30.8.11,14.93,10,22.45,37.55,24.67,83.4l-1.82.1c-2.63-54.39-15.83-74.09-25.7-78.53-12.4-5.58-34.15-3.26-41,17.81-4.72,14.51,4.53,34.8,13.11,48.73,9.54,15.48,19.92,29.19,20,29.31Z" transform="translate(-52.83 -83.04)"/><path class="cls-21" d="M614.86,554h0a4.26,4.26,0,0,1-6.25,0l-3.07-3.26a4.93,4.93,0,0,1,0-6.63h0a4.24,4.24,0,0,1,6.25,0l3.07,3.26A4.93,4.93,0,0,1,614.86,554Z" transform="translate(-52.83 -83.04)"/><path class="cls-21" d="M645.69,540.39h0a4.57,4.57,0,0,1-4.41-4.69v-4.61a4.57,4.57,0,0,1,4.41-4.69h0a4.57,4.57,0,0,1,4.42,4.69v4.61A4.57,4.57,0,0,1,645.69,540.39Z" transform="translate(-52.83 -83.04)"/><path class="cls-11" d="M725.63,442.61c0-7,5.36-12.72,12-12.72s12,5.7,12,12.72-5.36,12.71-12,12.71S725.63,449.63,725.63,442.61Z" transform="translate(-52.83 -83.04)"/><path class="cls-22" d="M732,442.61a6.1,6.1,0,1,1,6.09,6.46A6.28,6.28,0,0,1,732,442.61Z" transform="translate(-52.83 -83.04)"/><path class="cls-19" d="M683.35,1234.37c-.08-.79-7.62-80-5.44-148.92.92-29.11.14-63.32-.61-96.41-1.07-47.2-3.46-92.66.13-122.3,6.14-50.71,4.92-281.26,2.4-306.24-2.46-24.36-.11-51.08,2.16-59.14,2.32-8.21-7.61-53.17-7.72-53.63l1.16-.31c.46,1.88,11.17,46.16,8.76,54.71-2.25,8-5.61,34-3.17,58.23,2.52,25,7.35,255.51,1.2,306.28-3.58,29.54-4.79,75.22-3.72,122.36.75,33.11,1.52,67.35.6,96.49-2.17,68.8,8.83,148.09,8.9,148.88Z" transform="translate(-52.83 -83.04)"/><path class="cls-18" d="M876.39,601.48s29.49,53.93-1.44,68.12-34.26-.76-34.26-.76Z" transform="translate(-52.83 -83.04)"/><path class="cls-18" d="M629.25,634.7s4.69,10.16,4.16,19.29c-.55,9.54-4.76,23.94-4.76,23.94s-182.09,41.17-217.48,6.75c-38-36.94,32.5-314.56,62.67-341.72,13-11.71,40.41-18.86,65.71-23.13,14-2.37,27.25-3.85,37.15-4.76,10.2-.94,16.81-1.24,16.81-1.24L589.4,330l-16,62.68-18.61,73.11s-55.67,121.69-57.46,133.13S629.25,634.7,629.25,634.7Z" transform="translate(-52.83 -83.04)"/><path class="cls-19" d="M674.85,447.58l-72.32-146.5s-27,5.81-36,14.83c0,0,4.6,44,8.19,53.8,0,0,14-1.69,16-.42,0,0-6.78,11-8.77,12.29C581.87,381.58,644.74,412.71,674.85,447.58Z" transform="translate(-52.83 -83.04)"/><path class="cls-11" d="M591.17,453.2c-4.94-11.59-48.5-110.4-37.41-135.54l4.26-.56c-8.4,19,21.79,104.94,34.9,135.71Z" transform="translate(-52.83 -83.04)"/><path class="cls-19" d="M687.15,538.74a5.82,5.82,0,1,1,5.81,6.17A6,6,0,0,1,687.15,538.74Z" transform="translate(-52.83 -83.04)"/><path class="cls-19" d="M687.15,884.23a5.82,5.82,0,1,1,5.81,6.16A6,6,0,0,1,687.15,884.23Z" transform="translate(-52.83 -83.04)"/><path class="cls-19" d="M690.08,726.33a5.82,5.82,0,1,1,5.81,6.17A6,6,0,0,1,690.08,726.33Z" transform="translate(-52.83 -83.04)"/><path class="cls-19" d="M690.08,1034.34a5.82,5.82,0,1,1,5.81,6.17A6,6,0,0,1,690.08,1034.34Z" transform="translate(-52.83 -83.04)"/><path class="cls-16" d="M625.85,348.33s20.91,10.57,53.44,4.07l-4.44,95.18Z" transform="translate(-52.83 -83.04)"/><polygon class="cls-23" points="700.17 377.96 888.5 395.88 773.58 612.71 596.32 601.9 700.17 377.96"/><path class="cls-24" d="M770.35,460s.08-30.64,16-28.52,20.76,32.9,20.76,32.9Z" transform="translate(-52.83 -83.04)"/><polygon class="cls-25" points="887.27 393.15 698.94 375.23 595.09 599.16 596.36 601.95 700.21 378.01 888.54 395.93 887.27 393.15"/><path class="cls-14" d="M786.38,431.48s26.61,13.87,17.21,58.34-21.12,68.86-14.3,95.16l126.87,12.37s-13.79-35,1.53-70.36,4.43-75.83-9.63-79.35Z" transform="translate(-52.83 -83.04)"/><path class="cls-17" d="M849.74,655.39s-19.29-24.61-15.3-42.41,18.36-21.92,27.14-15.62,21.54,20.7,19.15,31.72S859.45,660.51,849.74,655.39Z" transform="translate(-52.83 -83.04)"/><path class="cls-17" d="M619.62,640.74s32.67-15.25,47.64-10.8,35.14,7.62,36.72,13.35-10.76,26.9-29.13,28-50.69,10.17-58.47,0S619.62,640.74,619.62,640.74Z" transform="translate(-52.83 -83.04)"/><path class="cls-26" d="M2292,1799.11c0-17.58-13.41-31.82-30-31.82s-29.95,14.24-29.95,31.82,13.41,31.81,29.95,31.81S2292,1816.68,2292,1799.11Z" transform="translate(-52.83 -83.04)"/><path class="cls-3" d="M2282.85,1799.11c0-12.2-9.31-22.09-20.79-22.09s-20.8,9.89-20.8,22.09,9.31,22.08,20.8,22.08S2282.85,1811.31,2282.85,1799.11Z" transform="translate(-52.83 -83.04)"/><path class="cls-26" d="M1911.83,1799.11c0-17.58-13.41-31.82-30-31.82s-29.95,14.24-29.95,31.82,13.41,31.81,29.95,31.81S1911.83,1816.68,1911.83,1799.11Z" transform="translate(-52.83 -83.04)"/><ellipse class="cls-3" cx="1829.04" cy="1716.06" rx="20.8" ry="22.09"/><path class="cls-12" d="M2133.65,1030.62h34.14a2.65,2.65,0,0,1,0-5.3h24.64a2.65,2.65,0,0,1,0,5.3h-.16c8.79,0,16,7.65,16,17v90.56c0,9.34-7.19,17-16,17h-58.62c-8.79,0-16-7.64-16-17V1047.6C2117.67,1038.27,2124.86,1030.62,2133.65,1030.62Z" transform="translate(-52.83 -83.04)"/><path class="cls-3" d="M2055.92,1010.23h21.27a2.37,2.37,0,0,1-2.28-2.43v-1.44a2.36,2.36,0,0,1,2.28-2.42h16.35a2.36,2.36,0,0,1,2.29,2.42v1.44a2.37,2.37,0,0,1-2.29,2.43h-2.93c8,0,14.62,7,14.62,15.54v116.62c0,8.55-6.58,15.54-14.62,15.54h-34.69c-8.05,0-14.63-7-14.63-15.54V1025.77C2041.29,1017.22,2047.87,1010.23,2055.92,1010.23Z" transform="translate(-52.83 -83.04)"/><polygon class="cls-12" points="1943.89 992.87 1969.2 992.87 1973.75 951.48 1941.11 951.48 1943.89 992.87"/><rect class="cls-2" x="1993.18" y="1032.74" width="33.88" height="1.78" rx="0.47" transform="translate(3967.4 1984.22) rotate(180)"/><polygon class="cls-12" points="1943.89 998.54 1969.2 998.54 1973.75 957.15 1941.11 957.15 1943.89 998.54"/><rect class="cls-2" x="1993.18" y="1038.41" width="33.88" height="1.78" rx="0.47" transform="translate(3967.4 1995.56) rotate(180)"/><polygon class="cls-12" points="1943.89 1004.67 1969.2 1004.67 1973.75 963.28 1941.11 963.28 1943.89 1004.67"/><rect class="cls-2" x="1993.18" y="1044.54" width="33.88" height="1.78" rx="0.47" transform="translate(3967.4 2007.82) rotate(180)"/><polygon class="cls-12" points="1943.89 1012.69 1969.2 1012.69 1973.75 971.3 1941.11 971.3 1943.89 1012.69"/><rect class="cls-2" x="1993.18" y="1052.56" width="33.88" height="1.78" rx="0.47" transform="translate(3967.4 2023.86) rotate(180)"/><polygon class="cls-12" points="1943.89 1018.58 1969.2 1018.58 1973.75 977.2 1941.11 977.2 1943.89 1018.58"/><rect class="cls-2" x="1993.18" y="1058.46" width="33.88" height="1.78" rx="0.47" transform="translate(3967.4 2035.65) rotate(180)"/><path class="cls-21" d="M2289.9,877.43h1.81v0a3.62,3.62,0,0,1,3.49-3.72h3.17a3.63,3.63,0,0,1,3.5,3.72v0h1.81a7.84,7.84,0,0,1,7.58,8V956.9a7.84,7.84,0,0,1-7.58,8H2289.9a7.84,7.84,0,0,1-7.57-8V885.47A7.84,7.84,0,0,1,2289.9,877.43Z" transform="translate(-52.83 -83.04)"/><path class="cls-21" d="M2254.6,877.43h1.81v0a3.62,3.62,0,0,1,3.49-3.72h3.17a3.62,3.62,0,0,1,3.49,3.72v0h1.81a7.84,7.84,0,0,1,7.57,8V956.9a7.84,7.84,0,0,1-7.57,8H2254.6a7.84,7.84,0,0,1-7.57-8V885.47A7.84,7.84,0,0,1,2254.6,877.43Z" transform="translate(-52.83 -83.04)"/><path class="cls-21" d="M2216,877.43h1.81v0a3.62,3.62,0,0,1,3.49-3.72h3.17a3.62,3.62,0,0,1,3.49,3.72v0h1.81a7.84,7.84,0,0,1,7.58,8V956.9a7.84,7.84,0,0,1-7.58,8H2216a7.84,7.84,0,0,1-7.57-8V885.47A7.84,7.84,0,0,1,2216,877.43Z" transform="translate(-52.83 -83.04)"/><path class="cls-27" d="M2137.35,829.16h21.27a2.36,2.36,0,0,1-2.28-2.43v-1.44a2.36,2.36,0,0,1,2.28-2.42H2175a2.36,2.36,0,0,1,2.29,2.42v1.44a2.37,2.37,0,0,1-2.29,2.43H2172c8,0,14.63,7,14.63,15.54V961.33c0,8.54-6.58,15.53-14.63,15.53h-34.68c-8,0-14.63-7-14.63-15.53V844.7C2122.72,836.15,2129.3,829.16,2137.35,829.16Z" transform="translate(-52.83 -83.04)"/><polygon class="cls-12" points="1943.89 811.8 1969.2 811.8 1973.75 770.41 1941.11 770.41 1943.89 811.8"/><rect class="cls-2" x="1993.18" y="851.67" width="33.88" height="1.78" rx="0.47" transform="translate(3967.4 1622.09) rotate(180)"/><polygon class="cls-12" points="1943.89 817.47 1969.2 817.47 1973.75 776.08 1941.11 776.08 1943.89 817.47"/><rect class="cls-2" x="1993.18" y="857.34" width="33.88" height="1.78" rx="0.47" transform="translate(3967.4 1633.42) rotate(180)"/><polygon class="cls-12" points="1943.89 823.6 1969.2 823.6 1973.75 782.21 1941.11 782.21 1943.89 823.6"/><rect class="cls-2" x="1993.18" y="863.47" width="33.88" height="1.78" rx="0.47" transform="translate(3967.4 1645.68) rotate(180)"/><polygon class="cls-12" points="1943.89 831.62 1969.2 831.62 1973.75 790.23 1941.11 790.23 1943.89 831.62"/><rect class="cls-2" x="1993.18" y="871.49" width="33.88" height="1.78" rx="0.47" transform="translate(3967.4 1661.72) rotate(180)"/><polygon class="cls-12" points="1943.89 837.51 1969.2 837.51 1973.75 796.13 1941.11 796.13 1943.89 837.51"/><rect class="cls-2" x="1993.18" y="877.39" width="33.88" height="1.78" rx="0.47" transform="translate(3967.4 1673.51) rotate(180)"/><polygon class="cls-12" points="1990.1 811.8 2015.41 811.8 2019.96 770.41 1987.32 770.41 1990.1 811.8"/><rect class="cls-2" x="2039.38" y="851.67" width="33.88" height="1.78" rx="0.47" transform="translate(4059.82 1622.09) rotate(180)"/><polygon class="cls-12" points="1990.1 817.47 2015.41 817.47 2019.96 776.08 1987.32 776.08 1990.1 817.47"/><rect class="cls-2" x="2039.38" y="857.34" width="33.88" height="1.78" rx="0.47" transform="translate(4059.82 1633.42) rotate(180)"/><polygon class="cls-12" points="1990.1 823.6 2015.41 823.6 2019.96 782.21 1987.32 782.21 1990.1 823.6"/><rect class="cls-2" x="2039.38" y="863.47" width="33.88" height="1.78" rx="0.47" transform="translate(4059.82 1645.68) rotate(180)"/><polygon class="cls-12" points="1990.1 831.62 2015.41 831.62 2019.96 790.23 1987.32 790.23 1990.1 831.62"/><rect class="cls-2" x="2039.38" y="871.49" width="33.88" height="1.78" rx="0.47" transform="translate(4059.82 1661.72) rotate(180)"/><polygon class="cls-12" points="2019.96 796.13 2015.41 837.51 1990.1 837.51 1987.32 796.13 2019.96 796.13"/><rect class="cls-2" x="2039.38" y="877.39" width="33.88" height="1.78" rx="0.47" transform="translate(4059.82 1673.51) rotate(180)"/><polygon class="cls-12" points="1896.24 811.8 1921.56 811.8 1926.11 770.41 1893.47 770.41 1896.24 811.8"/><rect class="cls-2" x="1945.53" y="851.67" width="33.88" height="1.78" rx="0.47" transform="translate(3872.11 1622.09) rotate(180)"/><polygon class="cls-12" points="1896.24 817.47 1921.56 817.47 1926.11 776.08 1893.47 776.08 1896.24 817.47"/><rect class="cls-2" x="1945.53" y="857.34" width="33.88" height="1.78" rx="0.47" transform="translate(3872.11 1633.42) rotate(180)"/><polygon class="cls-12" points="1896.24 823.6 1921.56 823.6 1926.11 782.21 1893.47 782.21 1896.24 823.6"/><rect class="cls-2" x="1945.53" y="863.47" width="33.88" height="1.78" rx="0.47" transform="translate(3872.11 1645.68) rotate(180)"/><polygon class="cls-12" points="1896.24 831.62 1921.56 831.62 1926.11 790.23 1893.47 790.23 1896.24 831.62"/><rect class="cls-2" x="1945.53" y="871.49" width="33.88" height="1.78" rx="0.47" transform="translate(3872.11 1661.72) rotate(180)"/><polygon class="cls-12" points="1896.24 837.51 1921.56 837.51 1926.11 796.13 1893.47 796.13 1896.24 837.51"/><rect class="cls-2" x="1945.53" y="877.39" width="33.88" height="1.78" rx="0.47" transform="translate(3872.11 1673.51) rotate(180)"/><polygon class="cls-12" points="1902.61 992.87 1927.92 992.87 1932.47 951.48 1899.83 951.48 1902.61 992.87"/><rect class="cls-2" x="1951.9" y="1032.74" width="33.88" height="1.78" rx="0.47" transform="translate(3884.84 1984.22) rotate(180)"/><polygon class="cls-12" points="1902.61 998.54 1927.92 998.54 1932.47 957.15 1899.83 957.15 1902.61 998.54"/><rect class="cls-2" x="1951.9" y="1038.41" width="33.88" height="1.78" rx="0.47" transform="translate(3884.84 1995.56) rotate(180)"/><polygon class="cls-12" points="1902.61 1004.67 1927.92 1004.67 1932.47 963.28 1899.83 963.28 1902.61 1004.67"/><rect class="cls-2" x="1951.9" y="1044.54" width="33.88" height="1.78" rx="0.47" transform="translate(3884.84 2007.82) rotate(180)"/><polygon class="cls-12" points="1902.61 1012.69 1927.92 1012.69 1932.47 971.3 1899.83 971.3 1902.61 1012.69"/><rect class="cls-2" x="1951.9" y="1052.56" width="33.88" height="1.78" rx="0.47" transform="translate(3884.84 2023.86) rotate(180)"/><polygon class="cls-12" points="1902.61 1018.58 1927.92 1018.58 1932.47 977.2 1899.83 977.2 1902.61 1018.58"/><rect class="cls-2" x="1951.9" y="1058.46" width="33.88" height="1.78" rx="0.47" transform="translate(3884.84 2035.65) rotate(180)"/><path class="cls-3" d="M1845.91,971.2h0c5.37,0,9.76,4.67,9.76,10.37V1082.8c0,5.71-4.39-1.87-9.76-1.87h0c-5.38,0-9.77,7.58-9.77,1.87V981.57C1836.14,975.87,1840.53,971.2,1845.91,971.2Z" transform="translate(-52.83 -83.04)"/><path class="cls-3" d="M1909.88,971.22c5.18.39,9.07,5.22,9.07,10.74v105.68c-8.48,10.66-19.54,4.22-19.54-4.84V981.57C1899.41,975.62,1904.2,970.8,1909.88,971.22Z" transform="translate(-52.83 -83.04)"/><path class="cls-3" d="M2232.68,971.2c5.37,0,9.76,4.67,9.76,10.37V1082.8c0,5.71-4.39-1.87-9.76-1.87s-9.77,7.58-9.77,1.87V981.57C2222.91,975.87,2227.3,971.2,2232.68,971.2Z" transform="translate(-52.83 -83.04)"/><path class="cls-3" d="M2296,971.2h0c5.37,0,9.77,4.67,9.77,15.27v89c0,.8-4.4,5.47-9.77,5.47h0c-5.37,0-9.77.23-9.77-5.47V981.57C2286.18,975.87,2290.58,971.2,2296,971.2Z" transform="translate(-52.83 -83.04)"/><path class="cls-3" d="M1817.74,904h408a6.7,6.7,0,0,1,6.46,6.87v71.83a6.7,6.7,0,0,1-6.46,6.87h-408a6.7,6.7,0,0,1-6.47-6.87V910.85A6.7,6.7,0,0,1,1817.74,904Z" transform="translate(-52.83 -83.04)"/><path class="cls-12" d="M1932.5,904h408a6.7,6.7,0,0,1,6.46,6.87v71.83a6.7,6.7,0,0,1-6.46,6.87h-408a6.7,6.7,0,0,1-6.47-6.87V910.85A6.7,6.7,0,0,1,1932.5,904Z" transform="translate(-52.83 -83.04)"/><path class="cls-3" d="M1827.92,1074.25h387.66c9.16,0,16.65,8,16.65,17.68v666.83c0,9.72-7.49,17.68-16.65,17.68H1827.92c-9.16,0-16.65-8-16.65-17.68V1091.93C1811.27,1082.21,1818.76,1074.25,1827.92,1074.25Z" transform="translate(-52.83 -83.04)"/><path class="cls-12" d="M1942.68,1074.25h387.67c9.15,0,16.64,8,16.64,17.68v666.83c0,9.72-7.49,17.68-16.64,17.68H1942.68c-9.16,0-16.65-8-16.65-17.68V1091.93C1926,1082.21,1933.52,1074.25,1942.68,1074.25Z" transform="translate(-52.83 -83.04)"/><path class="cls-3" d="M2308.93,1755.41H1964.09c-9.75,0-17.69-8.43-17.69-18.79V1114.07c0-10.36,7.94-18.79,17.69-18.79h344.84c9.76,0,17.69,8.43,17.69,18.79v622.55C2326.62,1747,2318.69,1755.41,2308.93,1755.41Zm-344.84-654c-6.57,0-11.92,5.68-11.92,12.66v622.55c0,7,5.35,12.66,11.92,12.66h344.84c6.58,0,11.93-5.68,11.93-12.66V1114.07c0-7-5.35-12.66-11.93-12.66Z" transform="translate(-52.83 -83.04)"/><ellipse class="cls-3" cx="1922.07" cy="1324.84" rx="10.4" ry="11.05"/><path class="cls-28" d="M2839.33,1758s-4,68.68-16.52,69.67c-1.67.13-63.46.13-63.46.13h-78.61s.25-20.67,23.3-24.94,61.66-21.48,75.62-53.85C2794.36,1714.91,2839.33,1758,2839.33,1758Z" transform="translate(-52.83 -83.04)"/><path class="cls-15" d="M2843.88,1764.32s-24,8.53-42.7,8.53a148.23,148.23,0,0,1-39.87-6s-4.51-46.37-29.36-148.55c-13-53.55-31.62-122.41-58.09-208-73.16-236.47-95.41-374.81-97.44-387.91-.11-.69-.15-1-.15-1l.23-.12,224.95-104.9s-27.8,325.91,7.67,451c5,17.48,9.22,37.86,12.87,59.93C2844.39,1563.14,2843.88,1764.32,2843.88,1764.32Z" transform="translate(-52.83 -83.04)"/><path class="cls-16" d="M2822,1427.26l-90,191c-13-53.55-31.62-122.41-58.09-208-73.16-236.47-95.41-374.81-97.44-387.91,0-.39,0-.76.08-1.15l224.95-104.9s-27.8,325.91,7.67,451C2814.08,1384.81,2818.34,1405.19,2822,1427.26Z" transform="translate(-52.83 -83.04)"/><path class="cls-28" d="M2668.55,1758s-4,68.68-16.52,69.67c-1.67.13-63.46.13-63.46.13l-78.88-.49s.52-20.18,23.57-24.45,61.65-21.48,75.62-53.85C2623.58,1714.91,2668.55,1758,2668.55,1758Z" transform="translate(-52.83 -83.04)"/><path class="cls-15" d="M2536.1,924s-2.92,211.19,31.48,470.5,22.74,369.38,22.74,369.38,23.64,8.14,33.18,9c24.3,2.1,49.22-6.06,49.22-6.06s49.24-259.4,35.12-389.19,67.43-445.37,67.43-445.37Z" transform="translate(-52.83 -83.04)"/><path class="cls-29" d="M2695.6,429.78l-43.9,30.57-63.44-12.56c.88-5.44,5.07-28,8.88-48.41.23-1.21.46-2.41.68-3.59,3.26-17.38,6.08-32.3,6.08-32.3l59.26-27.77,22.1-10.36c-.06.37-1.72,19.29-2,22.05C2679.17,396.46,2695.6,429.78,2695.6,429.78Z" transform="translate(-52.83 -83.04)"/><path class="cls-18" d="M2523,933.14c.9,111.47,7.89,372.25,13.05,377.55,54.66,56,295.1-15.36,307.84-77.11s-48.44-791.69-141.81-820.84c-19.37-6-123,29.53-123,29.53a731.31,731.31,0,0,0-26.9,102.65c-3.95,21.31-16.84,173.34-24.37,274.94-2,27.08-3.61,50.57-4.56,67C2522.9,893.72,2522.81,910.3,2523,933.14Z" transform="translate(-52.83 -83.04)"/><path class="cls-30" d="M2678.86,348.28c-13,23.41-61.5,43.65-81.72,51.1.23-1.21.46-2.41.68-3.59,3.26-17.38,6.08-32.3,6.08-32.3l59.26-27.77C2676.26,335.53,2684.23,338.64,2678.86,348.28Z" transform="translate(-52.83 -83.04)"/><path class="cls-29" d="M2581.57,359.66s95.45,31.63,113.08-31.81,41.82-102.09-18.38-125-78.82-2.4-89.55,17.26S2557.19,349.8,2581.57,359.66Z" transform="translate(-52.83 -83.04)"/><path class="cls-28" d="M2590.47,214s6.08,73.83,20.46,70.62,27.41-5.58,25.3,16.68-22,47.95,22.26,51.88,108-117.4,95.81-140.38C2719.19,146.54,2539.72,133.17,2590.47,214Z" transform="translate(-52.83 -83.04)"/><path class="cls-19" d="M2604.51,414.35c1.23-.55,71.06-33.82,79.22-31s18.35,29.36,18.35,29.36l-123,29.52S2588.8,421.37,2604.51,414.35Z" transform="translate(-52.83 -83.04)"/><path class="cls-19" d="M2523,933.14c228.13-164.1,209.54-389.78,209.54-389.78-89,53.33-177.25,179.59-204.68,276.5-2,27.08-3.61,50.57-4.56,67C2522.9,893.72,2522.81,910.3,2523,933.14Z" transform="translate(-52.83 -83.04)"/><path class="cls-29" d="M2373.93,916.72s-2.21-2.16-7.4-3c-4.41-2-16.57-8.81-18.59-11.05-6.37-7.11-9.24-.3-5,7.06.93,1.59,4.45,4.45,5.63,6-10.49,3.31-24.71,10.7-43.55,25.84,0,0-15,11,4,15.17,12.68,2.76,17.86-1.92,35.79,1.67s35.94-1.93,43.22-14l12.59-9.09-8.4-26.16Z" transform="translate(-52.83 -83.04)"/><path class="cls-18" d="M2646.64,444.63s197.21,5.21-4.64,342.62c-32.28,54-243.76,160.26-243.76,160.26s-17.58-23.43-9.11-41.22c0,0,143.24-149.61,161.41-154.74,16.12-4.55,26.25-199.45,43.53-245.3S2646.64,444.63,2646.64,444.63Z" transform="translate(-52.83 -83.04)"/><rect class="cls-24" x="1535.55" y="200.79" width="630.49" height="472.29" transform="translate(3648.75 790.83) rotate(180)"/><rect class="cls-14" x="1557.37" y="225.34" width="586.83" height="423.2" transform="translate(3648.75 790.83) rotate(180)"/><rect class="cls-31" x="2165.84" y="200.79" width="4.17" height="472.29" transform="translate(4283.03 790.83) rotate(180)"/><path class="cls-32" d="M2074.16,533.78c-5,17.16-11.53,32.54-19.85,44.71-45.77,66.93-56.64-2.75-67.61-35.49-10.33-30.81-24-44.34-49.39-31.28-18.71,9.61-37,95-64.73,94.53-22.46-.42-92.22-94.54-47.43-262.25a56.59,56.59,0,0,1,3.83-10.29c8.25-16.76,27.81-33.54,72.65-18.27,41,14,42.69,22.73,70.71,14.52s69.85-41.14,98.11-7.52C2087.91,343.2,2096.63,456.58,2074.16,533.78Z" transform="translate(-52.83 -83.04)"/><path class="cls-33" d="M2074.16,533.78a136.53,136.53,0,0,1-14.54,28.74C2013.86,629.45,2003,559.76,1992,527c-10.32-30.81-24-44.34-49.39-31.28-18.7,9.6-37,95-64.73,94.53-21.89-.41-88.7-89.83-50.62-249.61q.82-3.46,1.71-7c8.25-16.76,27.81-33.54,72.65-18.27,41,14,42.69,22.73,70.71,14.52s69.85-41.14,98.11-7.52c11.85,14.09,19.68,70.87,16.45,130C2085.38,480.46,2081.38,509,2074.16,533.78Z" transform="translate(-52.83 -83.04)"/><path class="cls-34" d="M2065.33,346.43c5.91,17.14-.76,49.52-11.35,49.49s-15.25-30.13-25.1-43.28c-14.23-19-.7-28.65,9.89-28.62S2059.9,330.66,2065.33,346.43Z" transform="translate(-52.83 -83.04)"/><path class="cls-35" d="M2075.86,527.66c-.54,2.06-1.11,4.11-1.7,6.12a136.53,136.53,0,0,1-14.54,28.74c-34.47,50.41-49.14,23.31-59-7.12h0c-3.23-10-5.93-20.3-8.64-28.37-5.81-17.35-12.68-29.22-22.11-33.95h0c-5-2.5-10.68-3-17.33-1.26a49.05,49.05,0,0,0-10,3.93c-11.91,6.11-23.64,43-37.76,68.8-8.06,14.75-16.89,25.92-27,25.73-18-.34-66.62-61.16-61.79-172h0a387.49,387.49,0,0,1,3.76-39.2q2.31-15.81,6.09-32.69c.43-1.88.87-3.78,1.32-5.68,2.82,5.25,6,10.86,9.72,16.7,23.67,37.64,65.61,84.35,133.62,99.48a209.5,209.5,0,0,0,34.55,4.67c24.39,1.29,51.55-1.29,81.74-9-.54,9.92-1.39,19.91-2.58,29.77h0A340.26,340.26,0,0,1,2075.86,527.66Z" transform="translate(-52.83 -83.04)"/><path class="cls-36" d="M1969.9,493.08c-5-2.5-10.68-3-17.33-1.26a49.05,49.05,0,0,0-10,3.93c-11.91,6.11-23.64,43-37.76,68.8-8.06,14.75-16.89,25.92-27,25.73-18-.34-66.62-61.16-61.79-172,7.88,25.35,23.59,118,74.23,108.74C1923.92,520.81,1926.3,482.72,1969.9,493.08Z" transform="translate(-52.83 -83.04)"/><path class="cls-36" d="M2075.86,527.66c-.54,2.06-1.11,4.11-1.7,6.12a152.59,152.59,0,0,1-14.54,28.74c-47.45,73.54-60-11.3-69.84-41.74.26.68,18,47.88,46.11,37.48,23.46-8.69,42.15-36.68,48.43-76A340.26,340.26,0,0,1,2075.86,527.66Z" transform="translate(-52.83 -83.04)"/><path class="cls-32" d="M1836.48,383.06a2.87,2.87,0,0,1,3.25-2.5,3,3,0,0,1,2.36,3.45,2.86,2.86,0,0,1-3.25,2.5A3,3,0,0,1,1836.48,383.06Z" transform="translate(-52.83 -83.04)"/><path class="cls-32" d="M1846.25,369.3a1.43,1.43,0,0,1,1.62-1.25,1.49,1.49,0,0,1,1.18,1.72,1.43,1.43,0,0,1-1.62,1.26A1.5,1.5,0,0,1,1846.25,369.3Z" transform="translate(-52.83 -83.04)"/><path class="cls-32" d="M1854.23,389.11a1.44,1.44,0,0,1,1.62-1.26,1.5,1.5,0,0,1,1.18,1.73,1.43,1.43,0,0,1-1.62,1.25A1.49,1.49,0,0,1,1854.23,389.11Z" transform="translate(-52.83 -83.04)"/><path class="cls-9" d="M2064.12,457.47c0,13.15-10,23.81-22.41,23.81s-22.41-10.66-22.41-23.81,10-23.8,22.41-23.8S2064.12,444.33,2064.12,457.47Z" transform="translate(-52.83 -83.04)"/><path class="cls-9" d="M2041.71,501.06c-22.63,0-41-19.55-41-43.59s18.41-43.59,41-43.59,41,19.56,41,43.59S2064.34,501.06,2041.71,501.06Zm0-80.47c-19.15,0-34.73,16.55-34.73,36.88s15.58,36.89,34.73,36.89,34.72-16.55,34.72-36.89S2060.86,420.59,2041.71,420.59Z" transform="translate(-52.83 -83.04)"/><path class="cls-24" d="M2116.17,264.34H1589.8c-5.57,0-10.09-4.8-10.09-10.72h0c0-5.92,4.52-10.72,10.09-10.72h526.37c5.57,0,10.09,4.8,10.09,10.72h0C2126.26,259.54,2121.74,264.34,2116.17,264.34Z" transform="translate(-52.83 -83.04)"/><path class="cls-24" d="M1755.84,429.66H1610.67c-5.58,0-10.09-4.8-10.09-10.72h0c0-5.92,4.51-10.71,10.09-10.71h145.17c5.58,0,10.09,4.79,10.09,10.71h0C1765.93,424.86,1761.42,429.66,1755.84,429.66Z" transform="translate(-52.83 -83.04)"/><path class="cls-24" d="M1755.84,466.4H1610.67c-5.58,0-10.09-4.8-10.09-10.72h0c0-5.91,4.51-10.71,10.09-10.71h145.17c5.58,0,10.09,4.8,10.09,10.71h0C1765.93,461.6,1761.42,466.4,1755.84,466.4Z" transform="translate(-52.83 -83.04)"/><path class="cls-24" d="M1755.84,503.14H1610.67c-5.58,0-10.09-4.8-10.09-10.71h0c0-5.92,4.51-10.72,10.09-10.72h145.17c5.58,0,10.09,4.8,10.09,10.72h0C1765.93,498.34,1761.42,503.14,1755.84,503.14Z" transform="translate(-52.83 -83.04)"/><polygon class="cls-19" points="2479.23 681.94 2503.26 659.27 2522.14 535.8 2479.23 681.94"/><rect class="cls-37" x="52.83" y="1825.5" width="2903.34" height="8.75" rx="2.95" transform="translate(2956.17 3576.7) rotate(180)"/></svg>