<svg xmlns="http://www.w3.org/2000/svg" xmlns:xlink="http://www.w3.org/1999/xlink" viewBox="0 0 1043.68 964.37"><defs><style>.cls-1,.cls-7{fill:none;}.cls-1,.cls-4,.cls-5,.cls-6{opacity:0.25;}.cls-2{isolation:isolate;}.cls-3{clip-path:url(#clip-path);}.cls-4,.cls-5,.cls-8{fill:#62d8d8;}.cls-4{mix-blend-mode:multiply;}.cls-5,.cls-8{mix-blend-mode:overlay;}.cls-7{stroke:#62d8d8;stroke-miterlimit:10;}</style><clipPath id="clip-path" transform="translate(228.98 185.93)"><rect class="cls-1" x="-1" y="1" width="750" height="500"/></clipPath></defs><g class="cls-2"><g id="OBJECTS"><g class="cls-3"><path class="cls-4" d="M231.84,674.78c-7.54-21.61-5.47-45.35-1.48-67.9s9.8-45,9.49-67.89c-.5-37.39-18.42-74.24-47.68-97.52s-69.31-32.45-105.73-24c-23,5.36-44.69,17.33-68.31,18.31-24.26,1-47.31-9.72-71.19-14.1-56.7-10.41-117.47,18.12-149.2,66.25S-237,600.64-213.78,653.4s70.83,93.24,125.34,112S26.74,782,81.43,763.71c26.82-8.93,52.35-21.59,79.54-29.29s57.23-10.12,83.08,1.32l37.55-19.82C258.71,715.3,239.37,696.4,231.84,674.78Z" transform="translate(228.98 185.93)"/><circle class="cls-5" cx="596.53" cy="260.02" r="11.7" transform="translate(206.47 646.55) rotate(-41.51)"/><path class="cls-5" d="M102.37,397.53a5.85,5.85,0,1,1-5.84-5.85A5.84,5.84,0,0,1,102.37,397.53Z" transform="translate(228.98 185.93)"/><path class="cls-5" d="M658,214.59a5.85,5.85,0,1,1-5.85-5.85A5.85,5.85,0,0,1,658,214.59Z" transform="translate(228.98 185.93)"/><g class="cls-6"><path class="cls-7" d="M87.7-11.16c41.56-.05,82.76,19.09,109.53,50.89,23.21,27.58,35.17,62.8,55.08,92.84s53.54,56.4,89,49.8c24.33-4.53,43.67-23.93,55.11-45.88s16.39-46.57,22.52-70.55,13.91-48.32,29.76-67.33c20.1-24.09,52.73-37.09,83.89-33.42" transform="translate(228.98 185.93)"/><path class="cls-7" d="M101.62-12.68A136,136,0,0,1,204.3,35c21.76,25.85,33,58.86,51.63,87s50.19,52.87,83.41,46.68c22.81-4.25,40.93-22.44,51.66-43s15.37-43.66,21.11-66.13,13-45.3,27.9-63.12c18.84-22.58,49.43-34.77,78.64-31.33" transform="translate(228.98 185.93)"/><path class="cls-7" d="M115.54-14.2a126.88,126.88,0,0,1,95.82,44.52c20.31,24.13,30.77,54.94,48.19,81.23s46.84,49.33,77.84,43.56c21.28-4,38.2-20.94,48.21-40.14s14.34-40.74,19.7-61.72,12.17-42.27,26-58.9a84.49,84.49,0,0,1,73.39-29.24" transform="translate(228.98 185.93)"/><path class="cls-7" d="M129.46-15.72a117.81,117.81,0,0,1,89,41.34C237.28,48,247,76.63,263.17,101s43.49,45.81,72.27,40.45c19.76-3.68,35.47-19.44,44.76-37.27s13.32-37.83,18.3-57.3S409.79,7.66,422.67-7.78a78.49,78.49,0,0,1,68.14-27.15" transform="translate(228.98 185.93)"/><path class="cls-7" d="M143.38-17.23a108.7,108.7,0,0,1,82.11,38.15c17.41,20.67,26.37,47.07,41.3,69.6s40.13,42.28,66.7,37.33c18.24-3.4,32.74-17.95,41.31-34.4s12.29-34.91,16.89-52.89S402.11,4.34,414-9.91A72.43,72.43,0,0,1,476.89-35" transform="translate(228.98 185.93)"/></g><g class="cls-6"><path class="cls-7" d="M305,573.54c-6.88-25.1-11.9-52.46-2.28-76.64,12.6-31.68,47.55-49.43,81.4-53.49s67.94,2.65,101.94,5.24,70.41.34,98.44-19.08c38.86-26.94,51.62-79.44,86.69-111.17,29.24-26.45,73.38-35.17,110.48-21.83" transform="translate(228.98 185.93)"/><path class="cls-7" d="M330.76,573.54c-6.51-23.75-11.25-49.62-2.16-72.5,11.92-30,45-46.76,77-50.6S469.88,453,502,455.39s66.61.33,93.12-18c36.76-25.49,48.83-75.15,82-105.17,27.67-25,69.42-33.27,104.52-20.65" transform="translate(228.98 185.93)"/><path class="cls-7" d="M356.51,573.54c-6.13-22.39-10.61-46.79-2-68.36,11.23-28.26,42.41-44.09,72.6-47.71s60.6,2.36,90.93,4.67,62.8.31,87.8-17c34.67-24,46-70.85,77.32-99.15,26.09-23.6,65.46-31.38,98.55-19.48" transform="translate(228.98 185.93)"/><path class="cls-7" d="M382.26,573.54c-5.76-21-10-44-1.91-64.22,10.56-26.55,39.84-41.42,68.21-44.82s56.93,2.22,85.42,4.39,59,.29,82.48-16c32.57-22.57,43.26-66.57,72.64-93.15,24.5-22.17,61.49-29.48,92.58-18.29" transform="translate(228.98 185.93)"/><path class="cls-7" d="M408,573.54c-5.39-19.68-9.32-41.12-1.79-60.08,9.88-24.84,37.28-38.75,63.82-41.93s53.26,2.08,79.91,4.1,55.2.28,77.16-14.95c30.47-21.12,40.47-62.28,68-87.15C718,352.79,752.6,346,781.68,356.42" transform="translate(228.98 185.93)"/></g><g class="cls-6"><path class="cls-7" d="M-8.43,200.63c-5,17.49,3.92,36.39,16.88,49.15s29.56,21,44.8,30.94,30,22.57,35.76,39.82c10.26,30.69-10.69,61.93-20.68,92.71-15.12,46.57-3.34,100.87,29.72,137" transform="translate(228.98 185.93)"/><path class="cls-7" d="M-20.29,204.24c-5,17.49,3.92,36.38,16.88,49.14s29.55,21,44.8,30.94,30,22.58,35.76,39.83c10.26,30.69-10.69,61.93-20.68,92.71-15.12,46.57-3.34,100.87,29.72,137" transform="translate(228.98 185.93)"/><path class="cls-7" d="M-32.16,207.85c-5,17.48,3.92,36.38,16.89,49.14s29.55,21,44.8,30.94,30,22.58,35.75,39.83c10.27,30.69-10.69,61.93-20.68,92.71-15.11,46.57-3.33,100.87,29.72,137" transform="translate(228.98 185.93)"/><path class="cls-7" d="M-44,211.46c-5,17.48,3.92,36.38,16.88,49.14s29.56,21,44.8,30.94,30,22.58,35.76,39.83c10.26,30.69-10.69,61.93-20.68,92.71C17.62,470.65,29.4,525,62.46,561.07" transform="translate(228.98 185.93)"/></g><g class="cls-6"><path class="cls-7" d="M574.83-185.86c2.54,18,18.41,31.63,35.44,38s35.56,7.16,53.52,10,36.58,8.4,48.88,21.8C734.55-92.2,728.14-55.14,731.55-23c5.17,48.7,38.05,93.48,83,113" transform="translate(228.98 185.93)"/><path class="cls-7" d="M565.47-177.73c2.54,18,18.4,31.63,35.44,38s35.55,7.16,53.52,10,36.58,8.4,48.88,21.8C725.18-84.07,718.77-47,722.19-14.83c5.17,48.7,38,93.48,82.95,113" transform="translate(228.98 185.93)"/><path class="cls-7" d="M556.11-169.6c2.53,18,18.4,31.63,35.43,38s35.56,7.16,53.52,10,36.59,8.4,48.88,21.8c21.88,23.85,15.47,60.91,18.88,93.09,5.17,48.69,38,93.48,83,113" transform="translate(228.98 185.93)"/><path class="cls-7" d="M546.74-161.47c2.54,18,18.4,31.63,35.44,38s35.55,7.16,53.52,10,36.58,8.39,48.88,21.8C706.45-67.81,700-30.75,703.46,1.43c5.17,48.69,38,93.48,82.95,113" transform="translate(228.98 185.93)"/></g><path class="cls-5" d="M138,399.53a5.85,5.85,0,1,1-5.85-5.85A5.84,5.84,0,0,1,138,399.53Z" transform="translate(228.98 185.93)"/><path class="cls-5" d="M584.12,317a5.85,5.85,0,1,1-5.85-5.85A5.84,5.84,0,0,1,584.12,317Z" transform="translate(228.98 185.93)"/><path class="cls-8" d="M-70.89,328.9a5.85,5.85,0,0,1-5.85,5.85,5.85,5.85,0,0,1-5.85-5.85,5.85,5.85,0,0,1,5.85-5.85A5.85,5.85,0,0,1-70.89,328.9Z" transform="translate(228.98 185.93)"/></g></g></g></svg>