<svg xmlns="http://www.w3.org/2000/svg" xmlns:xlink="http://www.w3.org/1999/xlink" viewBox="0 0 1633.39 1973.7"><defs><style>.cls-1{fill:none;}.cls-1,.cls-4{opacity:0.25;}.cls-2{isolation:isolate;}.cls-3{clip-path:url(#clip-path);}.cls-10,.cls-11,.cls-12,.cls-13,.cls-14,.cls-15,.cls-16,.cls-17,.cls-18,.cls-19,.cls-20,.cls-21,.cls-22,.cls-23,.cls-24,.cls-25,.cls-26,.cls-27,.cls-5,.cls-7,.cls-8,.cls-9{mix-blend-mode:multiply;}.cls-5{opacity:0;}.cls-6{fill:#00adb5;}.cls-7{opacity:0.05;}.cls-8{opacity:0.1;}.cls-9{opacity:0.14;}.cls-10{opacity:0.19;}.cls-11{opacity:0.24;}.cls-12{opacity:0.29;}.cls-13{opacity:0.33;}.cls-14{opacity:0.38;}.cls-15{opacity:0.43;}.cls-16{opacity:0.48;}.cls-17{opacity:0.52;}.cls-18{opacity:0.57;}.cls-19{opacity:0.62;}.cls-20{opacity:0.67;}.cls-21{opacity:0.71;}.cls-22{opacity:0.76;}.cls-23{opacity:0.81;}.cls-24{opacity:0.86;}.cls-25{opacity:0.9;}.cls-26{opacity:0.95;}</style><clipPath id="clip-path" transform="translate(260.61 392.36)"><rect class="cls-1" x="-23.51" y="-8" width="1203.23" height="1025.21"/></clipPath></defs><g class="cls-2"><g id="Layer_1" data-name="Layer 1"><g class="cls-3"><g class="cls-4"><g class="cls-5"><path class="cls-6" d="M293,1581.34l-2.31-.87c29.13-171.17,2.47-364.58-69.59-504.74S30.67,846.94-87.75,844.42c-8.91-.19-18,.07-26.81.32-20.09.58-40.87,1.17-61.07-3.55-33.61-7.86-60.71-31.43-74.36-64.68-26.62-64.84.29-152.59,42.12-193.86,37.53-37,83.46-47.31,127.88-57.27,5-1.13,10-2.25,15-3.41,47.55-11.05,100.68-29.72,134.18-84.4C97.47,391.49,107.77,327,117.74,264.73c11.22-70.2,22.83-142.79,60.4-187.31C213.84,35.11,266.78,26.25,340,50.3c7.46,2.46,15,5.06,22.49,7.68,47.07,16.36,95.75,33.27,141.92,14.28C563.16,48.08,609.31-36.72,616.63-134c6.73-89.52-17.58-184.92-65-255.21l1.68-2.52c48,71,72.54,167.54,65.73,258.12C611.58-34.92,564.71,51.13,505,75.69c-46.75,19.22-95.73,2.21-143.09-14.25-7.52-2.61-15-5.21-22.47-7.66C267,30,214.73,38.61,179.63,80.21,142.7,124,131.7,192.74,120.06,265.55,110,328.31,99.65,393.21,71,440c-34,55.49-87.62,74.37-135.58,85.52q-7.5,1.74-15,3.41c-44.17,9.9-89.83,20.14-126.92,56.72-40.91,40.36-67.31,125.94-41.41,189,13.29,32.36,39.79,55.33,72.7,63,20,4.68,40.67,4.08,60.65,3.51,8.82-.25,17.94-.51,26.89-.32C-28.88,842.11,30.92,864.27,85.22,905s101.93,99,137.73,168.62,61.18,153.35,73.42,242.11S307.43,1496.3,293,1581.34Z" transform="translate(260.61 392.36)"/></g><g class="cls-7"><path class="cls-6" d="M271.94,1580.81l-2.31-.92c27.13-150,12.63-313.2-39.78-447.67-6.28-16.09-13.13-31.79-20.37-46.66C157,977.64,76.13,897.42-12.35,865.47A259.73,259.73,0,0,0-87,850.13c-8.84-.47-17.87-.47-26.6-.48-19.49,0-39.65,0-59.27-5-19.26-4.9-54.36-19.71-73.11-63.87-27.33-64.41-2.31-148.91,36.55-190.25,35.76-38,80.65-50.23,124.07-62,4-1.09,8-2.17,12-3.27,48.65-13.3,98.24-32.9,131.38-85.87,27.78-44.56,38.91-106.19,49.68-165.79,12.3-68.11,25-138.55,63-181,25.76-28.76,60.57-41.17,106.42-37.89,17.08,1.21,35.61,4.41,56.67,9.76,5.84,1.47,11.67,3,17.48,4.52,10.72,2.8,21.8,5.7,32.47,8.11C417.24,84.8,453,90.79,489,72.67c2.19-1.1,4.39-2.31,6.55-3.59C526.15,51,554.23,16.8,574.64-27.15a339.06,339.06,0,0,0,29.07-105.91c1.31-12.26,2-24.84,2.12-37.42.74-78.32-23.1-160.08-63.77-218.7l1.66-2.56c41.14,59.3,65.25,142,64.49,221.31-.1,12.74-.82,25.5-2.14,37.92A343.74,343.74,0,0,1,576.6-25.12C555.93,19.39,527.46,54,496.44,72.38c-2.19,1.3-4.43,2.54-6.67,3.67-36.52,18.37-72.61,12.32-106.44,4.57-10.69-2.41-21.79-5.32-32.52-8.13-5.8-1.52-11.63-3-17.47-4.51-21-5.33-39.4-8.51-56.38-9.71-45.27-3.2-79.58,8.94-104.88,37.18-37.31,41.66-49.36,108.39-62.12,179-10.84,60-22,122.08-50.24,167.29C26.11,495.5-23.92,515.31-73,528.71c-4,1.1-8,2.18-12,3.27-43.16,11.71-87.79,23.82-123.11,61.41C-246.18,634-269.71,718.16-244,778.83c18.25,43,52.62,57.47,71.49,62.26,19.43,4.95,39.48,5,58.87,5,8.75,0,17.8,0,26.68.48A261.37,261.37,0,0,1-11.78,862c89,32.15,170.36,112.86,223.2,221.45,7.28,15,14.18,30.78,20.49,47C284.64,1265.72,299.23,1429.87,271.94,1580.81Z" transform="translate(260.61 392.36)"/></g><g class="cls-8"><path class="cls-6" d="M250.92,1580.28l-2.3-1c28.06-146.16,16.48-305.75-31.79-437.83-5.79-15.86-12.16-31.37-18.92-46.09C148.76,988.15,71.64,907.17-13.66,873.21a254.1,254.1,0,0,0-72.59-17.38c-8.78-.74-17.75-1-26.43-1.31-18.88-.61-38.4-1.24-57.43-6.5-18.77-5.17-53.06-20.24-71.85-63.06-27.17-61.89-5.08-145.06,31-186.63,34.42-39.69,78.94-53.88,122-67.6l7.14-2.28c47.53-15.24,96-36.37,128.58-87.34C74,398.1,86,339.3,97.51,282.43c13.41-66.05,27.27-134.36,65.65-174.65,33.74-35.41,77.57-37.54,107.6-36.07a447,447,0,0,1,56.75,6.94l6.58,1.15c14.72,2.57,28.63,5,42.07,6.72C411.41,91,441,92.88,473.63,73.09c2.05-1.24,4.14-2.61,6.2-4,29.5-20.46,58.32-56.16,79.07-97.93a333.91,333.91,0,0,0,31.9-103.26c1.64-11.88,2.73-24.29,3.21-36.9,3-78.32-20.54-162.68-61.48-220.13l1.64-2.6c41.43,58.16,65.28,143.58,62.22,222.94-.49,12.77-1.58,25.36-3.25,37.41A338.65,338.65,0,0,1,560.82-26.77c-21,42.23-50.13,78.33-80,99-2.1,1.46-4.22,2.85-6.31,4.12-33.15,20.09-63,18.21-98.57,13.68-13.48-1.72-27.4-4.16-42.15-6.74l-6.58-1.15c-21.45-3.84-40-6.1-56.55-6.91-29.69-1.46-73,.62-106.14,35.43C126.83,150.28,113.7,215,99.8,283.46c-11.63,57.26-23.64,116.47-51.35,160.1-33,51.67-81.9,73-129.81,88.37l-7.14,2.28c-42.8,13.64-87.05,27.74-121,66.94C-244.74,641.75-266.38,722.82-240,783c18.3,41.7,51.89,56.43,70.28,61.5,18.85,5.2,38.27,5.83,57.05,6.44,8.7.28,17.7.57,26.52,1.32A255.85,255.85,0,0,1-13,869.77C72.8,904,150.41,985.45,199.88,1093.37c6.81,14.82,13.21,30.43,19.05,46.39C267.49,1272.66,279.15,1433.22,250.92,1580.28Z" transform="translate(260.61 392.36)"/></g><g class="cls-9"><path class="cls-6" d="M229.9,1579.75l-2.28-1c29-142.36,20.32-298.36-23.8-428-5.33-15.63-11.2-30.94-17.48-45.51C139.88,997.06,68.38,917.42-15,881A249.15,249.15,0,0,0-85.5,861.54c-8.73-1-17.67-1.61-26.32-2.18-18.24-1.19-37.11-2.42-55.54-7.92-18.28-5.45-51.76-20.78-70.58-62.25-27.34-60.2-8.57-140.33,25.37-183,33-41.53,75.29-57.14,120-73.67l2.22-.82C-47,515.68,2,494.28,35.46,442.88c26.92-41.41,39.64-97.45,51.93-151.64,15.19-66.92,29.53-130.12,68.28-168.27C188.11,91,228.86,87.72,264.44,88.72c19.55.52,38.79,2.31,56.83,4.1,19.43,1.93,34.48,2.92,47.36,3.13,34.59.55,59.52-.7,89.62-22.43,1.94-1.41,3.9-2.91,5.86-4.5C493.19,45.56,522,9.24,543.17-30.64a335,335,0,0,0,34.72-100.6,362,362,0,0,0,4.31-36.37c5.44-79.3-17.24-164.2-59.2-221.58l1.61-2.62c42.5,58.12,65.48,144.16,60,224.56a366.2,366.2,0,0,1-4.37,36.89A339.06,339.06,0,0,1,545-28.43c-21.35,40.24-50.44,76.9-79.79,100.57q-3,2.43-6,4.59c-30.57,22.06-55.77,23.33-90.69,22.78-12.92-.21-28-1.21-47.49-3.14-18-1.79-37.22-3.57-56.71-4.09-35.22-1-75.52,2.26-107.41,33.66-38.07,37.48-52.29,100.12-67.34,166.44-12.38,54.56-25.18,111-52.48,153C3.32,497.44-46.09,519-89.75,535.15L-92,536c-44.46,16.42-86.46,31.94-119.06,72.93-33.13,41.67-51.52,119.75-24.94,178.3,18.35,40.41,51.16,55.41,69.08,60.75,18.25,5.44,37,6.67,55.18,7.85,8.66.57,17.63,1.15,26.4,2.19a250.71,250.71,0,0,1,71,19.55c83.9,36.7,155.88,116.87,202.65,225.74,6.32,14.67,12.24,30.08,17.6,45.82C250.35,1279.56,259.08,1436.53,229.9,1579.75Z" transform="translate(260.61 392.36)"/></g><g class="cls-10"><path class="cls-6" d="M208.88,1579.23l-2.27-1.09c29.95-138.62,24.19-291-15.81-418.19-4.85-15.39-10.24-30.51-16-44.94C131.73,1007.51,63.87,927.13-16.29,888.69a244.67,244.67,0,0,0-68.46-21.45c-8.7-1.34-17.62-2.23-26.24-3.08-17.6-1.76-35.81-3.57-53.61-9.31-30.73-9.88-55.35-31.69-69.33-61.43-28.15-59.9-10.81-137.13,19.79-179.39,31.72-43.77,76.15-62.54,115.36-79.1,44.33-18.71,90.34-41.1,123-90.28,26.43-39.8,39.89-93,52.91-144.42,16.41-64.8,31.9-126,71.07-162.08,33-30.36,74-32.68,109.94-32.43,12.65.07,25.28.43,37.49.77,6.64.2,13.14.38,19.42.51a361.74,361.74,0,0,0,46.05-1.61C393.15,101.9,414.66,98,442.86,74q2.73-2.35,5.52-5c29.14-27.17,58-64.12,79.06-101.38,18.12-32,30.75-64.94,37.54-98a345.27,345.27,0,0,0,5.41-35.85c7.82-78.95-14.52-166.48-56.92-223l1.59-2.66c43,57.31,65.63,146.09,57.69,226.19a352.19,352.19,0,0,1-5.49,36.37c-6.88,33.48-19.66,66.86-38,99.2C508,7.45,479,44.66,449.65,72q-2.82,2.64-5.6,5c-28.65,24.46-50.39,28.36-82.8,31.9A366.91,366.91,0,0,1,315,110.56c-6.27-.13-12.78-.31-19.43-.51-12.2-.34-24.82-.71-37.45-.77-35.57-.21-76.24,2-108.67,31.9C111,176.61,95.6,237.27,79.35,301.49,66.24,353.27,52.68,406.81,25.9,447.16c-33,49.79-79.4,72.35-124,91.2-39,16.45-83.09,35.09-114.38,78.29-29.87,41.22-46.84,116.47-19.46,174.73a112.4,112.4,0,0,0,67.87,60c17.64,5.68,35.75,7.49,53.27,9.23,8.64.87,17.58,1.76,26.32,3.1a246.31,246.31,0,0,1,69,21.6c80.71,38.71,149,119.64,192.39,227.89,5.82,14.52,11.25,29.75,16.13,45.24C233.21,1286.39,239,1439.77,208.88,1579.23Z" transform="translate(260.61 392.36)"/></g><g class="cls-11"><path class="cls-6" d="M187.86,1578.7l-2.26-1.15c30.92-134.93,28.07-283.78-7.81-408.37-4.39-15.19-9.29-30.11-14.58-44.35-39.62-106.9-103.83-188-180.82-228.41A240.8,240.8,0,0,0-84,873c-8.69-1.67-17.6-2.88-26.22-4.05-17-2.3-34.47-4.68-51.63-10.63a118.44,118.44,0,0,1-68.06-60.62c-28.23-58-14.23-132.32,14.2-175.75,28-42.77,65.69-63.22,108.46-83.72C-69,519.86-21.4,497.06,13,446.42,38.83,408.26,53,358,66.71,309.32c17.68-62.73,34.37-122,74-156,31.71-27.23,70.65-30,111.11-30.62l7.12-.11c16.89-.25,34.36-.52,49.85-1.42a249.14,249.14,0,0,0,44.74-6.34c27.93-7,46.45-12.67,74-40.42,1.71-1.73,3.43-3.54,5.18-5.44C450.48,49.86,484.45,11,511.71-34.12c19.44-32.18,32.65-63.36,40.37-95.31a332.27,332.27,0,0,0,6.5-35.32c10.21-78.48-11.75-168.68-54.64-224.45l1.57-2.68c44.19,57.45,65.94,146.87,55.41,227.8a334.61,334.61,0,0,1-6.6,35.87c-7.82,32.38-21.18,63.94-40.83,96.47C486.07,13.67,452,52.67,434.05,71.88c-1.77,1.91-3.51,3.75-5.24,5.49-27.91,28.17-46.64,33.93-74.89,41a250.06,250.06,0,0,1-45,6.38c-15.53.91-33,1.17-49.92,1.43l-7.13.11c-40.13.6-78.73,3.35-109.94,30.14-38.92,33.41-55.46,92.12-73,154.28-13.8,49-28.06,99.59-54.29,138.25-34.74,51.24-84.68,75.16-121.14,92.62C-149,561.92-186.39,582.2-214,624.39c-27.73,42.36-41.44,114.75-14,171.17a115.86,115.86,0,0,0,66.67,59.24c17,5.89,34.44,8.26,51.3,10.56,8.65,1.17,17.58,2.38,26.31,4.06a242.68,242.68,0,0,1,66.88,23.64c77.54,40.68,142.22,122.38,182.12,230,5.33,14.35,10.26,29.38,14.68,44.68C216.09,1293.17,219,1442.94,187.86,1578.7Z" transform="translate(260.61 392.36)"/></g><g class="cls-12"><path class="cls-6" d="M166.84,1578.18,164.6,1577c32.36-133.26,32.42-274.81.17-398.56-3.91-15-8.33-29.68-13.13-43.77C115.48,1028.31,54.91,946.46-18.93,904.15a237.85,237.85,0,0,0-64.33-25.5c-8.69-2-17.63-3.57-26.27-5.07-16.26-2.83-33.07-5.75-49.57-11.9a122.34,122.34,0,0,1-66.79-59.8c-29.31-58.12-16.08-130,8.61-172.11,26.44-45.14,64.67-68.39,101.57-88.33l1.17-.64c39-21.07,83.2-45,116.23-92.61C27,411.71,41.81,364.34,56.16,318.53c19-60.7,37-118,77.05-150,32.55-26,72.36-27.38,110.86-28.75l1.42-.06c23.88-.87,42-2.26,57.05-4.34,16.3-2.26,31.31-6.08,43.41-11.06,27.59-11.32,41.73-20.5,66.14-49.43q2.37-2.82,4.84-5.9l3.52-4.34C443.77,35.94,472.79.22,496-35.86c20.58-32,34.71-62.3,43.18-92.65a310,310,0,0,0,7.6-34.81c12.78-79.16-8.26-169.93-52.36-225.88l1.54-2.71c44.77,56.79,66.13,149,53.14,229.43a316.81,316.81,0,0,1-7.71,35.34c-8.59,30.76-22.88,61.42-43.67,93.74-23.3,36.23-52.37,72-75.74,100.8l-3.52,4.33c-1.66,2.06-3.28,4-4.88,6-24.73,29.31-39.05,38.61-67,50.08-12.24,5-27.39,8.89-43.83,11.16-15.1,2.09-33.28,3.48-57.21,4.36l-1.42.05c-38.22,1.37-77.75,2.78-109.79,28.33-39.4,31.42-57.19,88.23-76,148.38-14.43,46.1-29.36,93.77-55,130.71C-30,498.92-74.5,523-113.72,544.15l-1.18.63c-36.6,19.79-74.52,42.83-100.58,87.33-24.08,41.11-37,111.1-8.51,167.63a119.87,119.87,0,0,0,65.47,58.49c16.35,6.09,33.08,9,49.26,11.81,8.67,1.51,17.63,3.07,26.37,5.09a239.85,239.85,0,0,1,64.82,25.7C56.32,943.45,117.34,1025.91,153.77,1133c4.84,14.2,9.29,29,13.22,44.1C199.46,1301.68,199.4,1444.1,166.84,1578.18Z" transform="translate(260.61 392.36)"/></g><g class="cls-13"><path class="cls-6" d="M145.82,1577.65l-2.23-1.27c33.39-129.7,36.29-267.75,8.16-388.74-3.42-14.71-7.36-29.25-11.68-43.2C107.39,1038.66,50.46,956.07-20.25,911.88a235.26,235.26,0,0,0-62.26-27.53c-8.72-2.39-17.71-4.31-26.4-6.17-15.55-3.33-31.63-6.77-47.43-13.09a125.41,125.41,0,0,1-65.54-59c-29.22-55.9-19.54-124.89,3-168.45,22.24-42.94,53.93-68.22,94.68-93l6.25-3.78c36-21.78,76.82-46.46,108.36-90.95,24.64-34.74,40.07-79.13,55-122.06,20.41-58.73,39.68-114.21,80.32-144.19,30.78-22.71,67.74-24.61,103.48-26.45,3.33-.17,6.65-.34,10-.53,22.1-1.28,41.32-3.69,57.12-7.16,16.2-3.55,30.75-9,42.08-15.74,24.79-14.75,35.24-26.33,58.32-58.46,1.07-1.49,2.15-3,3.26-4.6L401.21,69c9.87-14,21.47-29.18,33.75-45.23C450.31,3.71,466.19-17,480.26-37.6c22.13-32.32,36.75-60.91,46-90a296.89,296.89,0,0,0,8.7-34.28c15.17-78.54-5.43-172-50.09-227.33l1.52-2.73c45.37,56.18,66.29,151.19,50.86,231.05a301.12,301.12,0,0,1-8.83,34.82c-9.39,29.48-24.17,58.4-46.5,91-14.12,20.63-30,41.41-45.4,61.51-12.26,16-23.84,31.16-33.68,45.12l-1.25,1.78c-1.11,1.58-2.2,3.13-3.27,4.62-23.33,32.49-33.92,44.2-59.06,59.16-11.51,6.85-26.25,12.37-42.62,16-15.89,3.48-35.19,5.9-57.38,7.19l-10,.53c-35.49,1.82-72.19,3.71-102.5,26.08-39.94,29.47-59,84.44-79.26,142.64-15,43.19-30.52,87.85-55.46,123C-39.8,497.49-80.83,522.31-117,544.21l-6.24,3.78c-40.39,24.53-71.78,49.53-93.69,91.84-22,42.48-31.46,109.69-3,164.09a122.9,122.9,0,0,0,64.26,57.73c15.67,6.27,31.68,9.69,47.16,13,8.71,1.87,17.72,3.8,26.49,6.2A236.91,236.91,0,0,1-19.33,908.6C51.93,953.13,109.31,1036.36,142.24,1143c4.35,14.06,8.32,28.7,11.77,43.52C182.31,1308.25,179.41,1447.18,145.82,1577.65Z" transform="translate(260.61 392.36)"/></g><g class="cls-14"><path class="cls-6" d="M124.8,1577.13l-2.21-1.34c34.43-126.22,40.17-260.8,16.15-378.93-3-14.48-6.4-28.82-10.24-42.63C99.33,1049,46,965.65-21.57,919.61a233.1,233.1,0,0,0-60.2-29.56c-8.78-2.8-17.84-5.12-26.6-7.36-14.82-3.8-30.14-7.72-45.22-14.18a130.84,130.84,0,0,1-64.27-58.17c-31-57.13-20.75-124.48-2.57-164.79,21.67-48.06,55-75.31,87.78-97.6q5.58-3.8,11.37-7.66C-88.23,518.11-50.76,493-20.82,451.73,3.09,418.79,19,377.44,34.42,337.45,56.32,280.61,77,226.92,118.24,198.9c29.24-19.87,63.74-22,97.09-24,5.85-.35,11.7-.71,17.53-1.16,21.38-1.67,41.16-5.11,57.2-10s30.26-11.93,40.75-20.42c19.4-15.7,26.88-28.17,41.78-53,2.65-4.42,5.52-9.22,8.73-14.48L385.49,69c13.72-22.34,32.72-47.19,51.09-71.21,9.38-12.27,19.08-24.95,27.95-37.14,16-22,36.07-51.82,48.85-87.35a281.84,281.84,0,0,0,9.79-33.76c17.82-79.08-1.84-173.15-47.82-228.76l1.5-2.77c46.74,56.53,66.72,152.2,48.58,232.67A285,285,0,0,1,515.48-125c-12.94,36-33.16,66.09-49.33,88.28-8.89,12.21-18.6,24.91-28,37.19-18.33,24-37.28,48.75-50.91,70.94l-4.16,6.84c-3.21,5.25-6.08,10-8.72,14.45-14.61,24.36-22.66,37.78-42.43,53.78-10.69,8.66-25,15.84-41.41,20.78-16.15,4.88-36,8.34-57.54,10-5.84.44-11.7.8-17.56,1.16-33.13,2-67.38,4.11-96.2,23.69-40.54,27.55-61,80.75-82.74,137.08C21,379.45,5,421-19.2,454.35-49.43,496-87.08,521.24-120.3,543.54q-5.78,3.87-11.35,7.65c-32.47,22.07-65.46,49-86.8,96.35-17.72,39.3-27.72,104.94,2.45,160.56a128.24,128.24,0,0,0,63.07,57c15,6.41,30.21,10.32,45,14.1,8.79,2.25,17.88,4.58,26.7,7.39a235,235,0,0,1,60.69,29.8c68.16,46.42,121.89,130.41,151.28,236.51,3.87,13.9,7.35,28.35,10.32,42.94C165.2,1314.74,159.44,1450.15,124.8,1577.13Z" transform="translate(260.61 392.36)"/></g><g class="cls-15"><path class="cls-6" d="M103.78,1576.61l-2.19-1.41c35.52-122.87,44.1-254,24.14-369.13-2.49-14.28-5.45-28.43-8.8-42C91.31,1059.27,41.65,975.2-22.9,927.33A232.25,232.25,0,0,0-81,895.75c-8.88-3.26-18.06-6-26.95-8.69-14-4.22-28.55-8.58-42.86-15.14-18.87-8.63-45.12-25.58-63-57.35-30.73-54.6-24.37-119-8.16-161.11,15.56-40.43,39.75-71,80.88-102.25,5.39-4.09,11-8.2,16.66-12.41,30.1-22.23,64.22-47.43,92.38-85.3C-9,422.45,7.33,384.21,23.12,347.23c23.49-55.05,45.68-107,87.64-133.14,27.88-17.34,60.21-19.46,91.47-21.51,8-.52,16.24-1.06,24.32-1.84,21.2-2.09,41-6.5,57.27-12.76s29.82-14.89,39.42-25.07c14.22-15.09,20.09-28.12,28.21-46.15,3.92-8.68,8.35-18.53,14.5-30.41l.29-.58c1.13-2.18,2.3-4.44,3.53-6.74,15.81-29.56,40.39-60.84,64.16-91.09,5.06-6.43,10.05-12.79,14.87-19,19-24.55,38.44-51.8,51.68-84.69A264.66,264.66,0,0,0,511.37-159c20.21-78.32,1-175.14-45.56-230.21L467.3-392c47.4,56,66.87,154.55,46.3,234.28a269.78,269.78,0,0,1-11.07,33.8c-13.42,33.31-33,60.8-52.16,85.54-4.83,6.24-9.83,12.6-14.89,19C411.79,10.79,387.3,42,371.64,71.24c-1.23,2.3-2.39,4.54-3.51,6.71l-.29.57c-6.1,11.8-10.51,21.59-14.4,30.23-8.27,18.34-14.24,31.59-28.82,47.06-9.83,10.42-23.73,19.29-40.2,25.62s-36.37,10.76-57.72,12.86c-8.1.78-16.37,1.33-24.37,1.85-31.05,2-63.16,4.14-90.65,21.24-41.26,25.67-63.26,77.2-86.55,131.75-15.87,37.19-32.28,75.65-55.61,107-28.4,38.2-62.68,63.52-92.92,85.85-5.69,4.2-11.25,8.31-16.63,12.39-40.69,30.9-64.59,61.06-79.9,100.85-15.81,41-22,103.86,7.92,157,17.51,31.11,43.31,47.75,61.87,56.23,14.2,6.51,28.65,10.86,42.63,15.06,8.91,2.68,18.13,5.45,27.05,8.72a234,234,0,0,1,58.63,31.86c65.09,48.27,115.17,133,141,238.66,3.38,13.72,6.36,28,8.87,42.37C148.13,1321.11,139.51,1453,103.78,1576.61Z" transform="translate(260.61 392.36)"/></g><g class="cls-16"><path class="cls-6" d="M82.75,1576.09l-2.17-1.48c36.67-119.64,48.09-247.25,32.13-359.32-2-14-4.48-28-7.34-41.47C83.32,1069.52,37.3,984.73-24.22,935.06a231.66,231.66,0,0,0-56.07-33.62c-9-3.76-18.35-7-27.39-10.15-13.22-4.59-26.9-9.34-40.41-16-18.32-9-43.89-26-61.73-56.53-30.56-52.26-27.14-115.58-13.76-157.42s36.25-75,74-106.9c7.07-6,14.4-11.9,22.16-18.16,27.15-21.89,57.91-46.7,84.1-81.05,22.14-29,38.71-64.09,54.73-98,25.24-53.37,49.07-103.78,91.88-128,26.63-15.07,57-17.07,86.4-19,10-.66,20.41-1.34,30.55-2.53,21.17-2.51,41-7.88,57.35-15.55s29.39-17.87,38.1-29.71C327,147,331.11,133.73,336.26,116.92a351.13,351.13,0,0,1,14.32-40.06c1.09-2.53,2.24-5.14,3.48-7.81C371,32.61,402-5,429.31-38.23l3.77-4.58c19.72-24,40.18-50,54.51-82a248.5,248.5,0,0,0,12-32.71c22.56-77.51,3.95-177.11-43.29-231.66l1.46-2.82c48.08,55.53,67,156.94,44,235.89a252.72,252.72,0,0,1-12.19,33.28c-14.51,32.41-35.12,58.69-55,82.82l-3.78,4.58C403.6-2.42,372.75,35.05,356,71.07c-1.23,2.65-2.37,5.23-3.45,7.72a349.69,349.69,0,0,0-14.15,39.61c-5.26,17.18-9.42,30.76-21.15,46.71-9,12.19-22.44,22.73-39,30.48s-36.54,13.17-57.88,15.7c-10.19,1.19-20.58,1.88-30.64,2.54-30.53,2-59.38,3.91-85.66,18.78C62,256.45,38.37,306.43,13.35,359.34c-16.1,34.06-32.76,69.28-55.11,98.6-26.39,34.62-57.28,59.53-84.53,81.51-7.75,6.25-15.07,12.16-22.12,18.13-37.29,31.57-59.81,64-73,105.33-13.06,40.82-16.4,102.59,13.4,153.55,17.48,29.89,42.64,46.67,60.67,55.48,13.41,6.58,27,11.31,40.22,15.89,9.06,3.15,18.43,6.4,27.49,10.19a233.7,233.7,0,0,1,56.56,33.91C39,982,85.41,1067.57,107.64,1172.75c2.89,13.57,5.38,27.64,7.41,41.8C131.11,1327.36,119.64,1455.76,82.75,1576.09Z" transform="translate(260.61 392.36)"/></g><g class="cls-17"><path class="cls-6" d="M61.73,1575.57,59.58,1574c38.43-118.25,52.31-239.11,40.13-349.53-1.54-13.81-3.53-27.57-5.91-40.89C75.37,1079.76,33,994.23-25.55,942.77a232.87,232.87,0,0,0-54-35.64c-9.18-4.33-18.73-8.12-28-11.79-12.38-4.91-25.17-10-37.82-16.6-25.49-13.31-46.39-32.57-60.46-55.71-38.31-63-24.49-133.59-19.34-153.72,11.25-44,31.94-78.42,67.08-111.56,8.76-8.26,18.09-16.41,28-25,24.15-21.09,51.52-45,75.5-75.67,21-26.89,37.66-58.64,53.73-89.33C26.3,315.85,52,266.86,95.8,244.48c25.48-13,52.83-14.74,81.79-16.56,11.93-.75,24.27-1.53,36.33-3.18,20.9-2.88,41.29-9.4,57.43-18.33s29-20.87,36.78-34.35c9.51-16.39,12.13-30.81,15.16-47.52,2.42-13.36,5.16-28.5,11.93-47.18,1-2.68,2-5.45,3.14-8.29,15.9-39.63,49.11-79.43,79-113.61,22.75-26,42.77-49.94,57.35-79.39a234,234,0,0,0,13.07-32.19c25.3-77.92,7.66-178.14-41-233.11l1.44-2.84c49.57,56,67.51,158.09,41.73,237.5a240,240,0,0,1-13.3,32.76C461.86-92,441.7-67.9,418.8-41.72c-29.7,34-62.71,73.53-78.39,112.62-1.12,2.79-2.14,5.51-3.09,8.15-6.63,18.32-9.34,33.25-11.73,46.42-3.1,17.13-5.78,31.91-15.66,48.92-8.07,13.93-21.13,26.15-37.75,35.35s-36.64,15.59-58,18.55c-12.12,1.66-24.49,2.43-36.45,3.19-28.78,1.81-56,3.52-81.12,16.37C53.4,269.89,28,318.47,1,369.9-15.12,400.73-31.82,432.62-53,459.74c-24.15,30.87-51.62,54.87-75.85,76-9.86,8.62-19.17,16.75-27.9,25-34.68,32.7-55.07,66.57-66.13,109.82-5,19.65-18.52,88.55,18.88,150.06,13.8,22.7,34.37,41.62,59.48,54.74C-132,882-119.24,887-106.91,891.9c9.27,3.68,18.85,7.48,28.08,11.84a234.19,234.19,0,0,1,54.5,36c59.07,51.93,101.85,138.23,120.44,243,2.4,13.42,4.4,27.3,6,41.22C114.32,1335.06,100.38,1456.66,61.73,1575.57Z" transform="translate(260.61 392.36)"/></g><g class="cls-18"><path class="cls-6" d="M40.7,1575.05l-2.12-1.63C78.32,1458.14,95,1340.67,86.7,1233.7c-1.06-13.58-2.56-27.14-4.46-40.31C67.47,1090,28.72,1003.72-26.87,950.49a234,234,0,0,0-51.94-37.67c-9.41-5-19.25-9.4-28.77-13.67-11.45-5.14-23.29-10.45-35-17-25.08-14-45-32.44-59.19-54.88-37.22-58.83-29.83-124.5-24.92-150C-218,631.9-198.86,595-166.53,561c10.51-11,22.07-21.88,34.31-33.36,22.08-20.71,44.91-42.13,66.38-68.86,19.72-24.56,36.13-52.85,52-80.22,29.32-50.56,57-98.32,102.16-118.92,24.39-11.13,50.18-12.6,77.5-14.16,13.73-.78,27.92-1.59,41.78-3.76,21-3.31,41.39-10.81,57.52-21.13s28.53-23.87,35.48-39c8.14-17.67,9.3-33,10.64-50.76,1.15-15.11,2.44-32.24,8.62-53,1-3.22,1.88-6.09,2.8-8.77,14.73-42.75,49.94-84.11,79-115.37l1.52-1.64c22.07-23.73,42.91-46.16,58.67-75.1A221.51,221.51,0,0,0,476-154.67c27.62-77,10.59-180.05-38.76-234.57l1.42-2.86c50.28,55.55,67.61,160.57,39.44,239.1a224.75,224.75,0,0,1-14.42,32.24C447.7-91.45,426.74-68.9,404.54-45L403-43.39c-28.81,31-63.74,72-78.23,114.11-.91,2.62-1.8,5.43-2.74,8.59-6,20.29-7.26,36.41-8.44,52-1.32,17.47-2.57,34-11,52.38-7.2,15.64-19.83,29.54-36.51,40.22-16.34,10.45-37,18-58.2,21.39-14,2.18-28.18,3-42,3.78-27.16,1.55-52.8,3-76.9,14C44.53,283.37,17.05,330.76-12,380.92-28,408.39-44.44,436.8-64.31,461.54c-21.59,26.88-44.49,48.37-66.63,69.14-12.22,11.46-23.76,22.28-34.22,33.26-32.3,33.91-50.57,69.16-59.25,114.3-4.79,24.91-12,89.08,24.37,146.58,13.94,22,33.55,40.2,58.29,54,11.65,6.51,23.45,11.81,34.86,16.93,9.54,4.28,19.41,8.71,28.88,13.73a236.27,236.27,0,0,1,52.43,38c56.13,53.76,95.26,140.82,110.15,245.15,1.92,13.28,3.43,27,4.5,40.65C97.39,1341,80.66,1459.14,40.7,1575.05Z" transform="translate(260.61 392.36)"/></g><g class="cls-19"><path class="cls-6" d="M19.68,1574.53l-2.1-1.7c41.16-112.5,60.56-226.59,56.11-329.94-.58-13.33-1.6-26.7-3-39.73-11.05-103-46.16-190-98.88-245a236,236,0,0,0-49.88-39.69c-9.7-5.75-19.44-10.66-29.75-15.85-10.47-5.27-21.29-10.71-32-17.11-24.33-14.47-43.81-32.65-57.91-54-36-54.57-34.55-115.08-30.51-146.29,6.11-47.15,23-85.57,53.26-120.89,12.33-14.42,26.47-28.52,41.43-43.44,18.65-18.6,37.92-37.83,56.47-60.3C-59,438.63-43.15,414-27.84,390.11,4,340.53,34,293.71,80.83,274.87c23.34-9.4,47.68-10.59,73.46-11.84,15.45-.76,31.42-1.54,47-4.27,21.05-3.73,41.51-12.22,57.6-23.91,16.29-11.85,28.11-26.92,34.2-43.6,7-19.16,6.76-36.44,6.52-54.73-.24-17.52-.48-35.63,4.91-58.14.79-3.33,1.6-6.36,2.45-9.26C320.87,21.76,358.67-20.4,385.9-48l6-6c21.25-21.43,41.33-41.68,57.07-68.06a206.48,206.48,0,0,0,15.26-31.15c29.9-76.07,13.53-182-36.49-236l1.4-2.88c51,55.12,67.66,163.11,37.15,240.71a209.21,209.21,0,0,1-15.54,31.71C434.76-93,414.57-72.62,393.19-51.06l-5.95,6C360.26-17.7,322.81,24,309.15,70.55c-.82,2.83-1.61,5.78-2.38,9-5.24,21.9-5,39.68-4.78,56.88.26,18.78.49,36.5-6.8,56.51-6.33,17.33-18.52,32.92-35.26,45.09-16.32,11.86-37.05,20.47-58.36,24.24-15.68,2.76-31.7,3.54-47.2,4.29-25.64,1.25-49.85,2.44-72.91,11.72-46.16,18.59-76,65.06-107.57,114.27-15.36,23.93-31.24,48.68-49.48,70.77-18.64,22.57-38,41.85-56.65,60.49-14.93,14.89-29,29-41.29,43.29-29.75,34.76-46.39,72.5-52.38,118.76-4,30.53-5.34,89.71,29.86,143.12,13.87,21,33.08,39,57.09,53.24,10.67,6.37,21.46,11.8,31.89,17,9.89,5,20.11,10.12,29.88,15.91a238.79,238.79,0,0,1,50.36,40.08c53.25,55.57,88.71,143.4,99.86,247.31,1.43,13.14,2.45,26.62,3,40.08C80.55,1346.68,61.05,1461.44,19.68,1574.53Z" transform="translate(260.61 392.36)"/></g><g class="cls-20"><path class="cls-6" d="M-1.35,1574l-2.06-1.79c43.31-111.5,64.88-219.21,64.1-320.14-.11-13.13-.64-26.31-1.57-39.16-7.28-102.51-38.76-190.24-88.65-247a239.44,239.44,0,0,0-47.81-41.71c-10.09-6.65-20.27-12.36-31-18.4-9.39-5.27-19.09-10.71-28.72-16.83-23.6-15-42.65-32.89-56.63-53.23-36.19-52.67-38.14-111.93-36.07-142.56,3.28-48.78,18-88.68,46.32-125.56C-169.18,549-152,531-133.73,511.85c14.89-15.6,30.29-31.74,45.38-49.51,16.12-19,30.85-39.73,45.1-59.82,34.78-49,67.64-95.32,116.61-112.45,22.28-7.8,46.31-8.72,69.55-9.61,17.12-.66,34.82-1.34,52.07-4.7a133.39,133.39,0,0,0,57.68-26.69c16.31-13.29,27.69-30,32.93-48.23,6-20.84,4.32-39.47,2.56-59.2-1.7-19-3.46-38.76,1-62.76.63-3.34,1.33-6.61,2.1-9.73,9.43-37.94,36-77.93,78.89-118.87q4.95-4.72,9.89-9.36c20.67-19.46,40.19-37.83,56-62.06a196.2,196.2,0,0,0,16.35-30.63c32.69-76.38,17.33-182.92-34.24-237.48l1.39-2.91c52.59,55.65,68.23,164.35,34.86,242.3a200,200,0,0,1-16.65,31.2c-16,24.53-35.62,43-56.41,62.59q-4.93,4.64-9.88,9.34C329-6.21,302.77,33.19,293.52,70.38c-.76,3.07-1.42,6.17-2,9.46-4.36,23.3-2.63,42.63-1,61.33,1.81,20.23,3.51,39.34-2.72,61.07-5.45,19-17.2,36.27-34,49.95a135.16,135.16,0,0,1-58.51,27.1c-17.37,3.38-35.14,4.07-52.32,4.73-24.18.92-47,1.8-69.07,9.51-48.34,16.92-81,62.9-115.51,111.58-14.29,20.14-29.06,41-45.26,60-15.14,17.82-30.57,34-45.49,49.62-18.18,19-35.35,37-49.54,55.53-27.84,36.25-42.31,75.41-45.53,123.23-2,30-.11,88,35.37,139.66,13.76,20,32.57,37.7,55.9,52.5,9.58,6.09,19.26,11.52,28.62,16.77,10.81,6.06,21,11.79,31.17,18.49a241.51,241.51,0,0,1,48.29,42.14c50.41,57.38,82.22,146,89.57,249.47.94,13,1.47,26.25,1.59,39.49C63.86,1353.63,42.18,1462-1.35,1574Z" transform="translate(260.61 392.36)"/></g><g class="cls-21"><path class="cls-6" d="M-22.38,1573.5l-2-1.86c45-109.14,69.3-213.56,72.1-310.36.36-12.89.32-25.87-.13-38.59-3.46-102-31.31-190.5-78.42-249.09a243.58,243.58,0,0,0-45.75-43.73c-10.57-7.74-21.3-14.4-32.66-21.46-8.2-5.09-16.67-10.35-25.08-16-22.91-15.51-41.54-33.14-55.36-52.4-34.78-48.49-41.83-102.26-41.63-138.83.29-50.2,12.8-91.58,39.39-130.23,16.47-23.93,37.6-46.83,60-71.07,10.58-11.46,21.53-23.32,32.37-35.72,13.5-15.43,26.37-31.89,38.81-47.8,38.44-49.15,74.74-95.58,126.67-111,21.23-6.33,43.87-6.91,65.75-7.48,18.77-.49,38.17-1,57-5a127.32,127.32,0,0,0,57.78-29.48c16.31-14.75,27.26-33,31.67-52.87,5-22.62,1.92-42.73-1.37-64-3.16-20.5-6.43-41.7-2.89-67,.49-3.47,1.07-6.91,1.75-10.21C286,18.63,324.23-24.32,354.45-51.45c4.46-4,8.94-7.93,13.39-11.83C388.11-81,407.26-97.81,423.15-120.2a186.74,186.74,0,0,0,17.45-30.11c34.93-75.37,20.29-184.8-32-239l1.37-2.92c53.32,55.25,68.24,167,32.57,243.9a189.8,189.8,0,0,1-17.77,30.68c-16.09,22.67-35.35,39.54-55.74,57.4-4.45,3.9-8.92,7.81-13.37,11.81-29.87,26.81-67.6,69.15-77.8,118.61-.65,3.19-1.22,6.53-1.69,9.9-3.44,24.56-.23,45.37,2.88,65.5,3.36,21.78,6.54,42.36,1.3,65.93-4.58,20.65-15.89,39.6-32.7,54.8a129.19,129.19,0,0,1-58.67,30c-19,4.07-38.49,4.57-57.32,5.06-22.79.59-44.31,1.15-65.34,7.41C15,324-21,370.17-59.23,419-71.7,435-84.59,451.44-98.15,466.94-109,479.36-120,491.23-130.57,502.72c-22.3,24.16-43.37,47-59.71,70.74-26.1,37.93-38.39,78.51-38.67,127.7-.2,35.86,6.72,88.59,40.87,136.2,13.63,19,32,36.41,54.72,51.76,8.37,5.68,16.83,10.93,25,16,11.4,7.08,22.17,13.77,32.81,21.55a246.53,246.53,0,0,1,46.23,44.2C18.3,1030.1,46.45,1119.46,50,1222.51c.45,12.82.49,25.92.13,38.92C47.26,1358.85,22.88,1463.85-22.38,1573.5Z" transform="translate(260.61 392.36)"/></g><g class="cls-22"><path class="cls-6" d="M-43.41,1573l-2-2c47.64-108.53,73.84-206.86,80.11-300.57.83-12.65,1.28-25.44,1.31-38,.42-101.56-23.8-190.75-68.19-251.15a245,245,0,0,0-43.69-45.76c-11.21-9.08-22.68-16.92-34.82-25.21-6.83-4.68-13.9-9.51-20.91-14.58-22.61-16.31-40.3-33.19-54.08-51.57-35.41-47.23-45.2-99.54-47.18-135.1-2.86-51.39,7.45-94.25,32.44-134.88,19-31,45.52-60,73.54-90.69q7.95-8.72,16-17.64c9.92-11,19.71-22.44,29.19-33.51C-38.5,381.94,2.26,334.31,58.4,320.47c20.15-5,41.41-5.21,62-5.45,20.4-.24,41.5-.48,62-5.25a122.79,122.79,0,0,0,57.86-32.25c16.33-16.24,26.85-36.13,30.43-57.53,4.09-24.49-.48-46.13-5.31-69-4.63-21.89-9.4-44.52-6.81-71.09.34-3.55.81-7.15,1.4-10.68,9-53.72,47.81-96.19,78.8-122.37,5.52-4.65,11.07-9.17,16.6-13.66,20-16.26,38.91-31.61,54.94-52.42a177.48,177.48,0,0,0,18.55-29.59c17.39-34.83,24.46-80.56,19.4-125.47-5.27-46.72-23.17-88.62-49.12-115l1.34-2.94c26.49,26.88,44.76,69.64,50.13,117.32,5.17,45.85-2.06,92.57-19.84,128.18a180.94,180.94,0,0,1-18.89,30.15c-16.23,21.06-35.24,36.5-55.37,52.86-5.51,4.48-11.06,9-16.56,13.63C309.31-24.25,271,17.55,262.24,70c-.57,3.42-1,6.9-1.35,10.34-2.52,25.77,2.17,48,6.71,69.51,4.94,23.4,9.61,45.5,5.35,71-3.72,22.27-14.59,42.89-31.41,59.63a125,125,0,0,1-58.82,32.81c-20.66,4.8-41.84,5-62.33,5.29s-41.63.48-61.6,5.4c-55.53,13.69-96.07,61-139,111.19-9.49,11.08-19.29,22.54-29.24,33.57q-8.05,8.94-16,17.64c-27.93,30.62-54.31,59.53-73.2,90.23-24.51,39.85-34.62,81.85-31.82,132.19,1.94,34.92,11.57,86.29,46.39,132.74,13.61,18.16,31.12,34.85,53.53,51,7,5.05,14,9.87,20.87,14.54,12.18,8.32,23.68,16.19,35,25.32a251,251,0,0,1,44.16,46.26c44.89,61.08,69.39,151.22,69,253.79,0,12.69-.49,25.59-1.33,38.35C30.77,1365.12,4.44,1464-43.41,1573Z" transform="translate(260.61 392.36)"/></g><g class="cls-23"><path class="cls-6" d="M-64.44,1572.48l-2-2c50.53-108.16,78.53-200.56,88.11-290.79,1.3-12.4,2.23-25,2.76-37.44,4.27-99.56-16.86-191.85-58-253.21a250.77,250.77,0,0,0-41.63-47.78c-12-10.74-24.4-20-37.53-29.83-5.37-4-10.77-8-16.19-12.23-22.38-17.23-39.15-33.35-52.8-50.74-36.31-46.27-48.71-97-52.72-131.37-6-51.64,2.32-97.29,25.5-139.54,20.55-37.47,51.45-71.92,86.77-109.86q7-7.47,13.86-15c49.68-53.87,96.6-104.74,159.17-117,19-3.72,38.91-3.64,58.16-3.54,22,.1,44.86.19,67-5.35,21.58-5.44,42.16-17.88,58-35,16.32-17.72,26.41-39.24,29.17-62.2,3.18-26.45-2.87-49.7-9.28-74.3-6-23.19-12.3-47.18-10.68-74.88.21-3.72.55-7.48,1-11.16C252.11,9.38,297-34.22,323-54.9,329.46-60,336.1-65,342.51-69.84c19.87-14.94,38.64-29,54.87-48.48A168.62,168.62,0,0,0,417-147.39c18.59-34.68,26.52-80.75,21.76-126.41-4.92-47.18-22.86-89.28-49.21-115.49l1.32-3c26.91,26.76,45.23,69.74,50.25,117.9,4.86,46.64-3.25,93.72-22.25,129.18a172.43,172.43,0,0,1-20,29.63C382.44-95.87,362.69-81,343.59-66.66c-6.41,4.81-13,9.79-19.48,14.9-25.66,20.38-69.85,63.27-77.52,121.64-.47,3.55-.8,7.18-1,10.79-1.56,26.87,4.59,50.47,10.53,73.28,6.54,25.08,12.71,48.78,9.41,76.22a115.14,115.14,0,0,1-30.12,64.45c-16.08,17.47-37,30.14-59,35.67-22.3,5.6-45.21,5.51-67.37,5.4-19.16-.1-39-.18-57.84,3.52-62,12.13-108.65,62.75-158.07,116.34q-6.91,7.5-13.87,15c-35.18,37.79-66,72.09-86.33,109.22-22.71,41.41-30.88,86.12-25,136.68,3.95,33.81,16.15,83.69,51.92,129.28,13.5,17.2,30.14,33.18,52.35,50.28,5.41,4.17,10.8,8.21,16.16,12.21,13.17,9.85,25.61,19.15,37.69,30a254,254,0,0,1,42.09,48.31c41.6,62.08,63,155.38,58.67,256-.53,12.55-1.47,25.26-2.79,37.77C14.43,1371-13.7,1463.86-64.44,1572.48Z" transform="translate(260.61 392.36)"/></g><g class="cls-24"><path class="cls-6" d="M-85.48,1572l-1.91-2.12c36.21-72.74,79.86-170.42,96.11-281,1.78-12.17,3.2-24.58,4.2-36.86,8.2-99-9.21-192-47.76-255.29a258,258,0,0,0-39.57-49.79c-13-12.89-26.7-24-41.16-35.73q-5.25-4.26-10.54-8.6c-15-12.34-34.46-29.17-51.52-49.91C-207.77,816-227.37,773.06-235.88,725c-9.28-52.36-3.22-99.52,18.53-144.18,21.08-43.28,56-82.27,84-111.4,54.73-56.87,109.42-108.73,176.8-118.54,17.84-2.59,36.35-2.19,54.25-1.78,23.75.53,48.31,1.08,72-5.32,21.66-5.85,42.27-19.27,58.05-37.81a117.82,117.82,0,0,0,27.93-66.89c2.28-28.48-5.3-53.37-13.31-79.72-7.44-24.46-15.14-49.74-14.51-78.52.08-3.87.31-7.79.68-11.63,6.21-63,52-105.89,78.7-125.83,7.34-5.47,14.9-10.72,22.21-15.79,18.95-13.15,38.55-26.74,55-45a161,161,0,0,0,20.73-28.56c19.79-34.53,28.57-81,24.11-127.4-4.58-47.62-22.55-89.89-49.3-116l1.3-3c27.33,26.64,45.69,69.81,50.36,118.45,4.57,47.44-4.42,94.9-24.65,130.22a165.2,165.2,0,0,1-21.13,29.1c-16.66,18.43-36.36,32.1-55.42,45.33-7.3,5.06-14.85,10.29-22.16,15.75C287.15-37.63,237.21,6,230.94,69.72c-.37,3.71-.59,7.49-.67,11.24-.6,27.94,7,52.84,14.3,76.92,7.8,25.64,15.86,52.15,13.51,81.62a121.81,121.81,0,0,1-28.82,69.26c-16.08,18.9-37.07,32.58-59.11,38.53-24,6.45-48.63,5.91-72.5,5.37-17.83-.4-36.26-.81-54,1.77C-23.13,364.15-77.54,415.75-132,472.34c-27.88,29-62.56,67.72-83.43,110.57-21.3,43.74-27.24,89.92-18.16,141.18,8.39,47.32,27.72,89.65,57.46,125.8,16.91,20.57,36.22,37.28,51.16,49.55,3.52,2.9,7,5.75,10.53,8.59,14.5,11.79,28.2,22.92,41.34,35.89a260.84,260.84,0,0,1,40,50.37c39,64,56.64,158.08,48.36,258.12-1,12.39-2.44,24.9-4.24,37.19C-5.3,1400.85-49.12,1498.94-85.48,1572Z" transform="translate(260.61 392.36)"/></g><g class="cls-25"><path class="cls-6" d="M-106.51,1571.45l-1.87-2.21C-67.83,1492.88-23.74,1401-4.26,1298c2.25-11.93,4.15-24.14,5.64-36.29,12.16-98.39-1.53-192.19-37.54-257.36a265.63,265.63,0,0,0-37.52-51.82c-14.43-15.71-29.78-29.15-46-43.38l-3.67-3.21c-16.79-14.72-34.49-30.85-50.23-49.08-31.45-36.41-52.91-78.11-63.78-123.94-12.38-52.14-8.49-102.2,11.57-148.81,16-37.22,42.58-74.17,81.2-112.94,41.5-41.66,105.36-97.88,180.57-105.1,16.59-1.59,33.67-.87,50.19-.18,25.5,1.07,51.87,2.18,77.26-5.12,21.53-6.2,42.73-21,58.16-40.59a124.24,124.24,0,0,0,26.69-71.59c1.4-30.59-7.74-57.18-17.41-85.33-8.81-25.66-17.92-52.18-18.27-82-.05-4,.06-8.11.32-12.11C217.58.54,269.45-42.86,291.54-58.34c8.14-5.7,16.58-11.09,24.73-16.29,19-12.12,38.61-24.65,55.33-41.78a154.44,154.44,0,0,0,21.83-28c21-34.3,30.66-81,26.51-128.23-4.24-48.14-22.26-90.64-49.45-116.63l1.29-3c27.78,26.55,46.2,70,50.53,119.16,4.24,48.24-5.64,96-27.12,131.08A157.26,157.26,0,0,1,373-113.48C356-96.15,336.3-83.55,317.21-71.36c-8.14,5.2-16.55,10.57-24.66,16.24C270.84-39.9,219.83,2.71,215.28,69.57c-.26,3.86-.37,7.79-.32,11.68.34,29,9.33,55.11,18,80.41,9.39,27.34,19.1,55.62,17.66,87.19a128.48,128.48,0,0,1-27.52,74.06c-15.74,20-37.33,35.07-59.25,41.38-25.66,7.37-52.16,6.26-77.78,5.18-16.47-.69-33.5-1.4-50,.18C-38.52,376.81-102,432.71-143.27,474.14c-38.35,38.5-64.69,75.11-80.53,111.92-19.64,45.63-23.45,94.65-11.33,145.69,10.72,45.18,31.92,86.34,63,122.33,15.64,18.1,33.26,34.15,50,48.81l3.67,3.22c16.3,14.27,31.69,27.75,46.22,43.56a269.42,269.42,0,0,1,37.95,52.44C2.14,1068.08,16,1163,3.73,1262.38,2.22,1274.63.31,1287-2,1299-21.56,1402.52-65.81,1494.82-106.51,1571.45Z" transform="translate(260.61 392.36)"/></g><g class="cls-26"><path class="cls-6" d="M-127.55,1570.94l-1.82-2.3c42-74.05,88.81-161.42,112.13-261.43,2.72-11.69,5.11-23.71,7.09-35.72C6,1173.78-4,1079.21-37.49,1012.05a274.43,274.43,0,0,0-35.45-53.84c-14.87-17.81-31-33.28-47.69-48.86l-2.27-2.13c-15.63-14.62-31.8-29.74-46.67-46.1-33.11-36.45-56.43-76.91-69.31-120.25-15.59-52.45-14-104.07,4.61-153.41C-219,546.93-192.58,508.41-155.85,473c41-39.79,106.2-88,184.33-91.65,15.24-.72,30.84.28,45.92,1.24,27.33,1.74,55.59,3.54,82.7-4.74,21.71-6.64,43-22.45,58.26-43.37a131.52,131.52,0,0,0,25.45-76.29c.45-32.72-10.75-62.33-21.58-91-10.15-26.85-20.65-54.61-22-85.4-.19-4.18-.19-8.41,0-12.57C200.1-2.72,253.14-45.15,275.81-60c8.89-5.84,18.13-11.26,27.08-16.51,19.08-11.18,38.8-22.74,55.82-38.9A149.53,149.53,0,0,0,381.64-143c22.22-34.21,32.73-81.37,28.85-129.4-3.93-48.5-22-91.12-49.53-116.94l1.27-3c28.16,26.39,46.61,69.95,50.63,119.52,4,49.1-6.78,97.32-29.51,132.3A152,152,0,0,1,360-112.46c-17.21,16.35-37.05,28-56.23,39.22-8.92,5.23-18.15,10.64-27,16.44C254.5-42.16,202.41-.55,199.62,69.42c-.16,4-.15,8.1,0,12.14,1.28,30,11.64,57.37,21.66,83.87,11,29,22.35,59.09,21.89,92.77A135.89,135.89,0,0,1,217,337.05c-15.62,21.35-37.27,37.47-59.39,44.24-27.4,8.37-55.81,6.56-83.28,4.81-15-1-30.6-2-45.74-1.24C-49,388.5-113.84,436.4-154.55,475.94c-36.4,35.14-62.52,73.25-77.64,113.26-18.26,48.32-19.77,98.86-4.51,150.23,12.71,42.77,35.77,82.75,68.54,118.82,14.8,16.29,30.93,31.37,46.53,46l2.27,2.12c16.71,15.64,33,31.17,47.91,49.1a278.13,278.13,0,0,1,35.88,54.5c34,68,44.06,163.66,27.74,262.41-2,12.12-4.41,24.24-7.16,36C-38.44,1409-85.39,1496.65-127.55,1570.94Z" transform="translate(260.61 392.36)"/></g><g class="cls-27"><path class="cls-6" d="M-148.59,1570.43l-1.77-2.39c50.55-83.23,94.48-159.61,120.14-251.64,29.44-105.58,26.15-219.26-8.59-296.67-23.81-53.06-60.79-89.23-96.56-124.21-10-9.77-20.31-19.87-30.17-30.17-92.63-96.74-96.92-188.59-84.2-248.61,25.75-121.51,147-220.23,270.35-220.23H21c13.77,0,27.81,1.26,41.39,2.44,29.25,2.56,59.49,5.2,88.4-4.14,40.74-13.17,83.53-62.22,82.57-127.17-.51-34.86-13.37-66.28-25.81-96.66-13-31.79-26.47-64.67-26-101.77,1-77.29,60.35-119.79,78.5-131,9.57-5.9,19.59-11.27,29.28-16.47,28.81-15.45,58.6-31.43,80.48-63.27,23.46-34.13,34.83-81.74,31.2-130.61s-21.71-91.56-49.61-117.21l1.25-3c28.53,26.23,47,69.91,50.73,119.85S395.5-173.86,371.51-139c-22.25,32.38-52.29,48.49-81.34,64.07C280.51-69.7,270.52-64.35,261-58.48c-17.81,11-76,52.63-77,127.76-.48,36.06,12.79,68.49,25.63,99.85,12.6,30.78,25.63,62.62,26.16,98.44,1,66.85-42.78,117.24-84.46,130.71-29.22,9.45-59.63,6.79-89,4.22C48.7,401.32,34.7,400.1,21,400.07h-.39c-122.41,0-242.61,97.6-268.07,217.74-12.48,58.89-8.16,149.12,83.28,244.62,9.84,10.27,20.15,20.36,30.12,30.11,36,35.18,73.16,71.55,97.23,125.21,35.18,78.39,38.56,193.35,8.82,300C-53.82,1410.32-97.89,1487-148.59,1570.43Z" transform="translate(260.61 392.36)"/></g></g><g class="cls-4"><g class="cls-5"><path class="cls-6" d="M90.49,1190c-16.38-97.81-3.91-199.34,33.36-271.59C164.44,839.75,234.42,802.3,294,827.35,340.7,847,376.7,899.33,411.51,950c5.53,8,11,16,16.56,23.89,53.72,76.28,101.46,109.25,145.94,100.73,46.78-8.94,80.06-59.3,115.3-112.62,30.37-46,61.77-93.47,102.52-111.38,48.35-21.24,100.78,4,145.69,31.46,4.68,2.86,9.38,5.78,14.08,8.7,41.22,25.61,83.82,52.13,128.27,49.4,49-3,101.3-55.81,101-129.78-.14-37.94-14.84-78-40.33-110-15.49-19.43-33.38-34.88-50.69-49.81-7.63-6.59-15.52-13.4-23.11-20.47-49.91-46.48-93.38-111.59-125.73-188.3S888.19,278.4,881.73,191.19A874.73,874.73,0,0,1,902.94-72.63c20.34-85.39,53.24-163.09,95.14-224.68l1.68,2.54c-84.34,124-128.66,310-115.65,485.58S967.59,533.49,1068,627c7.57,7,15.44,13.84,23,20.41,17.39,15,35.38,30.54,51,50.17,26,32.66,41,73.75,41.18,112.73.28,76-53.2,130.33-103.33,133.36-45,2.75-87.82-23.91-129.27-49.67q-7.07-4.38-14.08-8.7C892.09,858.1,840.15,833.08,792.5,854,752.35,871.65,721.16,918.84,691,964.47c-34,51.4-69.1,104.55-116.7,113.65-45.24,8.66-93.61-24.61-147.89-101.69-5.53-7.85-11-15.87-16.58-23.92-34.6-50.32-70.38-102.36-116.47-121.74C234.69,806.09,165.75,843,125.74,920.61,88.91,992,76.6,1092.41,92.81,1189.17Z" transform="translate(260.61 392.36)"/></g><g class="cls-7"><path class="cls-6" d="M98.66,1197.44C84,1115,92.13,1025.56,120.29,958.3a283.66,283.66,0,0,1,15-30.79c16.29-28.81,37.9-52.72,62.49-69.14,33.14-22.14,69.51-29.81,102.43-21.58,2.32.58,4.67,1.26,7,2,37.63,12.46,66.41,45.48,92.67,78.23,8.3,10.3,16.77,21.33,25,32q6.68,8.7,13.41,17.39c16.08,20.73,30.76,37.68,44.88,51.82,37.62,37.7,71.18,53.77,102.64,49.12,46.39-6.85,79.86-54.64,115.29-105.24,30.11-43,61.24-87.45,101.06-104.37,47.41-20,97.09,1.62,143.72,28l11.38,6.45c41,23.28,83.36,47.37,126.64,42.45,46.71-5.28,96.07-59.17,95.1-131-.69-50.87-25.08-89.78-39.56-108.44-14.91-19.23-32.06-34.72-48.65-49.71-7.48-6.76-15.22-13.75-22.65-21a456,456,0,0,1-58.93-71.2c-65-96.2-106.6-228-114.11-361.74-1-18.44-1.46-37.28-1.24-56,1.84-156.45,46.34-308.17,122.08-416.26l1.65,2.58C942.24-170.63,898-19.83,896.19,135.68c-.22,18.6.19,37.32,1.22,55.64,7.47,132.87,48.81,263.9,113.42,359.51a452.2,452.2,0,0,0,58.55,70.74c7.4,7.22,15.12,14.19,22.59,20.94,16.67,15.06,33.91,30.64,49,50.06,14.78,19,39.68,58.81,40.38,111.06,1,76.21-49.7,129.19-97.3,134.59-43.82,4.92-86.44-19.27-127.67-42.69q-5.7-3.22-11.38-6.43c-46.24-26.17-95.48-47.68-142.22-27.92-39.24,16.68-70.16,60.83-100,103.52-34.17,48.79-69.5,99.24-116.71,106.21-32,4.74-66.11-11.52-104.21-49.7-14.2-14.23-29-31.26-45.11-52.09-4.49-5.78-9-11.6-13.42-17.4-8.19-10.65-16.65-21.67-24.93-31.94-26-32.48-54.55-65.21-91.65-77.49-2.27-.75-4.57-1.42-6.85-2-32.46-8.12-68.35-.55-101.07,21.3-24.26,16.21-45.58,39.79-61.64,68.19a281.58,281.58,0,0,0-14.79,30.38C94.49,1026.63,86.51,1115,101,1196.53Z" transform="translate(260.61 392.36)"/></g><g class="cls-8"><path class="cls-6" d="M106.82,1204.84c-15.27-81.75-6-173.24,24.13-238.78a270.62,270.62,0,0,1,15.77-29.49c16.92-27.27,38.45-49,64-64.62,32.62-19.94,70.09-28.34,102.81-23,2.29.36,4.59.82,6.84,1.35,35.33,8.39,60.22,33,89.09,64.36,10.92,11.86,22,24.67,33.67,38.23L448.4,959c17,19.81,32,36,46,49.55,24.9,24.16,62.64,55.81,103.12,51.6,46-4.77,79.69-50,115.36-97.87,29.82-40,60.65-81.41,99.51-97.36,46.18-18.73,95.41.73,141.74,24.56l6.92,3.58c41.35,21.35,84.1,43.43,126.78,36.11C1132,921.6,1178.68,868.93,1177,797c-1.18-49.81-24.81-88.33-38.79-106.86-14.32-19-30.72-34.53-46.58-49.55-7.35-7-14.94-14.14-22.23-21.58a453.44,453.44,0,0,1-56.45-71.36C951.33,452.2,913.21,322.57,908.34,192c-.67-17.92-.74-36.22-.19-54.39C912.72-13.54,958.48-159.92,1033.68-264l1.62,2.6C960.56-157.94,915.08-12.45,910.53,137.81c-.54,18-.48,36.23.19,54,4.84,129.69,42.72,258.49,103.92,353.37a450,450,0,0,0,56.08,70.89c7.25,7.41,14.83,14.58,22.16,21.52,15.94,15.09,32.42,30.7,46.89,49.88,14.26,18.91,38.37,58.27,39.59,109.41,1.76,73.92-46,128-91.28,135.79-43.22,7.39-86.24-14.81-127.83-36.29l-6.92-3.57c-46-23.64-94.78-43-140.33-24.49-38.31,15.72-68.93,56.82-98.54,96.57-34.4,46.17-70,93.92-116.79,98.77-41.17,4.3-79.41-27.73-104.59-52.17-14-13.59-29.11-29.86-46.15-49.72l-5.29-6.13C430,942.14,418.92,929.34,408,917.52c-28.61-31-53.25-55.46-88.06-63.73-2.2-.51-4.46-1-6.71-1.32-32.34-5.25-69.39,3-101.65,22.78-25.21,15.41-46.45,36.86-63.13,63.74a263.34,263.34,0,0,0-15.56,29.09c-29.77,64.69-38.89,155.05-23.8,235.8Z" transform="translate(260.61 392.36)"/></g><g class="cls-9"><path class="cls-6" d="M115,1212.24c-16.19-82.53-6-173.88,26.64-238.41a249.29,249.29,0,0,1,16.55-28.2,191.16,191.16,0,0,1,65.46-60.08c32.24-17.95,69.86-26.89,103.19-24.48,2.26.16,4.49.38,6.69.68,33.81,4.71,55.8,23,85.5,50.49,11,10.13,23.53,22.63,39.55,39.34,14.8,15.43,30.62,31.79,47.1,47.27,29.79,28,65.42,56.34,103.59,54.08,45.59-2.69,79.49-45.32,115.38-90.45,29.54-37.14,60.08-75.53,98-90.39,47-18.44,96.81,1.23,139.76,21.11l2.18,1c43.75,20.26,85.08,39.41,127.2,29.48,42.81-10.08,85.65-62.7,83.22-133.31-1.67-48.74-24.53-86.89-38-105.29-13.73-18.74-29.37-34.28-44.5-49.31-7.22-7.17-14.68-14.58-21.82-22.24a449.78,449.78,0,0,1-54-71.52c-59.05-96.16-92.81-220.3-95.05-349.55-.31-17.43,0-35.19.86-52.78,7.29-145.9,54.3-286.95,129-387l1.6,2.65C978.85-145.22,932.12-5,924.88,140c-.87,17.48-1.16,35.11-.85,52.42,2.23,128.4,35.76,251.72,94.42,347.25a447.69,447.69,0,0,0,53.61,71c7.11,7.62,14.55,15,21.75,22.16,15.21,15.11,30.93,30.73,44.79,49.66,13.75,18.76,37.07,57.72,38.79,107.73,2.49,72.61-41.38,126.68-85.24,137-42.67,10-84.25-9.21-128.28-29.6l-2.18-1c-42.63-19.73-92-39.26-138.44-21.07-37.42,14.65-67.74,52.79-97.08,89.67-36.21,45.54-70.42,88.55-116.83,91.29-38.8,2.25-74.85-26.33-105-54.63C487.86,986.34,472,970,457.19,954.5c-16-16.68-28.52-29.14-39.44-39.23-29.41-27.18-51.18-45.34-84.46-50-2.16-.29-4.36-.51-6.58-.66-33-2.38-70.3,6.46-102.25,24.25a188.84,188.84,0,0,0-64.62,59.29A245.47,245.47,0,0,0,143.53,976c-32.18,63.65-42.24,153.8-26.26,235.27Z" transform="translate(260.61 392.36)"/></g><g class="cls-10"><path class="cls-6" d="M123.14,1219.64c-16.89-82.2-5.45-175.64,29.15-238.05a230.12,230.12,0,0,1,17.32-26.89,188.78,188.78,0,0,1,66.94-55.56c31.22-15.71,69-25.16,103.57-25.92q3.33-.09,6.54,0c33,1.19,53,14.62,81.91,36.61,11.8,9,25.3,20.51,40.15,34.32,5.31,4.94,10.79,10.1,16.4,15.38,10.33,9.73,21,19.79,31.82,29.61,30.36,27.64,65.92,57.1,104.06,56.57,45.22-.62,79.42-40.68,115.62-83.07,29.19-34.19,59.37-69.55,96.29-83.4,45.57-17.09,93.05-.64,137.78,17.67,39,16,83.27,34.11,125,21.29,39.86-12.23,80.5-63.52,77.3-134.49-1.6-35.33-14.83-72.17-37.25-103.72-13.12-18.46-28-34-42.37-49-7.1-7.41-14.44-15.08-21.46-23a447.84,447.84,0,0,1-51.5-71.68C964.84,440.94,934.47,319,935,192.88c.06-16.91.69-34.13,1.9-51.16,10-140.56,58.24-276.26,132.43-372.34l1.57,2.69c-73.74,95.49-121.72,230.36-131.63,370-1.19,16.92-1.83,34-1.88,50.82-.48,125.2,29.68,246.35,84.93,341.1a444.15,444.15,0,0,0,51.13,71.18c7,7.86,14.31,15.51,21.39,22.91,14.45,15.08,29.39,30.67,42.64,49.32,22.86,32.16,36.35,69.83,38,106.06,3.3,73-38.34,125.69-79.2,138.22-42.34,13-86.87-5.26-126.16-21.34-44.43-18.2-91.57-34.55-136.57-17.66-36.42,13.67-66.4,48.79-95.4,82.75-36.53,42.78-71,83.19-117.07,83.83h-1c-38.35,0-73.92-29.44-104.3-57.09-10.81-9.84-21.5-19.9-31.85-29.64-5.6-5.27-11.08-10.44-16.39-15.38-14.78-13.75-28.23-25.24-40-34.16-28.66-21.76-48.4-35-80.89-36.22q-3.15-.1-6.44,0c-34.37.76-71.85,10.14-102.84,25.73a186.32,186.32,0,0,0-66.12,54.85,226.43,226.43,0,0,0-17.07,26.5c-34.1,61.51-45.37,153.65-28.7,234.74Z" transform="translate(260.61 392.36)"/></g><g class="cls-11"><path class="cls-6" d="M131.3,1227c-17.87-83.26-5.44-176.56,31.66-237.68a213.29,213.29,0,0,1,18.09-25.59c17.94-21.67,40.32-38.36,68.43-51C288.68,895,331.42,888,353.42,885.38q3.25-.42,6.39-.66c33.66-2.56,51.68,7,78.31,22.72,12.08,7.15,26.17,17.28,40.75,29.3,13.53,11.15,28.5,24.34,43,37.09l6.37,5.62c34.55,30.45,68.54,57.89,104.54,59,44.92,1.44,79.43-36,116-75.68,28.8-31.25,58.58-63.56,94.44-76.41,47.52-17,98.54,1,135.8,14.24,43.4,15.36,82.44,26.88,120.71,12.09,38.43-14.85,75.29-66.22,71.38-135.68-1.94-34.53-14.9-70.81-36.48-102.14-12.5-18.16-26.6-33.64-40.23-48.61-7-7.68-14.22-15.62-21.11-23.79a445.23,445.23,0,0,1-49-71.85C972,436,945,316.21,948.26,193.3c.42-16.41,1.41-33.09,2.94-49.55,12.62-135.17,62.15-265.54,135.88-357.7l1.54,2.73c-73.29,91.6-122.51,221.16-135.06,355.46-1.52,16.35-2.5,32.9-2.92,49.2-3.21,122,23.58,241,75.44,335a443,443,0,0,0,48.66,71.33c6.85,8.12,14.06,16,21,23.7,13.69,15,27.85,30.6,40.47,48.93,22,31.93,35.21,69,37.2,104.39,4,71.42-33.76,124.2-73.16,139.43-38.8,15-78.15,3.4-121.86-12.08C939.34,890.27,890.7,873,843.74,889.87c-35.4,12.69-65,44.78-93.59,75.83-36.9,40-71.69,77.8-117.45,76.36-36.58-1.18-70.87-28.84-105.7-59.55l-6.37-5.61c-14.46-12.74-29.41-25.92-42.91-37-14.5-11.94-28.5-22-40.48-29.1-26.33-15.58-44.15-25-77.31-22.48-2.06.16-4.16.39-6.32.65-21.9,2.62-64.45,9.63-103.44,27.22-27.81,12.54-49.92,29-67.61,50.4a208.46,208.46,0,0,0-17.83,25.2c-36,59.28-48.5,153.4-31.15,234.22Z" transform="translate(260.61 392.36)"/></g><g class="cls-12"><path class="cls-6" d="M139.47,1234.44c-18.6-83.14-4.87-178.51,34.16-237.31a196.28,196.28,0,0,1,18.87-24.29c18-19.69,40.9-34.91,69.91-46.51,32.49-13,69.79-21.21,99.75-27.79l4.55-1c2.14-.48,4.22-.93,6.24-1.32,31.34-6,46.82-2.9,74.7,8.84,12.22,5.15,26.53,13.54,41.37,24.26,13.63,9.86,29.67,22.7,50.47,40.42l1.23,1c33.18,28.34,67.49,57.64,103.78,60.5,44.59,3.5,79.55-31.37,116.54-68.29,28.36-28.31,57.68-57.58,92.41-69.42,45.31-15.46,91.69-1.7,132.61,10.43l1.21.36c38.18,11.32,78.62,20.87,116.38,2.9,34.87-16.59,70.22-66.5,65.46-136.87-2.29-33.74-15-69.45-35.72-100.56-11.87-17.83-25.18-33.24-38.05-48.13-6.89-8-14-16.23-20.79-24.71A443.73,443.73,0,0,1,1028,525c-48.85-93.88-72.45-211.54-66.44-331.29.79-15.89,2.13-32,4-47.94,15.46-131.63,64.94-253.46,139.34-343l1.5,2.77c-74,89.05-123.13,210.12-138.49,340.89-1.84,15.8-3.17,31.82-3.95,47.59-6,118.88,17.45,235.66,65.94,328.85a441.22,441.22,0,0,0,46.19,71.46c6.74,8.43,13.85,16.66,20.72,24.61,12.93,15,26.3,30.44,38.28,48.44,21.13,31.69,34.06,68.16,36.4,102.72,4.9,72.33-31.35,123.6-67.11,140.61-38.29,18.23-79.08,8.61-117.57-2.8l-1.2-.36c-40.69-12.06-86.8-25.73-131.62-10.45-34.3,11.69-63.43,40.78-91.61,68.91-37.33,37.26-72.58,72.48-118,68.88-36.87-2.9-71.43-32.42-104.85-61l-1.23-1c-20.75-17.68-36.74-30.49-50.32-40.3-14.72-10.64-28.89-18.95-41-24-27.53-11.59-42.81-14.66-73.74-8.73-2,.38-4.07.83-6.2,1.31l-4.55,1c-29.9,6.57-67.12,14.75-99.49,27.71-28.71,11.49-51.32,26.52-69.11,46a191.88,191.88,0,0,0-18.58,23.91c-38.41,57.88-51.91,151.79-33.6,233.69Z" transform="translate(260.61 392.36)"/></g><g class="cls-13"><path class="cls-6" d="M147.63,1241.85c-19.32-83.1-4.24-180.53,36.68-236.95a178.66,178.66,0,0,1,19.64-23c18.27-18,41-31.32,71.38-42,19.25-6.76,40.07-12.27,60.21-17.6,16-4.25,31.21-8.26,44.46-12.62l1.46-.48c1.58-.52,3.12-1,4.63-1.5,31.25-9.79,44.37-11.65,71.08-5,12.21,3,26.74,9.67,42,19.23,14.81,9.27,32.17,22.1,51.6,38.13l8.74,7.26c31,25.82,63,52.52,96.74,56.77,44.4,5.6,79.82-26.7,117.32-60.88,27.84-25.38,56.62-51.62,90.16-62.46,42.88-13.87,86.61-3.43,125.2,5.78l6.62,1.57c43.07,10.19,78.61,13,112-6.28s65-69.57,59.55-138.07c-3.36-42.21-20.86-77.13-35-99-11.23-17.45-23.74-32.73-35.83-47.51-6.81-8.32-13.85-16.93-20.52-25.75a441.78,441.78,0,0,1-44.07-72.18c-45.51-93.09-65.72-208.59-56.9-325.19,1.16-15.39,2.85-31,5-46.33,18.05-126,68.76-242.68,142.78-328.4l1.47,2.81c-73.58,85.21-124,201.1-141.92,326.33-2.17,15.24-3.85,30.71-5,46-8.76,115.72,11.29,230.33,56.45,322.71a438.76,438.76,0,0,0,43.72,71.6c6.64,8.79,13.66,17.37,20.45,25.67,12.15,14.84,24.71,30.19,36,47.79,14.35,22.26,32.16,57.86,35.6,101.05,5.6,70.38-26.63,121.93-61,141.8-33.94,19.58-69.83,16.75-113.28,6.48L988.55,910c-38.38-9.15-81.88-19.53-124.32-5.81-33.14,10.71-61.75,36.79-89.41,62-37.85,34.5-73.61,67.12-118.77,61.39-34.21-4.31-66.49-31.2-97.71-57.21l-8.73-7.25c-19.35-16-36.63-28.73-51.36-38-15.09-9.46-29.43-16-41.47-19-26.33-6.51-39.29-4.68-70.19,5-1.51.47-3,1-4.62,1.5l-1.45.48c-13.31,4.37-28.49,8.38-44.56,12.64-20.11,5.33-40.9,10.83-60.08,17.56-30.15,10.57-52.58,23.76-70.61,41.5a176.61,176.61,0,0,0-19.34,22.62c-40.24,55.49-55.06,151.37-36,233.17Z" transform="translate(260.61 392.36)"/></g><g class="cls-14"><path class="cls-6" d="M155.79,1249.24c-20.37-84.43-4.25-181.72,39.19-236.57A165,165,0,0,1,215.4,991c23.57-20.81,51.32-31,72.86-37.47,11.85-3.59,24.57-7,36.88-10.23,24-6.36,48.8-12.94,68.16-21.41l5.94-2.64c4.56-2,8.67-3.89,12.47-5.63,21-9.58,32.51-14.85,55-13.28,12.15.85,26.9,5.75,42.65,14.17,15.53,8.31,33.76,20.7,52.71,35.84,5.16,4.12,10.3,8.34,15.43,12.55,29,23.84,59.08,48.49,90.53,54,44.26,7.74,80.26-22,118.38-53.44C813.6,941,841.75,917.74,874,907.9c40.31-12.3,81.29-4.86,117.45,1.71q6.28,1.14,12.38,2.21c35.45,6.17,73,8.56,107.71-15.46,28.81-20,60.14-68.4,53.64-139.28-3.78-41.17-20.68-75.7-34.19-97.42-10.57-17-22.27-32.14-33.57-46.75-6.74-8.71-13.72-17.72-20.29-26.94a441.21,441.21,0,0,1-41.59-72.34c-42.2-92.31-59-205.64-47.35-319.11,1.51-14.86,3.55-29.9,6.07-44.71C1014.85,29.4,1066.79-82,1140.5-163.94l1.43,2.86C1068.65-79.66,1017,31.06,996.58,150.68c-2.5,14.7-4.53,29.63-6,44.38-11.58,112.57,5.1,225,47,316.57a436.71,436.71,0,0,0,41.25,71.75c6.54,9.17,13.49,18.15,20.21,26.84,11.36,14.68,23.1,29.85,33.76,47,13.74,22.09,30.94,57.27,34.8,99.36,6.68,72.8-25.45,122.53-55,143-35.21,24.39-73.19,22-109,15.77-4.06-.71-8.19-1.46-12.39-2.22-36-6.53-76.76-13.94-116.68-1.75-31.9,9.73-59.88,32.82-86.94,55.15-38.47,31.74-74.79,61.71-119.81,53.87-31.92-5.57-62.16-30.39-91.41-54.39-5.13-4.21-10.26-8.42-15.4-12.54-18.86-15.05-37-27.37-52.4-35.62s-30-13.14-41.95-14c-22.07-1.53-32.79,3.37-54.16,13.13-3.8,1.74-7.93,3.62-12.5,5.65L394,925.31c-19.48,8.52-44.36,15.12-68.41,21.5-12.29,3.25-25,6.63-36.83,10.21-21.35,6.45-48.85,16.5-72.11,37a163,163,0,0,0-20.1,21.33C153.82,1069.3,138,1165,158,1248Z" transform="translate(260.61 392.36)"/></g><g class="cls-15"><path class="cls-6" d="M164,1256.64c-21.11-84.51-3.57-183.84,41.71-236.19a152.36,152.36,0,0,1,21.2-20.37c23-18.16,49.34-26.57,74.32-33,6.3-1.61,12.79-3.2,19.36-4.8,30.72-7.51,62.49-15.27,86.06-28.25,1.88-1,3.68-2.08,5.42-3.09l.36-.2c9.31-5.39,16.49-10.37,22.82-14.76,13.43-9.31,23.14-16,41-18,12-1.32,27,1.81,43.29,9.1s34.85,18.86,53.85,33.54c7.21,5.58,14.47,11.5,21.5,17.22,27.27,22.23,55.48,45.21,84.94,51.79,44.22,9.88,80.92-17.24,119.78-45.95,26.49-19.57,53.88-39.81,84.73-48.65,37.56-10.76,75.68-6,109.3-1.74,6.33.8,12.51,1.58,18.54,2.23,45.54,5,76.45-2.4,103.37-24.63,27.77-22.92,54.89-71.87,47.73-140.49-4.18-40.12-20.48-74.28-33.42-95.86-9.89-16.54-20.76-31.42-31.27-45.81-6.69-9.16-13.6-18.63-20.1-28.31a439.24,439.24,0,0,1-39.1-72.5c-38.95-91.54-52.37-202.71-37.82-313,1.88-14.37,4.28-28.87,7.13-43.1,23-114.7,76.2-220.92,149.67-299.09l1.39,2.9c-73,77.71-125.88,183.26-148.78,297.21-2.82,14.12-5.2,28.51-7.07,42.76C989.41,305,1002.72,415.27,1041.33,506a435.35,435.35,0,0,0,38.78,71.89c6.46,9.63,13.36,19.08,20,28.21,10.55,14.45,21.46,29.39,31.43,46.05,13.15,21.95,29.73,56.71,34,97.69,7.35,70.44-20.46,120.65-48.93,144.16-27.35,22.58-58.66,30.08-104.71,25.06-6-.65-12.23-1.44-18.56-2.23-33.47-4.2-71.41-9-108.65,1.69-30.53,8.75-57.77,28.87-84.12,48.34-39.2,29-76.24,56.33-121.2,46.28-29.87-6.67-58.27-29.81-85.73-52.18-7-5.72-14.26-11.62-21.45-17.19-18.87-14.58-37.35-26.09-53.43-33.29s-30.68-10.25-42.43-8.95c-17.41,1.92-26.95,8.54-40.16,17.69-6.36,4.41-13.57,9.42-23,14.84l-.35.21c-1.76,1-3.57,2.07-5.47,3.11-23.78,13.1-55.66,20.89-86.49,28.42-6.57,1.6-13.05,3.19-19.34,4.8-24.8,6.33-50.87,14.67-73.62,32.59a149.6,149.6,0,0,0-20.85,20c-44.48,51.43-61.69,149-40.93,232.14Z" transform="translate(260.61 392.36)"/></g><g class="cls-16"><path class="cls-6" d="M172.12,1264c-21.86-84.61-2.86-186,44.21-235.8a141,141,0,0,1,22-19.08c23.67-16.53,50.43-23.11,75.8-28.43l4.81-1c34.76-7.28,74.17-15.54,101-33.45,2-1.32,3.83-2.65,5.62-3.95,11.29-8.16,19-16,25.86-23,10.47-10.64,18.74-19.05,34.31-23.65,11.89-3.51,27.09-2.13,43.93,4s35.84,16.93,55,31.23c9.13,6.85,18.26,14.28,27.1,21.47,26.82,21.85,52.16,42.48,79.81,50,44.32,12.12,81.88-12.41,121.65-38.38,25.61-16.72,52.08-34,81.38-41.84,34.6-9.26,69.68-6.74,100.64-4.51,8.79.63,17.1,1.23,25.2,1.56,42.88,1.8,73.41-8.65,99-33.78,25.34-24.85,49.64-75.13,41.83-141.73-4.58-39.06-20.29-72.84-32.66-94.29-9.2-16-19.21-30.55-28.9-44.64-6.66-9.69-13.55-19.7-20-29.92a438.17,438.17,0,0,1-36.63-72.67c-35.71-90.77-45.74-199.78-28.26-306.94,2.24-13.85,5-27.81,8.17-41.48,25.42-108.92,79.8-209.93,153.12-284.43l1.35,2.94c-72.91,74.07-127,174.45-152.22,282.66-3.15,13.56-5.88,27.41-8.1,41.15-17.34,106.26-7.39,214.33,28,304.31a435.12,435.12,0,0,0,36.31,72c6.4,10.16,13.26,20.14,19.9,29.8,9.73,14.14,19.79,28.77,29.05,44.87,12.57,21.79,28.52,56.14,33.2,96,8,68.29-16.89,119.85-42.87,145.32s-57,36.17-100.41,34.36c-8.13-.33-16.45-.93-25.26-1.56-30.82-2.23-65.76-4.74-100.09,4.45-29,7.77-55.37,25-80.85,41.6-40.11,26.19-78,50.92-123,38.63-28-7.66-54.72-29.4-80.53-50.41-8.81-7.18-17.93-14.6-27-21.42-19-14.19-37.82-24.89-54.47-31s-31.35-7.38-42.91-4c-15.09,4.46-23.18,12.69-33.42,23.1-6.9,7-14.72,15-26.16,23.24-1.82,1.31-3.71,2.65-5.7,4-27.11,18.13-66.7,26.42-101.62,33.73l-4.81,1c-25.19,5.28-51.75,11.8-75.12,28.13a138.28,138.28,0,0,0-21.61,18.75c-46.2,48.9-64.85,148.48-43.36,231.62Z" transform="translate(260.61 392.36)"/></g><g class="cls-17"><path class="cls-6" d="M180.28,1271.44c-23-86.15-2.89-187.36,46.73-235.42a131,131,0,0,1,22.75-17.77c23-14.12,48.59-19.18,77.27-23.91,37.22-6.16,79.18-14.51,106.17-35.86,1.93-1.53,3.74-3.07,5.48-4.59,12-10.56,19.52-21.24,26.14-30.67,8.6-12.26,16-22.84,30.38-29.78,11.74-5.67,27.15-6.06,44.57-1.11s36.76,14.94,56.1,28.92c11,7.94,21.8,16.82,32.3,25.4,25.25,20.66,49.11,40.18,75.09,48.6,44.6,14.46,83.22-7.48,124.12-30.7,24.51-13.92,49.87-28.32,77.44-35.16,31.37-7.78,63.19-7.12,91.26-6.53,11.44.24,22.24.47,32.57.16,41-1.22,70.23-14.46,94.7-42.93,11.13-12.94,46.58-61.48,35.93-143-3.93-30.07-15-62.14-31.89-92.74-8.47-15.33-17.62-29.5-26.48-43.2-6.65-10.29-13.53-20.94-19.91-31.79a436.84,436.84,0,0,1-34.14-72.83c-32.53-90-39.17-196.88-18.72-300.85,2.61-13.36,5.71-26.77,9.21-39.87C1065.44,51.28,1119.58-42,1193.92-113.93l1.3,3c-73.92,71.52-127.75,164.23-155.65,268.1-3.48,13-6.55,26.3-9.14,39.54-20.28,103.08-13.7,209,18.53,298.17A432.13,432.13,0,0,0,1082.8,567c6.34,10.79,13.2,21.41,19.83,31.67,8.89,13.75,18.07,28,26.6,43.41,17.19,31,28.39,63.67,32.4,94.32,10.91,83.48-25.41,133.21-36.81,146.46-24.91,29-54.55,42.45-96.12,43.68-10.37.31-21.19.08-32.65-.16-28-.59-59.68-1.24-90.84,6.48-27.33,6.78-52.58,21.12-77,35C787,991.29,748,1013.42,702.75,998.73c-26.32-8.53-50.32-28.17-75.73-49-10.47-8.56-21.3-17.42-32.19-25.32-18.88-13.65-38.59-23.82-55.5-28.62s-32-4.5-43.4,1c-13.83,6.68-21.07,17-29.46,29-6.71,9.56-14.31,20.4-26.58,31.16-1.77,1.55-3.61,3.12-5.57,4.67-27.36,21.65-69.59,30.07-107,36.26-28.5,4.7-53.94,9.72-76.63,23.67A127.92,127.92,0,0,0,228.31,1039c-48.69,47.15-68.38,146.52-45.81,231.13Z" transform="translate(260.61 392.36)"/></g><g class="cls-18"><path class="cls-6" d="M188.44,1278.84c-23.74-86.33-2.11-189.57,49.25-235a121.42,121.42,0,0,1,23.53-16.46c23.81-12.75,49.57-15.87,76.84-19.17l1.9-.23c35.42-4.32,79.53-12.45,106.55-37.27,1.68-1.54,3.43-3.26,5.32-5.23,12.21-12.7,18.84-25.55,25.26-38,7.2-13.93,14-27.08,27.63-36.29,11.6-7.83,27.23-10,45.21-6.24,17.6,3.67,37.93,13.12,57.22,26.61,12.69,8.9,25.15,19.18,37.2,29.14,23.77,19.63,46.23,38.17,70.66,47.36,45.11,17,85.06-2.38,127.37-22.85,23.17-11.21,47.12-22.81,72.71-28.64,27.81-6.34,54.85-7.06,81-7.74,14.43-.38,28.06-.74,40.82-2.06,39.41-4.08,67.28-20.14,90.37-52.07,12.75-17.62,41.2-67,30-144.23-4.28-29.61-14.75-60.29-31.13-91.17-7.71-14.57-16-28.22-24-41.41-6.68-11-13.58-22.42-19.94-34a436.37,436.37,0,0,1-31.66-73c-29.38-89.31-32.64-194-9.17-294.76,3-12.86,6.43-25.72,10.26-38.25,30.26-98.55,85.59-186.77,160-255.11l1.25,3c-74,68-129,155.65-159.09,253.56-3.8,12.42-7.22,25.18-10.17,37.93-23.26,99.87-20,203.58,9,292a432.54,432.54,0,0,0,31.37,72.31c6.32,11.53,13.2,22.89,19.86,33.89,8,13.23,16.3,26.92,24.06,41.58,16.61,31.32,27.24,62.48,31.6,92.63,11.42,79.06-17.69,129.56-30.74,147.59-23.21,32.08-52.39,48.92-91.83,53-12.83,1.33-26.49,1.69-40.95,2.07-26.08.68-53,1.39-80.69,7.7-25.39,5.79-49.26,17.34-72.34,28.51-42.64,20.63-82.92,40.12-128.68,22.91-24.74-9.3-47.33-28-71.24-47.7-12-9.92-24.44-20.18-37.05-29-19.09-13.34-39.17-22.68-56.55-26.3s-32.7-1.59-43.88,5.95c-13.1,8.84-19.41,21.07-26.72,35.22-6.23,12.06-13.29,25.71-25.79,38.73-1.94,2-3.72,3.76-5.44,5.35-27.45,25.21-71.92,33.43-107.61,37.77l-1.9.24c-27.11,3.28-52.71,6.38-76.23,19a120,120,0,0,0-23.12,16.17c-50.36,44.58-71.55,145.88-48.25,230.62Z" transform="translate(260.61 392.36)"/></g><g class="cls-19"><path class="cls-6" d="M196.61,1286.23c-24.5-86.51-1.28-191.77,51.75-234.63a114.11,114.11,0,0,1,24.31-15.15c22.91-10.55,47.26-12.4,73-14.35l7.17-.55c32.58-2.58,79.12-9.39,106.94-38.65,1.7-1.79,3.39-3.71,5.18-5.88,12.08-14.69,18.05-30.09,23.82-45,6.3-16.26,12.26-31.62,25.44-43.1,11.43-10,27.27-13.87,45.82-11.38,18.08,2.45,38.81,11.08,58.35,24.3,14.37,9.74,28.36,21.44,41.89,32.76,22.36,18.71,43.49,36.38,66.44,46.23,45.94,19.71,87.6,3,131.7-14.76,21.45-8.62,43.63-17.54,66.91-22.37,23.78-4.93,47-6.52,69.48-8.05,17.94-1.22,34.87-2.37,50.34-5.16,37.52-6.79,64.86-26.24,86-61.2,14-23.07,35.71-72.65,24.13-145.5-4.56-28.71-14.78-58.86-30.37-89.62-6.92-13.68-14.27-26.66-21.38-39.21-6.73-11.88-13.69-24.17-20-36.66a435.77,435.77,0,0,1-29.18-73.16c-26.28-88.64-26.14-191.16.39-288.67,3.34-12.34,7.14-24.67,11.31-36.64A566.48,566.48,0,0,1,1229.55-80.59l1.2,3.07a563.34,563.34,0,0,0-162.54,239c-4.12,11.87-7.9,24.09-11.21,36.33-26.28,96.62-26.43,198.15-.42,285.9a431.85,431.85,0,0,0,28.9,72.46c6.31,12.41,12.94,24.11,20,36.51,7.12,12.58,14.49,25.6,21.45,39.36,15.79,31.15,26.15,61.74,30.79,90.94,11.83,74.44-10.38,125.12-24.67,148.71-21.6,35.63-49.41,55.44-87.53,62.34-15.56,2.81-32.54,4-50.52,5.19-22.41,1.53-45.59,3.1-69.26,8-23.13,4.8-45.24,13.68-66.62,22.28-44.43,17.86-86.4,34.73-133,14.74-23.22-10-44.46-27.73-67-46.55-13.48-11.27-27.42-22.94-41.71-32.62-19.3-13.06-39.75-21.58-57.58-24-18-2.45-33.4,1.33-44.39,10.91-12.64,11-18.44,26-24.58,41.8-5.88,15.17-12,30.85-24.38,46-1.83,2.22-3.57,4.19-5.31,6-28.33,29.8-75.32,36.7-108.19,39.31l-7.18.55c-25.62,1.94-49.83,3.77-72.46,14.19a110.44,110.44,0,0,0-23.87,14.88c-52,42-74.73,145.24-50.7,230.12Z" transform="translate(260.61 392.36)"/></g><g class="cls-20"><path class="cls-6" d="M204.77,1293.63c-25.68-88.21-1.34-193.29,54.27-234.24a106.65,106.65,0,0,1,25.08-13.84c22.2-8.65,45.43-9.32,70-10,3.88-.11,7.76-.22,11.67-.37,50.4-1.89,86.51-15.37,107.33-40.05,1.69-2,3.39-4.22,5-6.52C490,972,495.22,954.14,500.29,936.85c5.47-18.7,10.65-36.36,23.53-50.15,11.25-12,27.31-17.77,46.41-16.51,18.53,1.21,39.65,9,59.48,22,16,10.51,31.47,23.64,46.4,36.33,21,17.87,40.86,34.74,62.41,45.16,47.23,22.84,91.11,8.67,137.56-6.33,19.22-6.2,39.08-12.61,59.56-16.43,19.15-3.57,38-5.5,56.16-7.36,22.16-2.27,43.09-4.41,61.66-9.27,36.4-9.54,62.37-31.89,81.72-70.32,12.14-24.11,30.65-75.23,18.22-146.79-4.83-27.76-14.79-57.38-29.61-88.06-6.08-12.6-12.48-24.72-18.67-36.43-7.14-13.53-13.89-26.31-20.25-39.88a435.63,435.63,0,0,1-26.7-73.32c-23.21-88-19.68-188.37,9.95-282.58,3.71-11.85,7.86-23.63,12.35-35,34.59-87.52,90.74-163.48,166.89-225.77l1.15,3.12c-75.77,62-131.61,137.5-166,224.46-4.45,11.29-8.57,23-12.25,34.72-29.35,93.33-32.86,192.69-9.89,279.78a430.47,430.47,0,0,0,26.44,72.58c6.32,13.49,13.05,26.23,20.17,39.71,6.2,11.75,12.61,23.89,18.72,36.56,15,31,25.09,61.06,30,89.25,12.69,73-6.22,125.2-18.62,149.82-19.74,39.2-46.19,62-83.22,71.68-18.69,4.9-39.68,7-61.91,9.32-18.16,1.86-36.94,3.78-56,7.34-20.38,3.8-40.19,10.2-59.35,16.38-46.78,15.1-91,29.36-138.81,6.24-21.78-10.53-42.66-28.29-62.86-45.46-14.87-12.65-30.25-25.73-46.17-36.16-19.56-12.78-40.38-20.48-58.62-21.67C551.55,872.51,536,878,525.21,889.6c-12.35,13.21-17.39,30.44-22.74,48.68-5.16,17.62-10.49,35.83-22.66,52.9-1.69,2.37-3.43,4.62-5.18,6.71-21.24,25.18-57.83,38.92-108.77,40.83-3.9.15-7.79.26-11.67.37-24.45.7-47.54,1.36-69.47,9.91a104.37,104.37,0,0,0-24.62,13.58c-54.49,40.13-78.33,143.14-53.14,229.63Z" transform="translate(260.61 392.36)"/></g><g class="cls-21"><path class="cls-6" d="M212.93,1301c-26.45-88.43-.45-195.52,56.78-233.84a101.46,101.46,0,0,1,25.86-12.53c21.63-7,44-6.56,67.6-6.1,5.17.1,10.35.2,15.56.21h.78c34.77,0,81.25-7.24,107-41.45,1.68-2.23,3.32-4.64,4.89-7.16,11.46-18.37,15.94-38.65,20.27-58.27,4.68-21.23,9.11-41.29,21.77-57.42,11.08-14.13,27.33-21.61,47-21.65h.14c18.94,0,40.4,7,60.45,19.65,17.69,11.19,34.53,25.79,50.81,39.91,19.71,17.08,38.31,33.21,58.48,44.08C799.47,993,846.35,981.34,896,969c16.21-4,33-8.18,49.94-11,13.6-2.24,27.09-3.94,40.14-5.59,27.48-3.46,53.43-6.74,75.66-14.45,35.51-12.32,60.11-37.55,77.42-79.43,12.61-30.52,25-81,12.3-148.08-5.07-26.76-14.77-55.87-28.85-86.51-5.2-11.32-10.61-22.33-15.84-33-7.3-14.86-14.19-28.89-20.59-43.77a434.88,434.88,0,0,1-24.22-73.49c-20.19-87.43-13.26-185.62,19.52-276.49,4.07-11.33,8.58-22.57,13.4-33.4,36.22-81.19,93.53-152.21,170.31-211.11l1.09,3.16c-76.42,58.62-133.42,129.25-169.42,209.92-4.77,10.73-9.24,21.88-13.28,33.11-32.46,90-39.33,187.17-19.36,273.65a430.08,430.08,0,0,0,24,72.73c6.36,14.78,13.23,28.77,20.51,43.58,5.24,10.68,10.66,21.71,15.88,33.08,14.22,31,24,60.42,29.17,87.56,12.93,68.33.31,119.78-12.56,150.91-17.67,42.74-42.74,68.48-78.91,81-22.4,7.77-48.43,11.06-76,14.53-13,1.64-26.51,3.34-40.08,5.58-16.91,2.79-33.63,6.94-49.8,10.95-50,12.39-97.13,24.09-146.92-2.73-20.37-11-39.94-27.95-58.87-44.35-16.22-14.06-33-28.61-50.54-39.72-19.76-12.49-40.9-19.36-59.52-19.36h-.14c-19.09,0-34.8,7.22-45.45,20.8-12.15,15.48-16.48,35.08-21.06,55.82-4.4,20-9,40.64-20.78,59.58-1.62,2.6-3.32,5.09-5,7.39-26.46,35.21-73.95,42.5-109.34,42.36-5.21,0-10.41-.11-15.58-.21-23.5-.46-45.7-.87-67.07,6a99.54,99.54,0,0,0-25.38,12.3c-56.05,37.53-81.5,142.46-55.58,229.13Z" transform="translate(260.61 392.36)"/></g><g class="cls-22"><path class="cls-6" d="M221.09,1308.42c-13.33-43.44-14.12-94.12-2.17-139.06,11.49-43.23,33.9-77.63,61.47-94.36A96.91,96.91,0,0,1,307,1063.77c21.2-5.5,42.83-4,65.72-2.5,6.28.42,12.59.85,18.91,1.12,35.13,1.51,82.41-4.71,108.14-42.85,1.67-2.48,3.26-5.11,4.75-7.81,11.09-20.1,14.8-42.75,18.38-64.66,3.89-23.83,7.57-46.34,20.05-64.84,10.92-16.18,27.37-25.44,47.58-26.78,19.4-1.32,41.32,4.87,61.71,17.32,19.34,11.83,37.56,28,55.17,43.58s35.79,31.71,54.59,42.91c52.26,31.14,103.38,21.9,157.5,12.12,12-2.17,24.33-4.4,36.67-6.16,6.67-1,13.3-1.85,19.86-2.73,34.52-4.64,67.12-9,93.94-20.71,34.8-15.18,58-43.32,73.11-88.55,10.46-31.38,20.05-82.76,6.38-149.38-5.35-26.05-14.54-53.84-28.1-85-4.23-9.73-8.59-19.31-12.82-28.57-7.52-16.52-14.63-32.12-21.11-48.63A427.21,427.21,0,0,1,1065.72,468c-17.21-86.91-6.89-182.94,29.08-270.39,4.43-10.81,9.29-21.51,14.44-31.78C1147.37,90,1204.21,25.77,1283-30.58l1,3.21c-78.43,56.1-135,120-172.87,195.36-5.1,10.18-9.92,20.79-14.32,31.51C1061.23,286.08,1051,381.09,1068,467a422.93,422.93,0,0,0,21.5,72.86c6.44,16.41,13.52,32,21,48.42,4.23,9.29,8.6,18.88,12.85,28.64,13.68,31.4,23,59.49,28.37,85.86,13.9,67.74,4.13,120.05-6.52,152-15.4,46.19-39.09,74.91-74.58,90.38-27.05,11.79-59.76,16.19-94.4,20.85-6.55.88-13.17,1.77-19.84,2.72-12.31,1.76-24.67,4-36.62,6.15-54.43,9.84-105.84,19.14-158.67-12.35-19-11.29-37.24-27.49-54.92-43.15s-35.68-31.61-54.85-43.34c-20.08-12.27-41.65-18.31-60.71-17.07-19.6,1.3-35.51,10.21-46,25.76-12,17.79-15.6,39.83-19.42,63.16-3.64,22.29-7.41,45.34-18.85,66.07-1.53,2.79-3.18,5.51-4.9,8.07-26.34,39-74.31,45.4-109.9,43.89-6.34-.28-12.66-.7-18.95-1.12-22.76-1.54-44.26-3-65.2,2.45a95,95,0,0,0-26.14,11c-27,16.38-48.9,50-60.15,92.38-11.71,44-10.94,93.71,2.12,136.27Z" transform="translate(260.61 392.36)"/></g><g class="cls-23"><path class="cls-6" d="M229.26,1315.81c-13.74-43.66-14.49-94.56-2.07-139.65,12-43.66,35.31-77.69,63.87-93.36a93.44,93.44,0,0,1,27.41-9.91c20.88-4.15,42.94-1.61,64.28.84,7.14.82,14.53,1.68,21.82,2.27,29,2.37,81.73-.23,108.56-44.24,1.63-2.7,3.18-5.54,4.6-8.46,10.67-21.79,13.59-46.72,16.43-70.83,3.11-26.51,6.05-51.54,18.4-72.48,10.75-18.21,27.4-29.25,48.14-31.9,19.83-2.55,42.15,2.78,62.84,15,21,12.41,40.59,30.18,59.51,47.37,16.37,14.85,33.29,30.22,50.72,41.62,57.24,37.45,114.75,30.15,175.65,22.44,5.67-.72,11.36-1.45,17.05-2.13,43.22-5.19,81.46-10.78,111.78-26.84,33.8-17.9,56.32-49.85,68.82-97.66,8.36-32,15.23-84.07.45-150.68-5.59-25.15-14.27-51.66-27.34-83.42-3.18-7.74-6.39-15.34-9.58-22.89-7.85-18.6-15.27-36.17-21.86-54.75a427.06,427.06,0,0,1-19.24-73.82c-14.06-85.23,0-181.56,38.64-264.29,4.8-10.31,10-20.47,15.49-30.16,39.76-70.24,96.06-128,177.18-181.79l1,3.26C1221,42.89,1165,100.35,1125.46,170.16c-5.43,9.62-10.6,19.68-15.36,29.9-38.22,81.9-52.17,177.18-38.28,261.41a422.7,422.7,0,0,0,19,73c6.55,18.46,13.94,36,21.77,54.51,3.2,7.56,6.41,15.18,9.6,22.93,13.16,32,21.92,58.74,27.56,84.16,15,67.62,8,120.58-.48,153.09-12.78,48.84-35.76,81.46-70.25,99.73-30.59,16.2-69,21.82-112.39,27-5.69.68-11.37,1.4-17,2.12-61.21,7.76-119,15.09-176.81-22.72-17.58-11.5-34.57-26.92-51-41.84-18.84-17.11-38.32-34.8-59.15-47.11-20.35-12-42.29-17.25-61.75-14.75-20.12,2.58-36.22,13.2-46.56,30.71-11.9,20.18-14.79,44.74-17.84,70.74-2.88,24.51-5.86,49.85-16.85,72.32-1.47,3-3.07,6-4.76,8.75-27.5,45.11-81,47.82-110.46,45.41-7.32-.6-14.72-1.45-21.87-2.28-22.19-2.55-43.15-5-63.79-.86a91.62,91.62,0,0,0-26.89,9.72c-27.94,15.33-50.72,48.63-62.49,91.38-12.17,44.16-11.44,94,2,136.79Z" transform="translate(260.61 392.36)"/></g><g class="cls-24"><path class="cls-6" d="M237.42,1323.21c-14.14-43.88-14.86-95-2-140.21,12.56-44.11,36.73-77.79,66.3-92.39a91,91,0,0,1,28.17-8.6c20.65-2.91,42.26.59,63.15,4,8,1.3,16.28,2.65,24.43,3.63,23.61,2.82,81.48,4,109-45.65,1.61-2.91,3.11-6,4.47-9.1,10.22-23.45,12.38-50.6,14.47-76.86,2.22-28,4.52-56.86,16.77-80.26,10.54-20.17,27.38-33,48.69-37,20.32-3.73,43,.74,64,12.66,22.74,13,43.66,32.48,63.9,51.36,15.11,14.1,30.75,28.68,46.8,40.14,60.53,43.23,125,41.07,191.23,34.67,33.91-3.28,77-9.68,109.76-30.23,33.41-21,54.52-55.92,64.55-106.79,9.24-47,7.4-98.09-5.5-152-7.34-30.66-18.06-59.86-26.58-81.88q-3-7.78-6-15.47c-8.32-21.28-16.17-41.38-22.92-62.61a427.4,427.4,0,0,1-16.75-74c-11.17-84.87,6.4-179,48.21-258.18,5.17-9.81,10.73-19.42,16.54-28.55,52.6-82.58,124.14-132.68,180.6-167.11l.9,3.29c-56.23,34.3-127.48,84.19-179.77,166.28-5.76,9-11.27,18.56-16.4,28.29C1082,279,1064.59,372.06,1075.62,455.91a422,422,0,0,0,16.57,73.16c6.7,21.09,14.53,41.12,22.83,62.33,2,5.14,4,10.29,6,15.49,8.57,22.15,19.36,51.53,26.76,82.46,13.07,54.62,14.93,106.49,5.54,154.18-10.24,52-31.8,87.64-65.91,109.07-33.06,20.76-76.44,27.21-110.54,30.5-66.55,6.43-131.36,8.59-192.41-35-16.18-11.55-31.87-26.18-47-40.34-20.14-18.78-41-38.2-63.49-51-20.56-11.71-42.87-16.12-62.8-12.45-20.67,3.94-37,16.27-47.11,35.69-11.84,22.62-14,49.76-16.28,78.49-2.12,26.66-4.32,54.24-14.84,78.37-1.41,3.24-3,6.42-4.62,9.43-27.2,49.14-81.22,50.51-111,46.93-8.18-1-16.48-2.32-24.5-3.63-20.77-3.37-42.26-6.87-62.66-4a88.89,88.89,0,0,0-27.65,8.44c-28.92,14.28-52.56,47.23-64.85,90.4-12.61,44.28-11.91,94.32,1.93,137.28Z" transform="translate(260.61 392.36)"/></g><g class="cls-25"><path class="cls-6" d="M245.58,1330.61c-14.56-44.16-15.24-95.54-1.87-141,13.11-44.55,38.15-77.8,68.7-91.23a88.33,88.33,0,0,1,28.95-7.29c20.49-1.77,41.75,2.68,62.31,7,8.77,1.83,17.83,3.73,26.74,5.12,23.86,3.74,82.3,6.64,109.4-47,1.56-3.1,3-6.38,4.32-9.75,9.76-25,11.15-54.35,12.5-82.7,1.45-30.65,3-62.34,15.15-88.24,10.34-22.16,27.38-36.74,49.25-42.13,20.4-5,44.12-1.19,65.06,10.32,24.51,13.49,46.8,34.89,68.35,55.59,13.85,13.3,28.18,27.05,42.83,38.42,66.35,51.47,140.08,52.62,189.76,49,46.17-3.35,81.42-14.34,107.75-33.62,32.64-23.88,52.92-62.88,60.27-115.91,6.5-46.94,2.65-98.51-11.45-153.28-7.1-27.59-16.61-54.92-25.82-80.34l-2-5.48c-9-24.82-17.5-48.27-24.46-73.05a426.55,426.55,0,0,1-14.27-74.15c-8.3-84.6,12.76-176.47,57.78-252.06,5.54-9.32,11.45-18.38,17.58-26.94,52.7-73.46,122.6-118.29,184-152.45l.83,3.33c-61.2,34-130.84,78.69-183.23,151.72-6.07,8.48-11.94,17.47-17.42,26.7-44.56,74.81-65.41,165.63-57.21,249.18a421.38,421.38,0,0,0,14.11,73.29c6.92,24.62,15.39,48,24.36,72.74l2,5.48c9.25,25.52,18.8,53,25.95,80.76C1160.1,738,1164,790.28,1157.39,837.9c-7.51,54.16-28.22,94-61.56,118.39-26.63,19.49-62.18,30.6-108.69,34-50,3.63-124.11,2.44-191-49.43-14.74-11.43-29.11-25.23-43-38.58-21.44-20.59-43.62-41.89-67.88-55.24-20.57-11.31-43.85-15-63.85-10.15-21.22,5.24-37.71,19.3-47.68,40.66-11.82,25.1-13.23,54.9-14.73,86.45-1.37,28.75-2.78,58.48-12.81,84.23-1.36,3.5-2.87,6.9-4.49,10.11-27.83,55.15-87.28,52.27-111.55,48.45-9-1.4-18-3.3-26.82-5.14-20.45-4.28-41.59-8.71-61.84-7a87,87,0,0,0-28.41,7.15c-29.88,13.14-54.37,45.67-67.19,89.25-13.09,44.46-12.42,94.74,1.82,138Z" transform="translate(260.61 392.36)"/></g><g class="cls-26"><path class="cls-6" d="M253.74,1338c-14.93-44.31-15.6-95.83-1.83-141.34,13.64-45.07,39.58-78,71.17-90.43a87.53,87.53,0,0,1,29.72-6c20.4-.72,41.4,4.66,61.72,9.84,9.45,2.41,19.22,4.91,28.81,6.76,24.14,4.67,83.15,9.26,109.82-48.46,1.53-3.31,2.94-6.81,4.19-10.4,9.31-26.64,9.95-58.08,10.58-88.48.68-33.34,1.39-67.81,13.47-96.28,10.22-24.17,27.45-40.5,49.81-47.23,20.78-6.21,44.9-3.29,66.17,8,26.36,14,50,37.46,72.93,60.15,12.54,12.43,25.51,25.28,38.71,36.36,67.66,56.76,139.74,65.78,188.3,63.38,43.33-2,78.91-14.43,105.74-37,32.39-27.25,51.23-69.33,56-125.06,4-46.42-1.89-98.42-17.41-154.57-7-25.3-15.54-50.6-23.8-75.07l-1.26-3.73c-8.86-26.26-17.36-52.05-23.95-79a425.28,425.28,0,0,1-11.79-74.31c-5.44-84.4,19.11-174,67.35-245.94,5.91-8.81,12.18-17.32,18.63-25.31,55-68,125.59-106.76,187.45-137.8l.76,3.37c-61.66,30.94-132,69.6-186.68,137.17-6.4,7.92-12.62,16.36-18.47,25.09-47.74,71.14-72,159.74-66.66,243.08a420.22,420.22,0,0,0,11.65,73.43c6.55,26.75,15,52.45,23.84,78.61l1.26,3.73c8.29,24.53,16.85,49.89,23.88,75.32,15.68,56.72,21.59,109.33,17.57,156.37-4.87,56.91-24.12,99.88-57.2,127.71-27.17,22.86-63.11,35.46-106.84,37.46-48.85,2.42-121.4-6.67-189.54-63.84-13.28-11.14-26.28-24-38.86-36.5-22.78-22.57-46.33-45.92-72.41-59.76-20.88-11.07-44.53-13.93-64.9-7.85C610,836,593.28,851.8,583.41,875.13c-11.73,27.65-12.43,61.63-13.11,94.48-.63,30.81-1.28,62.67-10.84,90-1.3,3.72-2.76,7.35-4.34,10.78-27.41,59.34-87.53,54.7-112.1,50-9.63-1.86-19.43-4.36-28.91-6.78-20.2-5.15-41.09-10.47-61.25-9.79a86,86,0,0,0-29.17,5.86c-30.89,12.12-56.26,44.36-69.6,88.45-13.48,44.53-12.83,94.93,1.79,138.28Z" transform="translate(260.61 392.36)"/></g><g class="cls-27"><path class="cls-6" d="M261.91,1345.39c-15.31-44.45-16-96.1-1.81-141.7s41-78.29,73.65-89.65c30.28-10.52,61.57-1.14,91.83,8,10.07,3,20.48,6.15,30.67,8.48,19.05,4.35,83.31,13.63,110.25-49.87,12.93-30.48,12.83-68.47,12.73-105.22C579.13,939.32,579,902,591,871c22.36-58,77.29-67.31,117.63-46.67,28.28,14.46,53.38,40.2,77.66,65.1,11.18,11.46,22.73,23.32,34.45,33.91,104.78,94.75,241.73,104.11,305.28,20.87,31.12-40.75,58.74-121.3,13.65-273.58-4.85-16.38-10.18-33-15.32-49-18.57-57.85-37.76-117.67-39.74-182.16-2.89-94.23,34.13-195.2,96.6-263.51,54.21-59.28,118.51-90.84,190.87-123.15l.68,3.41c-72.14,32.21-136.24,63.66-190.14,122.61-61.84,67.62-98.48,167.43-95.62,260.48,2,63.76,21,123.25,39.5,180.78,5.16,16.07,10.49,32.69,15.35,49.11,45.68,154.26,17.47,236.16-14.25,277.69-64.28,84.2-202.5,75-308.1-20.49-11.77-10.65-23.36-22.54-34.57-34-24.14-24.76-49.1-50.36-77.07-64.67-39.43-20.16-93.07-11.22-114.79,45.08-11.67,30.23-11.57,67-11.47,102.63.1,37.25.2,75.77-13.1,107.13-27.71,65.32-93.22,55.92-112.64,51.49-10.24-2.34-20.67-5.48-30.77-8.51-30-9-61.05-18.33-90.82-8-31.92,11.1-58.17,43.06-72,87.68s-13.2,95.1,1.77,138.58Z" transform="translate(260.61 392.36)"/></g></g></g></g></g></svg>