<svg id="Layer_1" data-name="Layer 1" xmlns="http://www.w3.org/2000/svg" viewBox="0 0 536.85 574.4"><defs><style>.cls-1{fill:#2ba9ab;}.cls-2{fill:#3a4256;}.cls-3{fill:#4f6db0;}.cls-4{fill:#fff;}</style></defs><path class="cls-1" d="M86.38,584.17V533.46L72.06,584.21H49.16L34.85,533.33v50.88H10V500.89H45.39L60.61,557l15.23-56.08h35.4v83.28Z" transform="translate(-10 -11.07)"/><path class="cls-1" d="M126.58,584.17V500.89h61.81v19.92h-37v12h33.19v18.1H151.43v13.39h37v19.92Z" transform="translate(-10 -11.07)"/><path class="cls-1" d="M232.5,584.17H200.39V500.89h33.45c26.8,0,39.42,16,39.42,41.12S259.68,584.17,232.5,584.17Zm-2.61-63.36h-4.58v43.45h4c12.1,0,19.25-3.12,19.25-22.37C248.65,523,242.13,520.81,229.89,520.81Z" transform="translate(-10 -11.07)"/><path class="cls-1" d="M285.84,584.17V500.89h25v83.28Z" transform="translate(-10 -11.07)"/><path class="cls-1" d="M362.09,585.47c-33.18,0-39.17-22.12-39.17-42.94s6.11-42.95,39.17-42.95c28.62,0,38.39,16.79,38.39,36.31h-25c-1.29-12.1-5.06-16.13-13.39-16.13-12.24,0-13.93,10.41-13.93,22.77s1,22.9,13.93,22.9c8.45,0,11.84-4,13.39-16.54h25C400.48,569.33,390.85,585.47,362.09,585.47Z" transform="translate(-10 -11.07)"/><path class="cls-1" d="M463.71,584.17l-4-13.62h-26l-4.43,13.62H403.07l29.44-83.28h29.18l28.37,83.28Zm-17-62.72-8.46,30.7h16.92Z" transform="translate(-10 -11.07)"/><path class="cls-1" d="M496.1,584.17V500.89h25.12L521,564.25h25.9v19.92Z" transform="translate(-10 -11.07)"/><path class="cls-2" d="M482.05,145.77A46.81,46.81,0,0,0,448.82,132a73.93,73.93,0,0,1-73.93-73.93,47,47,0,0,0-47-47H229a47,47,0,0,0-47,47A73.93,73.93,0,0,1,108.05,132h0a47,47,0,0,0-47,47v98.93a47,47,0,0,0,47,47h0A73.93,73.93,0,0,1,182,398.87a47,47,0,0,0,47,47h98.92a47,47,0,0,0,47-47,73.93,73.93,0,0,1,73.93-73.93,47,47,0,0,0,47-47V179A46.81,46.81,0,0,0,482.05,145.77ZM278.42,339.93A111.47,111.47,0,1,1,389.89,228.46,111.47,111.47,0,0,1,278.42,339.93Z" transform="translate(-10 -11.07)"/><path class="cls-3" d="M327.89,434.3H229a35.47,35.47,0,0,1-35.43-35.44A85.5,85.5,0,0,0,108,313.38a35.49,35.49,0,0,1-35.46-35.46V179A35.48,35.48,0,0,1,108,143.55a85.61,85.61,0,0,0,85.51-85.48A35.45,35.45,0,0,1,229,22.63h98.92a35.48,35.48,0,0,1,35.44,35.44,85.48,85.48,0,0,0,85.48,85.48h0A35.47,35.47,0,0,1,484.27,179v98.93a35.5,35.5,0,0,1-35.45,35.46,85.49,85.49,0,0,0-85.49,85.48h0A35.48,35.48,0,0,1,327.89,434.3ZM229,26.7a31.39,31.39,0,0,0-31.36,31.37A89.67,89.67,0,0,1,108,147.63,31.4,31.4,0,0,0,76.66,179v98.93A31.41,31.41,0,0,0,108,309.31a89.55,89.55,0,0,1,89.57,89.53v0A31.38,31.38,0,0,0,229,430.21h98.92a31.36,31.36,0,0,0,31.36-31.35,89.55,89.55,0,0,1,89.55-89.55h0a31.42,31.42,0,0,0,31.36-31.39V179a31.38,31.38,0,0,0-31.38-31.36,89.55,89.55,0,0,1-89.57-89.54v0A31.4,31.4,0,0,0,327.87,26.7Zm49.45,328.86c-70,0-127.09-57-127.09-127.1a127.1,127.1,0,1,1,127.09,127.1Zm0-250.12a123,123,0,1,0,123,123h0a123.16,123.16,0,0,0-123-123Z" transform="translate(-10 -11.07)"/><circle class="cls-1" cx="268.42" cy="217.39" r="102.19"/><path class="cls-4" d="M338.73,215v26.94a11.79,11.79,0,0,1-11.79,11.79H303.69V277a11.79,11.79,0,0,1-11.79,11.8H265A11.79,11.79,0,0,1,253.17,277V253.72H229.91a11.79,11.79,0,0,1-11.79-11.79V215A11.78,11.78,0,0,1,229.9,203.2h23.27V180a11.77,11.77,0,0,1,11.77-11.79h27A11.79,11.79,0,0,1,303.69,180V203.2h23.25A11.79,11.79,0,0,1,338.73,215Z" transform="translate(-10 -11.07)"/><path class="cls-3" d="M118.92,148s22.44-2.83,44.22-21.31S195.4,84,195.4,84s-4.23,28.87-28,47.93S118.92,148,118.92,148Z" transform="translate(-10 -11.07)"/><path class="cls-3" d="M128.43,150.29s18.83-3.61,38.62-19.13,28.75-37,28.75-37-4.27,24.73-25.18,41.5S128.43,150.29,128.43,150.29Z" transform="translate(-10 -11.07)"/><path class="cls-3" d="M138.47,151.15s16-2.66,32.35-15.75,23.77-31.13,23.77-31.13-3.25,21-20.7,35S138.47,151.15,138.47,151.15Z" transform="translate(-10 -11.07)"/><path class="cls-3" d="M437.55,148s-22.43-2.83-44.21-21.31S361.07,84,361.07,84s4.23,28.87,28,47.93S437.55,148,437.55,148Z" transform="translate(-10 -11.07)"/><path class="cls-3" d="M428,150.29s-18.84-3.61-38.62-19.13-28.75-37-28.75-37,4.27,24.73,25.15,41.48S428,150.29,428,150.29Z" transform="translate(-10 -11.07)"/><path class="cls-3" d="M418,151.15s-16-2.66-32.36-15.75-23.77-31.13-23.77-31.13,3.25,21,20.7,35S418,151.15,418,151.15Z" transform="translate(-10 -11.07)"/><path class="cls-3" d="M120.57,312.06s22.43,2.83,44.21,21.31S197.1,376,197.1,376s-4.24-28.87-28-47.93S120.57,312.06,120.57,312.06Z" transform="translate(-10 -11.07)"/><path class="cls-3" d="M130.07,309.71s18.83,3.62,38.62,19.14,28.76,37,28.76,37-4.27-24.74-25.19-41.5S130.07,309.71,130.07,309.71Z" transform="translate(-10 -11.07)"/><path class="cls-3" d="M140.11,308.89s16,2.66,32.35,15.75,23.77,31.13,23.77,31.13-3.25-21-20.69-35S140.11,308.89,140.11,308.89Z" transform="translate(-10 -11.07)"/><path class="cls-3" d="M435.67,312.06s-22.44,2.83-44.22,21.31S359.19,376,359.19,376s4.23-28.87,28-47.93S435.67,312.06,435.67,312.06Z" transform="translate(-10 -11.07)"/><path class="cls-3" d="M426.16,309.71s-18.84,3.62-38.62,19.14-28.75,37-28.75,37,4.26-24.74,25.19-41.5S426.16,309.71,426.16,309.71Z" transform="translate(-10 -11.07)"/><path class="cls-3" d="M416.13,308.89s-16,2.66-32.37,15.75S360,355.77,360,355.77s3.26-21,20.69-35S416.13,308.89,416.13,308.89Z" transform="translate(-10 -11.07)"/></svg>