<svg id="Layer_1" data-name="Layer 1" xmlns="http://www.w3.org/2000/svg" viewBox="0 0 404.14 475.07"><defs><style>.cls-1{fill:#304269;}.cls-2{fill:#4f6db0;}.cls-3{fill:#2ba9ab;}.cls-4{fill:#fff;}</style></defs><path class="cls-1" d="M683.09,332.37A42.12,42.12,0,0,0,653.21,320a66.47,66.47,0,0,1-66.48-66.48,42.26,42.26,0,0,0-42.25-42.25h-89a42.27,42.27,0,0,0-42.25,42.25A66.47,66.47,0,0,1,346.8,320h0a42.27,42.27,0,0,0-42.27,42.25v89a42.29,42.29,0,0,0,42.27,42.27h0a66.47,66.47,0,0,1,66.48,66.46,42.26,42.26,0,0,0,42.25,42.26h89a42.29,42.29,0,0,0,42.25-42.26,66.47,66.47,0,0,1,66.48-66.46,42.29,42.29,0,0,0,42.27-42.27v-89A42,42,0,0,0,683.09,332.37ZM500,507A100.23,100.23,0,1,1,600.23,406.72,100.22,100.22,0,0,1,500,507Z" transform="translate(-297.93 -211.26)"/><path class="cls-2" d="M544.48,591.8h-89a31.9,31.9,0,0,1-31.86-31.87,76.85,76.85,0,0,0-76.87-76.85,31.92,31.92,0,0,1-31.89-31.88v-89a31.9,31.9,0,0,1,31.88-31.86,77,77,0,0,0,76.88-76.87,31.87,31.87,0,0,1,31.86-31.86h89a31.89,31.89,0,0,1,31.86,31.86,76.87,76.87,0,0,0,76.87,76.87,31.89,31.89,0,0,1,31.88,31.86v89a31.91,31.91,0,0,1-31.88,31.88,76.87,76.87,0,0,0-76.87,76.85,31.89,31.89,0,0,1-31.86,31.87Zm-89-366.49a28.24,28.24,0,0,0-28.19,28.2,80.64,80.64,0,0,1-80.55,80.54,28.23,28.23,0,0,0-28.21,28.19v89a28.24,28.24,0,0,0,28.22,28.21,80.54,80.54,0,0,1,80.54,80.52,28.23,28.23,0,0,0,28.19,28.2h89a28.22,28.22,0,0,0,28.2-28.2,80.52,80.52,0,0,1,80.53-80.52,28.24,28.24,0,0,0,28.21-28.21v-89a28.2,28.2,0,0,0-28.21-28.19,80.52,80.52,0,0,1-80.53-80.54,28.23,28.23,0,0,0-28.2-28.2ZM500,521A114.28,114.28,0,1,1,614.28,406.72,114.4,114.4,0,0,1,500,521Zm0-224.89A110.62,110.62,0,1,0,610.61,406.72,110.74,110.74,0,0,0,500,296.11Z" transform="translate(-297.93 -211.26)"/><circle class="cls-3" cx="202.07" cy="195.46" r="91.88"/><path class="cls-4" d="M554.22,394.61v24.23a10.59,10.59,0,0,1-10.6,10.59h-20.9v20.91A10.61,10.61,0,0,1,512.12,461H487.88a10.61,10.61,0,0,1-10.59-10.61V429.43H456.38a10.59,10.59,0,0,1-10.6-10.59V394.61a10.6,10.6,0,0,1,10.6-10.6h20.91V363.1a10.6,10.6,0,0,1,10.59-10.6h24.24a10.61,10.61,0,0,1,10.6,10.6V384h20.9A10.6,10.6,0,0,1,554.22,394.61Z" transform="translate(-297.93 -211.26)"/><path class="cls-2" d="M356.58,334.36s20.18-2.54,39.76-19.16,29-38.32,29-38.32-3.8,26-25.17,43.1S356.58,334.36,356.58,334.36Z" transform="translate(-297.93 -211.26)"/><path class="cls-2" d="M365.13,336.44s16.94-3.25,34.73-17.2,25.85-33.32,25.85-33.32-3.84,22.24-22.65,37.32S365.13,336.44,365.13,336.44Z" transform="translate(-297.93 -211.26)"/><path class="cls-2" d="M374.16,337.21s14.37-2.4,29.09-14.16a77.41,77.41,0,0,0,21.37-28s-2.93,18.88-18.6,31.45S374.16,337.21,374.16,337.21Z" transform="translate(-297.93 -211.26)"/><path class="cls-2" d="M643.08,334.36s-20.18-2.54-39.76-19.16-29-38.32-29-38.32,3.8,26,25.17,43.1S643.08,334.36,643.08,334.36Z" transform="translate(-297.93 -211.26)"/><path class="cls-2" d="M634.53,336.44s-16.94-3.25-34.73-17.2S574,285.92,574,285.92s3.84,22.24,22.65,37.32S634.53,336.44,634.53,336.44Z" transform="translate(-297.93 -211.26)"/><path class="cls-2" d="M625.51,337.21s-14.38-2.4-29.1-14.16a77.41,77.41,0,0,1-21.37-28s2.93,18.88,18.6,31.45S625.51,337.21,625.51,337.21Z" transform="translate(-297.93 -211.26)"/><path class="cls-2" d="M358.06,481.89s20.18,2.54,39.76,19.16,29,38.32,29,38.32-3.81-26-25.18-43.1S358.06,481.89,358.06,481.89Z" transform="translate(-297.93 -211.26)"/><path class="cls-2" d="M366.61,479.8s16.94,3.26,34.73,17.21,25.85,33.32,25.85,33.32-3.84-22.24-22.65-37.32S366.61,479.8,366.61,479.8Z" transform="translate(-297.93 -211.26)"/><path class="cls-2" d="M375.63,479s14.38,2.39,29.1,14.16a77.41,77.41,0,0,1,21.37,28s-2.93-18.88-18.61-31.45S375.63,479,375.63,479Z" transform="translate(-297.93 -211.26)"/><path class="cls-2" d="M641.39,481.89s-20.18,2.54-39.76,19.16-29,38.32-29,38.32,3.8-26,25.17-43.1S641.39,481.89,641.39,481.89Z" transform="translate(-297.93 -211.26)"/><path class="cls-2" d="M632.83,479.8S615.9,483.06,598.11,497s-25.85,33.32-25.85,33.32S576.1,508.09,594.9,493,632.83,479.8,632.83,479.8Z" transform="translate(-297.93 -211.26)"/><path class="cls-2" d="M623.81,479s-14.37,2.39-29.09,14.16a77.41,77.41,0,0,0-21.37,28s2.92-18.88,18.6-31.45S623.81,479,623.81,479Z" transform="translate(-297.93 -211.26)"/><path class="cls-1" d="M355.43,685.35V647.14l-10.77,38.21H327.42l-10.78-38.3v38.3H297.93v-62.7h26.65L336,664.87l11.46-42.22h26.64v62.7Z" transform="translate(-297.93 -211.26)"/><path class="cls-1" d="M385.69,685.35v-62.7h46.53v15H404.4v9h25v13.62h-25v10.09h27.82v15Z" transform="translate(-297.93 -211.26)"/><path class="cls-1" d="M465.42,685.35H441.23v-62.7H466.4c20.18,0,29.68,12.05,29.68,31S485.9,685.35,465.42,685.35Zm-1.95-47.71H460v32.72h3c9.11,0,14.5-2.35,14.5-16.85C477.57,639.31,472.67,637.64,463.47,637.64Z" transform="translate(-297.93 -211.26)"/><path class="cls-1" d="M505.58,685.35v-62.7h18.81v62.7Z" transform="translate(-297.93 -211.26)"/><path class="cls-1" d="M563,686.32c-25,0-29.48-16.65-29.48-32.32s4.6-32.32,29.48-32.32c21.55,0,28.9,12.63,28.9,27.32H573.07c-1-9.11-3.82-12.14-10.09-12.14-9.21,0-10.48,7.83-10.48,17.14s.78,17.24,10.48,17.24c6.37,0,8.91-3,10.09-12.44h18.81C591.88,674.18,584.63,686.32,563,686.32Z" transform="translate(-297.93 -211.26)"/><path class="cls-1" d="M639.48,685.35l-3-10.29H616.85l-3.33,10.29H593.83L616,622.65h21.94l21.36,62.7Zm-12.83-47.22-6.37,23.12H633Z" transform="translate(-297.93 -211.26)"/><path class="cls-1" d="M663.87,685.35v-62.7h18.9l-.19,47.71h19.49v15Z" transform="translate(-297.93 -211.26)"/></svg>