<svg xmlns="http://www.w3.org/2000/svg" viewBox="0 0 512 512"><defs><style>.cls-1{isolation:isolate;}.cls-2{fill:#9fdff4;opacity:0.7;}.cls-3,.cls-5{fill:#fff;}.cls-3{opacity:0.4;}.cls-4,.cls-8{fill:#a1e1f6;}.cls-6{fill:#e0e0e0;}.cls-7{fill:#2c216c;}.cls-11,.cls-8{mix-blend-mode:multiply;}.cls-9{fill:#0f123a;}.cls-10{fill:#88d4e7;}</style></defs><g class="cls-1"><g id="Layer_1" data-name="Layer 1"><path class="cls-2" d="M465.51,189.32,407.29,88.48a93.6,93.6,0,0,0-81.06-46.8H162.83a93.6,93.6,0,0,0-81.07,46.8L23.54,189.32a93.6,93.6,0,0,0,0,93.6L81.76,383.76a93.6,93.6,0,0,0,81.07,46.8h163.4a93.6,93.6,0,0,0,81.06-46.8l58.22-100.84A93.6,93.6,0,0,0,465.51,189.32Z"/><polygon class="cls-3" points="380.8 124.65 380.8 96.65 348.32 96.65 348.32 124.65 320.32 124.65 320.32 157.13 348.32 157.13 348.32 185.13 380.8 185.13 380.8 157.13 408.8 157.13 408.8 124.65 380.8 124.65"/><ellipse class="cls-4" cx="244.53" cy="460.27" rx="216.68" ry="10.05"/><polygon class="cls-5" points="183.71 351.8 249.15 176.03 255.18 178.28 259.67 173.67 297.64 210.72 288.66 219.93 257.75 189.78 196.74 353.64 246.61 451.85 235.14 457.67 184 356.95 189.73 354.04 183.71 351.8"/><path class="cls-6" d="M244,190,249.15,176l6,2.24,4.49-4.6,10.64,10.39a16.22,16.22,0,0,1-9,9.21l-3.59-3.49L256,194.45c-.28,0-.55.05-.84.05A16.12,16.12,0,0,1,244,190Z"/><path class="cls-6" d="M281,194.46l16.67,16.27-9,9.2-17.48-17.05a44.68,44.68,0,0,1,3.09-3.24A43.79,43.79,0,0,1,281,194.46Z"/><ellipse class="cls-7" cx="291.87" cy="217.82" rx="30.42" ry="20.44" transform="translate(-69.98 258.98) rotate(-43.22)"/><ellipse class="cls-5" cx="299.94" cy="225.67" rx="39.74" ry="26.71" transform="translate(-73.17 266.64) rotate(-43.22)"/><ellipse class="cls-6" cx="302.45" cy="228.12" rx="31.61" ry="21.25" transform="translate(-74.17 269.02) rotate(-43.22)"/><ellipse class="cls-5" cx="303.26" cy="228.12" rx="8.44" ry="5.67" transform="translate(-73.95 269.57) rotate(-43.22)"/><ellipse class="cls-5" cx="307.22" cy="211.37" rx="8.44" ry="5.67" transform="translate(-61.4 267.74) rotate(-43.22)"/><ellipse class="cls-5" cx="319.33" cy="228.12" rx="6.92" ry="4.65" transform="translate(-69.59 280.58) rotate(-43.22)"/><ellipse class="cls-5" cx="285.88" cy="228.67" rx="8.44" ry="5.67" transform="translate(-79.04 257.82) rotate(-43.22)"/><ellipse class="cls-5" cx="298.73" cy="244.8" rx="6.47" ry="4.35" transform="translate(-86.6 271) rotate(-43.22)"/><circle class="cls-7" cx="255.17" cy="178.27" r="10.65"/><circle class="cls-5" cx="255.17" cy="178.27" r="5.88"/><circle class="cls-7" cx="190.34" cy="352.94" r="10.65"/><circle class="cls-5" cx="190.34" cy="352.94" r="5.88"/><path class="cls-5" d="M433.68,174.93h6.09a0,0,0,0,1,0,0V414.68a0,0,0,0,1,0,0h-3.14a3,3,0,0,1-3-3V174.93a0,0,0,0,1,0,0Z" transform="matrix(-0.85, -0.52, 0.52, -0.85, 654.34, 774.68)"/><polygon class="cls-4" points="256.35 451.61 319.67 451.61 387.4 361.92 324.08 361.92 256.35 451.61"/><polygon class="cls-8" points="285.98 412.37 324.08 361.92 387.4 361.92 349.31 412.37 285.98 412.37"/><path class="cls-5" d="M260.12,342.3H380.84a23.06,23.06,0,0,1,23.06,23.06v33.19a8.21,8.21,0,0,1-8.21,8.21H260.12a8.21,8.21,0,0,1-8.21-8.21v-48a8.21,8.21,0,0,1,8.21-8.21Z" transform="translate(655.81 749.06) rotate(180)"/><path class="cls-6" d="M265.32,342.3H390.49a13.4,13.4,0,0,1,13.37,12.45H283.18a44.56,44.56,0,0,0-26,8.37l-5.28,3.8V355.71A13.41,13.41,0,0,1,265.32,342.3Z"/><path class="cls-5" d="M327,447.81l-13.31-26.62s-7.82-8-49.43-1.05-61.89,13.94-74.56,40.13H410.4S410,452,392.45,449.92,327,447.81,327,447.81Z"/><path class="cls-7" d="M395.22,330.63h0A11.67,11.67,0,0,0,383.55,319H266.46a44.52,44.52,0,0,0-26.25,8.55l-93.69,68.35a12.64,12.64,0,0,0-5.2,10.22h0a12.66,12.66,0,0,0,20.05,10.28l91.41-65.69a44.54,44.54,0,0,1,26-8.37H383.55A11.68,11.68,0,0,0,395.22,330.63Z"/><path class="cls-9" d="M161.37,409.42l91.41-65.69a44.54,44.54,0,0,1,26-8.37H383.55a11.66,11.66,0,0,0,11.14-8.2,11.35,11.35,0,0,1,.53,3.47,11.68,11.68,0,0,1-11.67,11.67H278.77a44.54,44.54,0,0,0-26,8.37l-91.41,65.69a12.63,12.63,0,0,1-19.56-13.7A12.67,12.67,0,0,0,161.37,409.42Z"/><path class="cls-9" d="M306.78,330.45A96.17,96.17,0,0,1,309.53,319H326a27.16,27.16,0,0,0,1.44,11.73c1.22,3.47,3.13,7.55,4,11.61H305.86A52.65,52.65,0,0,1,306.78,330.45Z"/><path class="cls-7" d="M301,330.45c4-22.38,13-34.19,21.8-37.41s45.05-4.27,51.77-2.64,7.06,6.21,7.06,6.21-40.76.19-49,3.21-16.09,16.49-11,30.87c2.18,6.2,6.56,14.34,3.24,20.86-3.4,6.69-13.6,9-19.35,4.06C298.75,349.76,299.61,338.29,301,330.45Z"/><circle class="cls-10" cx="313.2" cy="344.66" r="7.38"/><path class="cls-7" d="M417.72,199.75h16.47a15.17,15.17,0,0,1,15.17,15.17V313a15.17,15.17,0,0,1-15.17,15.17H417.72a0,0,0,0,1,0,0V199.75A0,0,0,0,1,417.72,199.75Z" transform="translate(664.6 715.9) rotate(-148.41)"/><rect class="cls-7" x="472.7" y="178.33" width="22.05" height="26.36" rx="8.8" transform="translate(795.47 608.01) rotate(-148.41)"/><path class="cls-6" d="M327,447.81H251.91s18.45-27.18,61.75-26.62Z"/><path class="cls-9" d="M471.27,212.32c-.35-.21-.71-.38-1.06-.58A25.11,25.11,0,0,1,474.8,214l5.85,3.6L413.38,327l-3.28-2,67-109Z"/><path class="cls-9" d="M477.76,203.32a8.7,8.7,0,0,0,9.49-3.87l4.66-7.58a8.74,8.74,0,0,0-2.86-12l-2.9-1.77a8.62,8.62,0,0,1,2.52,1l3.9,2.4a8.74,8.74,0,0,1,2.87,12l-4.66,7.58a8.73,8.73,0,0,1-12,2.86Z"/><rect class="cls-7" x="78.28" y="294.39" width="48.15" height="19.94"/><rect class="cls-9" x="78.28" y="294.39" width="48.15" height="4.89"/><rect class="cls-5" x="61.04" y="258.48" width="82.61" height="35.91" rx="4.48"/><g class="cls-11"><path class="cls-6" d="M70.25,287.62V258.48H67.82A6.78,6.78,0,0,0,61,265.25v22.37a6.78,6.78,0,0,0,6.78,6.77H77A6.77,6.77,0,0,1,70.25,287.62Z"/></g><g class="cls-11"><path class="cls-6" d="M128.14,258.48H110.91a7.7,7.7,0,0,1,1.38,4.42v24.17a7.06,7.06,0,0,1-6.77,7.32h22.62a6.54,6.54,0,0,0,6.27-6.77V265.25A6.54,6.54,0,0,0,128.14,258.48Z"/></g><path class="cls-7" d="M60.23,344.3H165.69a0,0,0,0,1,0,0v3.59a3.73,3.73,0,0,1-3.73,3.73H64a3.73,3.73,0,0,1-3.73-3.73V344.3A0,0,0,0,1,60.23,344.3Z"/><path class="cls-5" d="M147.94,308.08H78a17.75,17.75,0,0,0-17.75,17.74V344.3H165.69V325.82A17.75,17.75,0,0,0,147.94,308.08Z"/><rect class="cls-7" x="109.21" y="351.62" width="7.51" height="94.76"/><rect class="cls-9" x="109.21" y="351.62" width="7.51" height="23.84"/><path class="cls-7" d="M106.82,351.62H119.1a0,0,0,0,1,0,0V367.2a1.44,1.44,0,0,1-1.44,1.44h-9.4a1.44,1.44,0,0,1-1.44-1.44V351.62A0,0,0,0,1,106.82,351.62Z"/><rect class="cls-9" x="106.82" y="351.62" width="12.29" height="4.99"/><path class="cls-6" d="M126.72,312.73H66a17.65,17.65,0,0,0-5.8,13.09V344.3h84.24V330.48A17.74,17.74,0,0,0,126.72,312.73Z"/><path class="cls-7" d="M78,459H69.45v-5.65A11.27,11.27,0,0,1,80.7,442.08h61.71a11.26,11.26,0,0,1,11.25,11.25v4.79h-8.59v-4.79a2.67,2.67,0,0,0-2.66-2.66H80.7A2.67,2.67,0,0,0,78,453.33Z"/><rect class="cls-7" x="114.81" y="446.38" width="8.59" height="12.6"/><path class="cls-7" d="M50.4,299.33c0,8.12-7.63,8.75-7.63,8.75,6.31,0,7.63,8.74,7.63,8.74s1.32-8.74,7.62-8.74C58,308.08,50.4,307.45,50.4,299.33Z"/><path class="cls-7" d="M153.66,236.8c0,12.49-11.71,13.45-11.71,13.45,9.69,0,11.71,13.45,11.71,13.45s2-13.45,11.72-13.45C165.38,250.25,153.66,249.29,153.66,236.8Z"/><path class="cls-7" d="M295.47,155c-10.76,0-13,14.94-13,14.94S280.2,155,269.44,155c0,0,13-1.06,13-14.94C282.46,153.93,295.47,155,295.47,155Z"/><path class="cls-7" d="M405.65,245c-15.09,0-18.25,20.95-18.25,20.95S384.24,245,369.15,245c0,0,18.25-1.5,18.25-20.95C387.4,243.45,405.65,245,405.65,245Z"/></g></g></svg>