<svg width="504" height="320" viewBox="0 0 504 320" fill="none" xmlns="http://www.w3.org/2000/svg">
<path d="M17.955 138.821C17.561 138.821 17.1708 138.744 16.8068 138.593C16.4428 138.442 16.1122 138.221 15.834 137.942L1.83401 123.942C1.28753 123.376 0.98513 122.618 0.991965 121.832C0.9988 121.045 1.31431 120.293 1.87054 119.737C2.42676 119.18 3.17919 118.865 3.96578 118.858C4.75237 118.851 5.51017 119.154 6.07598 119.7L20.076 133.7C20.4954 134.12 20.781 134.654 20.8967 135.236C21.0125 135.818 20.953 136.421 20.726 136.969C20.499 137.517 20.1146 137.986 19.6214 138.315C19.1281 138.645 18.5482 138.821 17.955 138.821Z" fill="#0CBC8B"/>
<path d="M3.95498 138.821C3.36173 138.821 2.78186 138.645 2.28863 138.315C1.7954 137.986 1.41096 137.517 1.18395 136.969C0.956943 136.421 0.897536 135.818 1.01324 135.236C1.12894 134.654 1.41458 134.12 1.83401 133.7L15.834 119.7C16.3998 119.154 17.1576 118.851 17.9442 118.858C18.7308 118.865 19.4832 119.18 20.0395 119.737C20.5957 120.293 20.9112 121.045 20.918 121.832C20.9249 122.618 20.6225 123.376 20.076 123.942L6.07598 137.942C5.79783 138.221 5.46727 138.442 5.10327 138.593C4.73926 138.744 4.349 138.822 3.95498 138.821Z" fill="#0CBC8B"/>
<path d="M418.804 272.631L414.807 281.798L439.401 292.52L443.397 283.353L418.804 272.631Z" fill="#0CBC8B"/>
<path d="M426.567 26.8716L403.436 40.4637L408.502 49.0854L431.633 35.4933L426.567 26.8716Z" fill="#0CBC8B"/>
<path d="M41.1171 50.1484L38.0191 59.6564L63.5292 67.9682L66.6271 58.4602L41.1171 50.1484Z" fill="#0CBC8B"/>
<path d="M70.9811 209.62L49.0082 224.993L54.7382 233.183L76.7111 217.81L70.9811 209.62Z" fill="#0CBC8B"/>
<path d="M473.996 174.381L473.078 184.339L499.21 186.748L500.128 176.79L473.996 174.381Z" fill="#0CBC8B"/>
<path d="M500.609 102.752C500.215 102.753 499.825 102.675 499.461 102.524C499.097 102.373 498.766 102.152 498.488 101.873L484.488 87.873C484.201 87.5962 483.973 87.2652 483.816 86.8992C483.658 86.5332 483.576 86.1395 483.572 85.7412C483.569 85.3429 483.645 84.9478 483.796 84.5791C483.946 84.2104 484.169 83.8755 484.451 83.5938C484.732 83.3121 485.067 83.0894 485.436 82.9385C485.805 82.7877 486.2 82.7118 486.598 82.7152C486.997 82.7187 487.39 82.8015 487.756 82.9587C488.122 83.1159 488.453 83.3445 488.73 83.631L502.73 97.631C503.149 98.0506 503.435 98.585 503.551 99.1669C503.666 99.7487 503.607 100.352 503.38 100.9C503.153 101.448 502.769 101.917 502.275 102.246C501.782 102.576 501.202 102.752 500.609 102.752Z" fill="#0CBC8B"/>
<path d="M486.609 102.752C486.016 102.752 485.436 102.576 484.943 102.246C484.449 101.917 484.065 101.448 483.838 100.9C483.611 100.352 483.552 99.7487 483.667 99.1669C483.783 98.585 484.069 98.0506 484.488 97.631L498.488 83.631C498.765 83.3445 499.096 83.1159 499.462 82.9587C499.828 82.8015 500.221 82.7187 500.62 82.7152C501.018 82.7118 501.413 82.7877 501.782 82.9385C502.151 83.0894 502.486 83.3121 502.767 83.5938C503.049 83.8755 503.272 84.2104 503.422 84.5791C503.573 84.9478 503.649 85.3429 503.646 85.7412C503.642 86.1395 503.56 86.5332 503.402 86.8992C503.245 87.2652 503.017 87.5962 502.73 87.873L488.73 101.873C488.452 102.152 488.121 102.373 487.757 102.524C487.393 102.675 487.003 102.752 486.609 102.752Z" fill="#0CBC8B"/>
<path opacity="0.4" d="M254.158 319.089C342.263 319.089 413.687 247.665 413.687 159.56C413.687 71.4546 342.263 0.0310059 254.158 0.0310059C166.053 0.0310059 94.629 71.4546 94.629 159.56C94.629 247.665 166.053 319.089 254.158 319.089Z" fill="#0CBC8B"/>
<path d="M254.158 271.127C315.775 271.127 365.725 221.177 365.725 159.56C365.725 97.9432 315.775 47.993 254.158 47.993C192.541 47.993 142.591 97.9432 142.591 159.56C142.591 221.177 192.541 271.127 254.158 271.127Z" fill="#0CBC8B"/>
<path d="M231.345 207.423C230.469 207.424 229.602 207.247 228.796 206.903C227.991 206.559 227.263 206.056 226.657 205.423L191.146 168.466C190.543 167.853 190.069 167.126 189.749 166.328C189.429 165.53 189.271 164.677 189.283 163.817C189.295 162.958 189.478 162.109 189.821 161.32C190.163 160.532 190.659 159.819 191.279 159.224C191.899 158.628 192.63 158.161 193.432 157.85C194.233 157.539 195.089 157.391 195.948 157.413C196.807 157.434 197.654 157.627 198.438 157.978C199.223 158.329 199.93 158.833 200.519 159.459L231.679 191.887L313.143 118.808C313.777 118.228 314.519 117.78 315.327 117.489C316.135 117.198 316.993 117.07 317.85 117.113C318.708 117.155 319.549 117.367 320.324 117.736C321.1 118.106 321.794 118.625 322.368 119.264C322.941 119.903 323.382 120.65 323.666 121.461C323.949 122.271 324.069 123.13 324.018 123.987C323.968 124.845 323.748 125.683 323.371 126.455C322.994 127.227 322.469 127.917 321.824 128.484L235.685 205.758C234.494 206.831 232.948 207.424 231.345 207.423Z" fill="white"/>
</svg>
